<svg width="20" height="20" viewBox="0 0 20 20" fill="none" xmlns="http://www.w3.org/2000/svg">
<g clip-path="url(#clip0)">
<path d="M9.99625 1.80334C12.6669 1.80334 12.9806 1.81521 14.0363 1.86271C15.0125 1.90646 15.54 2.06896 15.8931 2.20771C16.3613 2.39021 16.695 2.60459 17.0438 2.95397C17.3925 3.30334 17.6112 3.63646 17.79 4.10459C17.925 4.45771 18.0919 4.98584 18.135 5.96146C18.1825 7.01709 18.1944 7.33021 18.1944 10.0015C18.1944 12.6727 18.1825 12.9858 18.135 14.0415C18.0912 15.0177 17.9288 15.5452 17.79 15.8983C17.6075 16.3665 17.3931 16.7002 17.0438 17.049C16.6944 17.3977 16.3613 17.6165 15.8931 17.7952C15.54 17.9302 15.0119 18.0971 14.0363 18.1402C12.9806 18.1877 12.6675 18.1996 9.99625 18.1996C7.325 18.1996 7.01188 18.1877 5.95625 18.1402C4.98 18.0965 4.4525 17.934 4.09938 17.7952C3.63125 17.6127 3.2975 17.3983 2.94875 17.049C2.6 16.6996 2.38125 16.3665 2.2025 15.8983C2.0675 15.5452 1.90062 15.0171 1.8575 14.0415C1.81 12.9858 1.79813 12.6727 1.79813 10.0015C1.79813 7.33021 1.81 7.01709 1.8575 5.96146C1.90125 4.98521 2.06375 4.45771 2.2025 4.10459C2.385 3.63646 2.59938 3.30272 2.94875 2.95397C3.29813 2.60522 3.63125 2.38646 4.09938 2.20771C4.4525 2.07271 4.98063 1.90584 5.95625 1.86271C7.01188 1.81084 7.325 1.80334 9.99625 1.80334ZM9.99625 0.00146484C7.28188 0.00146484 6.94063 0.0133398 5.87313 0.0608398C4.80937 0.10834 4.08313 0.278965 3.44875 0.525215C2.79 0.778965 2.23438 1.12459 1.67875 1.68021C1.12313 2.23584 0.781875 2.79521 0.52375 3.45021C0.2775 4.08521 0.106875 4.81146 0.059375 5.87896C0.011875 6.94271 0 7.28396 0 9.99771C0 12.7115 0.011875 13.0533 0.059375 14.1208C0.106875 15.1846 0.2775 15.9108 0.52375 16.5496C0.7775 17.2083 1.12313 17.764 1.67875 18.3196C2.23438 18.8752 2.79375 19.2165 3.44875 19.4746C4.08375 19.7208 4.81 19.8915 5.8775 19.939C6.945 19.9865 7.2825 19.9983 10.0006 19.9983C12.7188 19.9983 13.0563 19.9865 14.1238 19.939C15.1875 19.8915 15.9138 19.7208 16.5525 19.4746C17.2113 19.2208 17.7669 18.8752 18.3225 18.3196C18.8781 17.764 19.2194 17.2046 19.4775 16.5496C19.7237 15.9146 19.8944 15.1883 19.9419 14.1208C19.9894 13.0533 20.0012 12.7158 20.0012 9.99771C20.0012 7.27959 19.9894 6.94209 19.9419 5.87459C19.8944 4.81084 19.7237 4.08459 19.4775 3.44584C19.2237 2.78709 18.8781 2.23146 18.3225 1.67584C17.7669 1.12021 17.2075 0.778965 16.5525 0.52084C15.9175 0.27459 15.1913 0.103965 14.1238 0.0564648C13.0525 0.0127148 12.7106 0.00146484 9.99625 0.00146484ZM9.99625 4.86271C7.16313 4.86271 4.86125 7.16021 4.86125 9.99771C4.86125 12.8352 7.16313 15.1327 9.99625 15.1327C12.8294 15.1327 15.1313 12.8308 15.1313 9.99771C15.1313 7.16459 12.8294 4.86271 9.99625 4.86271ZM9.99625 13.3308C8.155 13.3308 6.66313 11.839 6.66313 9.99771C6.66313 8.15646 8.155 6.66459 9.99625 6.66459C11.8375 6.66459 13.3294 8.15646 13.3294 9.99771C13.3294 11.839 11.8375 13.3308 9.99625 13.3308ZM16.5319 4.66021C16.5319 5.32209 15.9956 5.85834 15.3338 5.85834C14.6719 5.85834 14.1356 5.32209 14.1356 4.66021C14.1356 3.99834 14.6719 3.46209 15.3338 3.46209C15.9956 3.46209 16.5319 3.99834 16.5319 4.66021Z" fill="#FAFFF6"/>
</g>
<defs>
<clipPath id="clip0">
<rect width="20" height="20" fill="white"/>
</clipPath>
</defs>
</svg>
