<svg width="20" height="20" viewBox="0 0 20 20" fill="none" xmlns="http://www.w3.org/2000/svg">
<path d="M10 0C11.3542 0 12.6475 0.264792 13.88 0.794375C15.1125 1.32396 16.1758 2.03583 17.07 2.93C17.9642 3.82417 18.676 4.8875 19.2056 6.12C19.7352 7.3525 20 8.64583 20 10C20 11.8054 19.5529 13.4765 18.6588 15.0131C17.7646 16.5498 16.5494 17.765 15.0131 18.6588C13.4769 19.5525 11.8058 19.9996 10 20C9.01042 20 8.06417 19.8698 7.16125 19.6094C7.66458 18.7935 8.00313 18.0731 8.17688 17.4481L8.88 14.7137C9.05375 15.0437 9.375 15.3346 9.84375 15.5863C10.3125 15.8379 10.8073 15.9637 11.3281 15.9637C12.3698 15.9637 13.3029 15.6642 14.1275 15.065C14.9521 14.4658 15.5902 13.6456 16.0419 12.6044C16.4935 11.5631 16.7192 10.3912 16.7188 9.08875C16.7188 7.54375 16.1242 6.20271 14.935 5.06562C13.7458 3.92854 12.231 3.36 10.3906 3.36C9.26229 3.36 8.22937 3.55104 7.29187 3.93313C6.35437 4.31521 5.59917 4.81437 5.02625 5.43062C4.45333 6.04688 4.015 6.71521 3.71125 7.43563C3.4075 8.15604 3.25563 8.88083 3.25563 9.61C3.25563 10.5129 3.42479 11.3029 3.76312 11.98C4.10146 12.6571 4.60938 13.1346 5.28687 13.4125C5.40854 13.4646 5.51271 13.469 5.59937 13.4256C5.68604 13.3823 5.74688 13.2998 5.78188 13.1781C5.90354 12.744 5.97292 12.4748 5.99 12.3706C6.05958 12.1798 6.01625 11.9975 5.86 11.8237C5.40875 11.3204 5.18313 10.6694 5.18313 9.87063C5.18313 8.55104 5.63896 7.41833 6.55062 6.4725C7.46229 5.52667 8.65583 5.05354 10.1312 5.05312C11.4333 5.05312 12.449 5.40896 13.1781 6.12063C13.9073 6.83229 14.2719 7.76104 14.2719 8.90688C14.2719 9.86188 14.1417 10.7429 13.8812 11.55C13.6208 12.3571 13.2475 13.0037 12.7612 13.49C12.275 13.9762 11.7194 14.2194 11.0944 14.2194C10.5735 14.2194 10.1481 14.0283 9.81812 13.6462C9.48812 13.2642 9.38396 12.8127 9.50562 12.2919C9.57521 12.049 9.66646 11.7365 9.77938 11.3544C9.89229 10.9723 9.98771 10.6467 10.0656 10.3775C10.1435 10.1083 10.2173 9.8175 10.2869 9.505C10.3565 9.1925 10.3912 8.93208 10.3912 8.72375C10.3912 8.28958 10.2783 7.93375 10.0525 7.65625C9.82667 7.37875 9.49687 7.23979 9.06313 7.23938C8.52479 7.23938 8.07333 7.48688 7.70875 7.98187C7.34417 8.47688 7.16187 9.0975 7.16187 9.84375C7.16187 10.1217 7.18354 10.3908 7.22687 10.6512C7.27021 10.9117 7.31792 11.1027 7.37 11.2244L7.44812 11.4069C6.73646 14.4973 6.3025 16.3115 6.14625 16.8494C6.0075 17.509 5.95542 18.2815 5.99 19.1669C4.20167 18.3681 2.75625 17.1442 1.65375 15.495C0.55125 13.8458 0 12.0142 0 10C0 7.23958 0.976458 4.88292 2.92937 2.93C4.88229 0.977083 7.23896 0.000625 9.99937 0.000625L10 0Z" fill="#FAFFF6"/>
</svg>
