<svg width="20" height="20" viewBox="0 0 20 20" fill="none" xmlns="http://www.w3.org/2000/svg">
<path d="M10.5053 0.0168759C11.7607 0 13.0088 0.0100005 14.2556 0C14.3311 1.27569 14.8591 2.57514 15.9339 3.47706C17.0066 4.40148 18.5238 4.82463 20 4.96776V8.32357C18.6166 8.28419 17.2267 8.03418 15.9713 7.51665C15.4246 7.30164 14.9153 7.02475 14.4167 6.74161C14.4102 9.17674 14.4282 11.6087 14.3987 14.0339C14.3239 15.1989 13.8815 16.3584 13.1016 17.3184C11.847 18.9166 9.66936 19.9586 7.43274 19.9911C6.06083 20.0592 4.69037 19.7342 3.52134 19.1354C1.58398 18.1428 0.220714 16.3259 0.0221584 14.3758C-0.00285184 13.9628 -0.00669248 13.549 0.0106479 13.1357C0.183305 11.55 1.08616 10.033 2.48756 9.00111C4.076 7.79917 6.30111 7.22664 8.38451 7.5654C8.40393 8.79984 8.3471 10.033 8.3471 11.2675C7.39533 11 6.28313 11.075 5.4515 11.5769C4.84306 11.9251 4.38326 12.4375 4.1429 13.0351C3.94435 13.4576 4.00118 13.927 4.01269 14.3758C4.24074 15.7433 5.75437 16.8928 7.37015 16.7684C8.44134 16.7584 9.46793 16.2184 10.0262 15.4277C10.2068 15.1508 10.4089 14.8677 10.4197 14.542C10.5139 13.0513 10.4765 11.5669 10.488 10.0762C10.496 6.71661 10.4765 3.36643 10.506 0.0175009L10.5053 0.0168759Z" fill="#FAFFF6"/>
</svg>
