<svg width="145" height="130" viewBox="0 0 145 130" fill="none" xmlns="http://www.w3.org/2000/svg">
<g clip-path="url(#clip0)">
<path d="M102.693 37.024C102.838 36.764 102.693 36.6339 102.693 37.024V37.024Z" fill="#B8A98C"/>
<path d="M40.1208 30.7881C40.1208 30.7881 39.9757 30.7881 39.8307 30.9186C39.8307 30.7881 39.9757 30.7881 40.1208 30.7881Z" fill="#B8A98C"/>
<path d="M68.6548 29.0995C68.7997 29.0995 68.7997 28.9692 68.7997 28.9692C68.6548 28.9692 68.6548 28.9692 68.6548 29.0995Z" fill="#B8A98C"/>
<path d="M80.6777 42.2198C80.6777 42.0895 78.9397 42.4803 80.6777 42.2198V42.2198Z" fill="#B8A98C"/>
<path d="M30.4173 39.4917H30.1272C30.2722 39.6219 30.4173 39.6219 30.4173 39.4917Z" fill="#B8A98C"/>
<path d="M38.6719 31.5687C39.107 31.4374 38.8169 31.4374 38.6719 31.5687V31.5687Z" fill="#B8A98C"/>
<path d="M85.8898 39.6234C86.036 39.6234 86.036 39.6234 85.8898 39.6234C86.036 39.4914 86.036 39.4914 85.8898 39.6234C86.036 39.6234 86.036 39.4914 85.8898 39.6234Z" fill="#B8A98C"/>
<path d="M40.9902 53.3926C40.4108 53.2622 39.8315 53.2622 39.6866 53.2622C39.8315 53.2622 40.4108 53.3926 40.9902 53.3926Z" fill="#B8A98C"/>
<path d="M58.6625 38.063L58.5175 38.1934C58.5175 38.063 58.6625 38.063 58.6625 38.063Z" fill="#B8A98C"/>
<path d="M36.0664 52.2231C35.7764 52.3542 36.0664 52.2231 36.0664 52.2231V52.2231Z" fill="#B8A98C"/>
<path d="M38.8181 52.8721H37.8042C38.0939 52.8721 38.6732 53.0031 38.8181 52.8721Z" fill="#B8A98C"/>
<path d="M41.4243 53.522C41.2792 53.782 42.7296 53.652 41.4243 53.522V53.522Z" fill="#B8A98C"/>
<path d="M46.9291 54.5615C46.7841 54.6929 48.5244 54.6929 46.9291 54.5615V54.5615Z" fill="#B8A98C"/>
<path d="M95.5965 50.5347L95.8865 50.4043C95.5964 50.4043 95.4514 50.4043 95.5965 50.5347Z" fill="#B8A98C"/>
<path d="M102.111 36.894C102.111 36.3734 101.966 37.0241 102.111 36.894V36.894Z" fill="#B8A98C"/>
<path d="M94.2904 53.3921C94.2904 53.5222 94.2904 53.5222 94.2904 53.5222C94.4356 53.6522 94.4356 53.5222 94.2904 53.3921Z" fill="#B8A98C"/>
<path d="M36.2092 58.978H36.0642C36.2092 59.1079 36.2092 59.1079 36.2092 58.978Z" fill="#B8A98C"/>
<path d="M101.968 37.4132C101.678 37.2827 101.388 37.6743 101.968 37.4132V37.4132Z" fill="#B8A98C"/>
<path d="M95.4496 51.9634C95.3045 51.8333 95.0144 53.0038 95.4496 51.9634V51.9634Z" fill="#B8A98C"/>
<path d="M68.5102 73.2681L68.3651 73.3981C68.3651 73.5282 68.5102 73.3981 68.5102 73.2681Z" fill="#B8A98C"/>
<path d="M99.363 41.96C99.363 42.2206 99.6531 41.8298 99.363 41.96V41.96Z" fill="#B8A98C"/>
<path d="M109.644 36.1147C109.644 36.2456 109.644 36.2456 109.644 36.1147C109.791 36.2456 109.791 36.2456 109.644 36.1147Z" fill="#B8A98C"/>
<path d="M104.284 54.3018C104.574 54.1715 104.284 54.1715 104.284 54.3018V54.3018Z" fill="#B8A98C"/>
<path d="M105.299 37.8032C105.152 37.9346 105.299 37.9346 105.299 37.8032V37.8032Z" fill="#B8A98C"/>
<path d="M103.272 39.1025C103.417 39.3634 103.417 39.233 103.272 39.1025V39.1025Z" fill="#B8A98C"/>
<path d="M105.01 38.0632C105.155 38.3243 105.3 37.8021 105.01 38.0632V38.0632Z" fill="#B8A98C"/>
<path d="M106.893 37.2836C106.893 37.4137 107.328 36.8935 106.893 37.2836V37.2836Z" fill="#B8A98C"/>
<path d="M107.616 36.6338C107.906 36.8944 107.616 36.6338 107.616 36.6338V36.6338Z" fill="#B8A98C"/>
<path d="M118.913 42.9995C119.059 43.1322 119.059 42.9995 118.913 42.9995V42.9995Z" fill="#B8A98C"/>
<path d="M82.8484 74.0481C82.8484 74.0481 82.8484 73.9169 82.8484 74.0481C82.9947 73.9169 82.8484 73.9169 82.8484 74.0481Z" fill="#B8A98C"/>
<path d="M71.6977 102.887C71.408 103.017 71.1183 103.147 70.8286 103.406C70.9735 103.276 71.408 103.147 71.6977 102.887Z" fill="#B8A98C"/>
<path d="M82.4147 74.957C82.5595 74.5674 82.7043 74.1777 82.8492 74.0479C82.7043 74.0479 82.5595 74.5674 82.4147 74.957Z" fill="#B8A98C"/>
<path d="M80.5338 83.5312C80.3877 83.6621 80.5338 83.6621 80.5338 83.5312V83.5312Z" fill="#B8A98C"/>
<path d="M74.3015 103.667C74.1565 103.667 74.1565 103.797 74.1565 103.797C74.0114 103.797 74.1565 103.667 74.3015 103.667Z" fill="#B8A98C"/>
<path d="M80.8215 80.5433C80.6763 80.4133 80.6763 80.2832 80.6763 80.2832C80.6763 80.4133 80.6763 80.4133 80.8215 80.5433Z" fill="#B8A98C"/>
<path d="M70.6821 104.316C70.392 104.446 70.1019 104.576 70.1019 104.576C70.392 104.576 70.537 104.446 70.6821 104.316Z" fill="#B8A98C"/>
<path d="M83.4263 73.5288C83.5713 73.2687 83.5714 73.1386 83.7164 72.8784C83.5714 73.1386 83.4263 73.2687 83.4263 73.5288Z" fill="#B8A98C"/>
<path d="M82.2697 75.0867C81.9797 74.9566 81.8346 75.8671 82.2697 75.0867V75.0867Z" fill="#B8A98C"/>
<path d="M80.8199 78.4644C80.6748 78.4644 80.8199 79.5048 80.8199 78.4644V78.4644Z" fill="#B8A98C"/>
<path d="M80.8204 80.1533C80.6742 80.286 80.8204 80.1533 80.8204 80.1533V80.1533Z" fill="#B8A98C"/>
<path d="M73.1449 104.057L73.58 103.927C73.435 103.797 73.2899 103.797 73.1449 104.057Z" fill="#B8A98C"/>
<path d="M88.6409 98.9902C88.3508 99.3807 89.076 98.7299 88.6409 98.9902V98.9902Z" fill="#B8A98C"/>
<path d="M94.5814 95.3528C94.4362 95.0927 94.4362 95.0927 94.5814 95.3528V95.3528Z" fill="#B8A98C"/>
<path d="M105.444 65.0845C105.589 65.2146 105.879 64.9545 106.024 64.6943C105.589 64.9545 105.444 65.0845 105.444 65.0845Z" fill="#B8A98C"/>
<path d="M103.853 66.1228C103.853 65.9928 103.998 65.9928 103.998 65.9928C103.853 65.8628 103.853 65.9928 103.853 66.1228Z" fill="#B8A98C"/>
<path d="M133.398 66.6429C133.688 66.773 133.688 66.1226 133.398 66.6429V66.6429Z" fill="#B8A98C"/>
<path d="M137.599 66.333C136.151 66.0731 134.847 65.0339 133.689 64.6442C129.923 63.475 125.143 62.9554 122.536 62.4357C121.232 62.4357 119.204 62.3058 118.915 62.3058C117.901 62.5656 116.018 62.5656 115.294 62.5656C113.411 63.2152 110.224 64.7741 108.486 64.6442C107.762 65.4236 107.038 65.9432 106.893 65.6834C105.3 66.2031 103.272 67.632 102.258 68.4115C101.824 68.6713 100.52 69.4507 100.52 69.5807C100.23 70.1003 100.375 71.1395 100.085 69.7106C100.23 68.9311 97.4784 68.2816 97.3335 68.4115C97.1887 68.2816 96.7541 68.1517 96.6093 68.5414C96.6093 67.3722 93.1331 68.0218 92.9883 68.4115C92.8434 68.6713 92.6986 68.1517 92.5538 67.8919L91.8296 68.1517C91.8296 67.8919 91.1054 67.632 90.9605 67.632C89.657 67.632 89.0776 67.5021 88.7879 67.5021C88.4982 67.632 88.0637 67.7619 88.2085 67.5021C88.0637 67.632 87.6292 67.632 87.6292 67.5021C88.7879 66.5928 90.2363 65.4236 91.1054 64.7741C91.395 64.5143 91.6847 64.1245 91.9744 63.7348C95.1609 62.046 100.085 62.4357 102.693 60.4871L102.837 60.2273C106.893 58.2787 115.439 57.7591 117.611 52.5628C117.756 52.0431 118.77 51.6534 118.915 51.5235C120.218 50.3543 121.232 48.4057 121.522 47.4964C121.232 46.9767 121.667 45.4178 121.667 45.0281C121.087 41.3907 119.349 38.9225 117.177 37.7533C116.163 37.3636 114.57 36.9739 114.28 36.8439C113.556 36.9739 111.962 36.8439 111.383 36.714C109.5 37.2337 107.472 38.0131 106.024 38.2729C105.589 38.9225 105.155 39.572 104.865 39.1823C104.431 39.4421 103.996 39.7019 103.562 40.0916C102.837 32.8168 80.9665 30.0887 75.7522 30.8682L75.3177 31.128C70.8276 31.128 64.4546 30.3486 58.8059 30.4785C49.9706 30.7383 41.5698 32.4271 33.6036 34.2458C30.8516 35.8047 22.1611 36.1944 24.4786 41.3907C25.6373 47.2366 25.6373 53.3422 29.1135 58.5385C29.6929 59.318 30.4171 60.0974 30.9964 60.2273L31.2861 60.3572C33.4587 62.3058 35.7762 65.2937 38.8178 67.5021C33.3139 68.0218 26.796 67.3722 22.5957 69.8405L22.4508 70.1003C19.1195 71.2695 12.6016 71.919 10.2842 76.076C6.95285 81.9219 16.2227 86.0789 21.1472 86.0789C22.0163 86.0789 22.7405 86.5985 23.3199 86.7285C24.6234 87.1182 27.0857 87.6378 28.679 88.0275C30.1274 88.2873 32.5897 89.0668 34.7623 89.3266C38.5281 89.7163 46.2047 89.7163 48.5222 90.4958C49.8257 90.4958 52.4329 90.3659 52.7225 90.6257C53.8813 90.4958 56.0539 90.6257 56.9229 90.7556C59.2404 90.4958 63.4408 89.9761 65.3237 90.6257C66.4824 90.236 67.4963 89.9761 67.6411 90.3659C69.5241 90.3659 72.7106 90.236 74.3038 89.9761C74.7383 89.9761 76.7661 89.8462 76.911 89.8462C77.6352 89.5864 78.2145 88.5472 77.3455 89.8462C77.78 89.8462 79.6629 89.5864 79.8078 89.4565C79.8078 89.4565 79.9526 89.1967 79.5181 89.1967C79.8078 88.4173 80.0975 89.3266 80.0975 89.4565C80.2423 89.3266 80.532 89.1967 80.6768 89.0668C80.9665 89.4565 81.401 89.8462 81.401 89.7163C80.9665 89.9761 80.3871 88.9369 80.532 89.5864C79.8078 89.3266 80.0975 89.9761 80.2423 89.9761C80.2423 89.9761 80.8217 90.1061 80.6768 90.4958C80.3871 90.1061 80.2423 90.6257 80.2423 90.7556C79.9526 92.1846 80.6768 93.7435 79.8078 94.393C79.5181 94.6528 79.8078 95.4323 79.6629 95.6921H79.8078C79.9526 96.0818 79.2284 96.6014 79.2284 97.251C79.8078 96.6014 79.6629 97.3809 79.6629 97.3809C79.0836 97.251 77.78 101.018 77.4903 101.408C77.2006 102.187 77.0558 102.447 77.0558 102.058C76.4764 102.707 75.7522 103.227 76.0419 103.357L75.1729 103.876C75.028 103.616 74.7383 103.746 74.5935 104.006C74.7383 104.006 75.028 103.876 75.1729 103.876C74.8832 104.136 74.5935 104.396 74.159 104.526C74.3038 104.396 74.4487 104.266 74.5935 104.136C74.3038 104.006 72.5657 105.565 71.5519 106.344C72.1312 105.955 72.7106 105.695 73.4348 105.305C72.8554 105.825 72.2761 105.955 71.6967 106.474C71.6967 106.474 71.6967 106.474 71.8415 106.474C71.5518 106.604 71.1173 106.864 70.8276 106.994L70.2483 107.254C71.1173 106.864 71.407 106.864 72.1312 106.604C72.1312 106.604 69.2344 107.903 69.2344 108.163C69.6689 107.903 70.2483 107.773 70.6828 107.514L70.538 107.644C71.1173 107.384 71.9864 107.124 72.1312 106.994C71.6967 107.254 71.407 107.384 70.9725 107.644C69.9586 108.163 70.2483 107.903 70.9725 107.903C71.5519 107.773 71.9864 107.644 72.5657 107.384C71.9864 107.773 73.2899 107.124 73.5796 106.994C73.5796 107.124 74.8832 106.474 74.8832 106.474C74.8832 106.474 74.4487 106.734 74.159 106.994C74.8832 106.604 77.4903 106.085 76.7661 106.474C77.9248 106.474 80.6768 105.175 80.8217 105.045C80.8217 105.045 83.5736 104.006 83.5736 104.136L82.8494 104.396C82.9943 104.656 83.4288 104.006 83.4288 104.526C85.022 104.136 86.0359 102.577 87.774 102.447C87.774 102.577 87.6292 102.577 87.6292 102.707L89.2224 101.538C88.9327 101.538 89.0776 101.668 89.3673 101.278C90.3812 100.888 90.8157 101.278 91.2502 99.979C91.1054 100.109 92.8434 99.1996 92.8434 99.1996C93.4228 98.8099 96.4645 97.1211 97.0438 96.4715C97.6232 94.6528 100.665 93.4836 101.099 89.9761C101.244 89.9761 101.389 90.106 101.534 90.236C101.244 90.106 101.534 89.5864 101.534 89.5864C101.824 89.3266 101.824 89.0668 101.679 89.0668C101.534 88.9369 101.968 88.4173 102.113 88.4173C101.968 88.2873 102.113 87.8976 102.113 87.8976C102.258 87.6378 102.403 87.378 102.403 86.9883C103.272 86.8584 104.72 86.8584 105.01 86.7285C105.155 86.8584 105.734 86.7285 105.589 86.3387C106.169 87.378 109.066 85.2995 109.066 84.7798C109.066 84.52 109.5 84.7798 109.79 85.0397L110.369 84.3901C110.514 84.6499 111.383 84.3901 111.528 84.3901C112.687 83.7406 113.266 83.4808 113.556 83.2209C113.701 82.8312 113.99 82.5714 114.135 82.8312C114.135 82.5714 114.57 82.3116 114.714 82.3116C114.714 81.6621 115.583 81.6621 115.004 81.1424C115.004 81.2723 115.728 81.1424 115.583 81.1424C115.439 80.8826 115.149 80.2331 115.583 80.6228C115.728 80.4929 116.018 79.7134 116.018 79.5835C117.322 80.1032 118.77 80.2331 119.929 80.2331C120.798 80.2331 121.522 80.1032 122.391 79.9733L123.55 79.7134C127.026 78.4144 131.661 75.9461 133.254 72.9583C133.833 71.7891 135.427 71.6592 136.441 70.6199L136.875 70.1003C137.454 69.4507 138.179 68.6713 138.903 68.0218C138.758 68.1517 138.758 67.3722 139.337 67.5021C139.337 67.632 137.165 66.0731 137.599 66.333ZM100.955 70.3601C100.81 70.3601 104.286 68.8012 103.996 69.4507C104.141 69.4507 104.431 69.5807 104.431 69.5807C104.431 69.1909 105.155 67.632 105.589 67.3722C105.734 67.632 105.879 67.7619 106.169 67.7619C106.169 67.8919 106.024 68.1517 105.879 68.4115C106.314 68.2816 106.748 68.0218 106.893 67.8919C106.893 68.0218 106.893 68.4115 107.038 68.5414C107.328 68.4115 107.183 67.8919 107.328 68.2816L107.472 68.1517C107.328 67.8919 107.038 67.5021 107.472 67.1124C107.762 66.9825 107.907 67.8919 107.907 68.0218C108.486 68.0218 107.907 67.1124 108.197 67.1124C108.341 67.2423 108.631 67.3722 108.776 67.3722C108.776 66.9825 108.776 66.7227 108.631 66.4629C109.066 65.8133 108.921 66.7227 109.21 66.5928V66.9825C110.224 67.3722 109.935 66.8526 110.224 66.5928C110.514 66.5928 110.659 66.5928 110.659 66.8526C110.804 66.5928 111.093 66.0731 110.949 66.5928C111.238 66.4629 111.383 67.1124 111.383 66.5928C111.528 66.5928 111.673 66.7227 111.818 66.5928C112.107 66.2031 111.818 66.0731 111.818 66.0731C111.962 65.9432 112.687 65.8133 112.831 65.8133C112.687 65.6834 113.266 65.8133 113.411 65.9432C113.411 65.6834 113.411 65.5535 113.411 65.2937C113.556 65.4236 113.701 65.6834 113.556 65.9432C113.556 65.6834 114.425 64.904 114.714 65.0339C114.859 64.7741 115.149 64.5143 115.294 64.3843C115.439 64.7741 114.859 65.2937 115.294 65.0339C115.149 65.6834 115.728 65.2937 115.728 65.1638C115.728 65.1638 115.728 64.5143 116.163 64.7741C115.873 65.1638 116.597 65.1638 116.453 65.1638C118.046 65.0339 118.915 64.5143 119.784 64.904C120.074 65.1638 120.798 64.7741 120.943 64.904V64.7741C121.087 64.904 121.956 64.904 122.391 64.904C121.956 64.6442 122.536 64.6442 122.681 64.5143C122.681 65.1638 126.591 65.4236 126.881 65.5535C127.46 65.5535 127.605 65.5535 127.46 65.5535C127.895 65.6834 128.329 65.8133 128.474 65.5535L128.764 65.6834C128.329 65.9432 128.909 65.5535 129.198 65.8133C128.764 66.0732 129.923 66.0731 130.068 65.9432C129.343 65.4236 130.212 65.6834 130.068 65.8133C130.357 65.6834 130.502 65.6834 130.502 65.9432C130.647 65.8133 131.226 66.2031 131.371 66.333C131.806 66.333 132.53 66.7227 132.675 66.7227C132.53 66.7227 132.53 66.7227 132.385 66.7227C132.385 67.1124 133.689 67.3722 134.413 67.3722C129.923 67.8919 123.839 66.5928 120.508 68.4115L120.363 68.6713C118.191 69.1909 115.294 68.9311 112.542 69.1909C108.631 69.5807 104.576 70.49 100.665 70.7498C100.52 70.49 100.81 70.3601 100.955 70.3601ZM100.375 70.7498C100.23 70.7498 99.9407 70.7498 99.7958 70.7498C99.9407 70.6199 100.23 70.6199 100.375 70.7498ZM98.4922 72.8283C99.0716 72.6984 99.5061 72.6984 99.9406 72.9583L99.7958 73.0882C99.3613 72.9583 98.7819 72.8283 98.4922 72.8283ZM90.526 69.7106C90.526 69.7106 90.3812 69.8405 90.526 69.7106C90.3812 69.7106 90.526 69.7106 90.526 69.7106ZM83.7185 68.1517C83.7185 68.1517 83.7185 68.0218 83.7185 67.7619C83.7185 68.0218 83.7185 68.1517 83.7185 68.1517ZM104.286 41.9103C104.286 42.0402 104.431 41.2608 104.431 41.001C104.72 41.3907 105.3 42.1702 104.576 42.0402C104.72 42.1702 104.72 42.1702 104.865 42.1702C104.865 42.0402 105.01 41.2608 105.155 41.2608C105.3 41.2608 105.3 41.3907 105.445 41.3907C105.445 41.3907 105.589 41.2608 105.734 41.2608C105.734 41.3907 105.879 41.7804 106.024 41.7804C106.169 41.6505 106.024 41.2608 106.169 41.5206V41.3907C106.024 41.2608 105.589 40.7412 105.879 40.4814C106.024 40.3514 106.458 41.1309 106.458 41.2608C106.748 41.2608 106.314 40.4814 106.458 40.4814C106.603 40.6113 106.748 40.7412 107.038 40.7412C107.038 40.4814 106.893 40.0916 106.603 39.8318C106.748 39.3122 106.893 39.9617 107.038 39.9617V40.3514C108.052 40.8711 107.617 39.572 108.052 40.4814C108.052 40.3514 108.341 39.4421 108.197 40.0916C108.341 39.9617 108.631 40.6113 108.486 40.0916C108.631 40.0916 108.631 40.2215 108.776 40.2215C108.921 39.9617 108.631 39.7019 108.631 39.7019C108.631 39.572 109.5 39.4421 109.355 39.572C109.355 39.4421 109.645 39.7019 109.79 39.8318C109.79 39.7019 109.79 39.4421 109.79 39.3122C109.935 39.4421 109.935 39.7019 109.935 39.9617C109.935 39.7019 110.224 39.8318 110.224 39.4421C110.659 39.4421 110.369 39.0524 110.659 39.4421C110.659 39.4421 111.093 38.9225 111.238 38.6626C111.238 39.0524 110.804 39.3122 111.238 39.3122C111.093 40.2215 111.673 39.0524 111.818 39.1823C111.528 39.572 111.962 39.572 111.962 39.572C113.266 39.7019 113.701 39.0524 114.28 39.7019C114.425 39.9617 114.859 39.572 115.004 39.8318L115.149 39.7019C115.439 39.572 115.728 40.0916 116.308 39.8318C115.728 40.7412 117.901 41.1309 118.046 41.2608C117.611 41.2608 117.901 41.9103 117.901 41.9103C118.191 42.1702 118.335 42.1702 118.191 42.1702C118.335 42.5599 118.48 42.6898 118.77 42.5599V42.8197C118.335 42.8197 119.06 43.4692 119.204 43.4692C119.349 43.5991 119.639 43.5991 119.204 43.729C119.494 43.729 119.204 44.3786 119.204 44.3786C119.349 44.6384 119.349 45.158 119.349 45.158V45.0281C118.625 45.158 119.639 46.8468 119.639 46.7169C119.204 47.1066 119.494 47.2365 119.639 47.7562C118.77 48.016 118.48 49.3151 118.48 49.445C118.046 49.1852 118.191 49.7048 118.191 49.8347C118.191 49.9646 117.611 50.4842 117.611 50.3543C117.756 49.8347 117.611 50.6141 117.322 50.0945C116.742 50.6141 116.597 52.173 115.583 52.173C115.583 52.0431 115.583 52.0431 115.583 51.9132C115.149 52.6927 115.004 52.6927 115.004 53.2123C114.425 53.602 113.99 53.2123 113.99 54.2516C113.99 54.2516 113.411 54.9011 112.976 54.7712C112.976 54.7712 112.542 55.031 111.962 55.1609C111.962 55.1609 111.962 55.031 111.818 54.9011C111.962 55.031 111.962 55.1609 111.962 55.1609C111.093 55.5506 110.08 55.9404 109.935 56.0703C109.5 56.8497 106.458 56.8497 105.01 57.889C104.286 58.0189 104.286 57.889 104.286 57.889C104.286 57.889 104.141 57.889 103.996 58.0189C103.707 58.0189 103.562 58.0189 103.707 58.1488C103.707 58.2787 103.127 58.1488 103.127 58.1488C103.127 58.2787 102.837 58.4086 102.837 58.4086C102.113 58.2787 99.3613 59.9675 98.6371 60.7469C98.2026 60.617 97.768 60.7469 97.4784 61.0068C96.899 61.0068 95.0161 61.3965 93.5677 61.9161C94.8712 60.3572 96.3196 58.9282 97.4784 57.7591C97.4784 57.6292 98.3474 55.1609 98.0577 55.2908C98.2026 54.7712 98.4922 55.2908 98.4922 55.2908C99.0716 54.2516 99.5061 52.8226 99.9406 51.5235C100.375 50.874 100.52 50.2244 100.375 49.5749C100.52 49.1852 100.52 48.7954 100.52 48.4057C100.81 47.6263 101.099 46.1973 101.099 45.6777C101.099 45.4178 100.955 45.158 100.81 44.8982C100.81 44.8982 100.81 44.7683 100.955 44.7683C101.099 44.8982 101.244 45.0281 101.389 45.158C101.534 44.8982 101.534 44.3786 101.679 43.859C101.968 43.4692 103.851 42.0402 103.707 42.8197C103.851 42.8197 103.996 42.8197 103.996 42.8197C103.707 42.43 102.548 41.6505 104.286 41.9103ZM79.3733 55.1609C77.9248 55.2908 72.5657 55.9404 72.2761 55.8105C70.6828 55.9404 66.7721 56.46 66.3376 56.0703C64.5995 56.3301 61.9924 56.2002 60.3991 56.2002C56.3436 56.5899 52.1432 56.2002 48.5222 55.8105C47.3634 56.0703 45.046 56.2002 45.1908 55.6805C42.1492 55.1609 38.673 54.7712 35.921 54.2516C34.9071 53.9917 33.0242 53.4721 32.3 53.2123C31.2861 53.0824 29.8377 53.7319 31.7206 52.9525C31.1413 52.5628 29.1135 51.7833 28.679 51.6534C28.679 51.6534 28.2444 51.7833 28.679 52.0431C27.8099 52.4329 28.0996 51.3936 28.2444 51.3936C27.9548 51.3936 27.8099 51.2637 27.5202 51.1338C27.5202 51.0039 27.5202 50.7441 27.5202 50.4842C27.5202 50.4842 27.5202 50.3543 27.6651 50.3543C27.6651 50.3543 27.5202 50.3543 27.5202 50.4842C27.3754 48.4057 26.9409 45.6777 26.2167 43.5991C26.9409 44.1188 27.6651 44.6384 27.5202 44.5085C28.5341 44.7683 29.9825 45.2879 31.2861 45.8076C29.548 46.4571 28.2444 47.3665 27.9548 48.4057C27.5202 48.9253 27.6651 49.445 28.3893 49.7048C28.0996 48.4057 30.1274 47.3665 33.3139 46.587H33.4587C37.6591 47.6263 42.294 48.1459 46.3495 48.6655C48.0876 48.9253 53.7364 48.9253 54.0261 49.3151C55.4745 49.3151 60.1094 49.1852 60.3991 49.445C62.4269 49.1852 65.034 49.3151 66.7721 49.445C70.9725 48.9253 75.6074 48.6655 79.5181 48.5356C80.6768 48.1459 82.9943 47.3665 82.9943 47.8861C86.0359 47.6263 89.9466 46.8468 92.5538 46.0674C94.7264 46.8468 97.9129 48.6655 97.768 49.9646C97.6232 51.2637 93.1331 52.3029 90.9605 52.9525C87.3395 54.1217 83.1391 54.7712 79.3733 55.1609ZM95.4506 45.2879C95.7403 45.4178 96.0299 45.5478 96.1748 45.5478C96.1748 45.4178 95.8851 45.2879 95.7403 45.158C96.1748 45.0281 96.4645 44.8982 96.7542 44.7683C97.4784 44.2487 98.3474 42.8197 97.4784 44.6384C98.3474 44.3786 100.52 43.2094 100.665 42.8197C100.665 42.8197 100.665 42.5599 100.23 42.6898C100.23 42.0402 100.52 42.1702 100.81 42.3001C100.665 42.6898 100.52 42.9496 100.81 43.0795C100.81 43.2094 100.81 43.3393 100.81 43.4692V43.5991C100.81 43.4692 100.665 43.4692 100.52 43.2094C100.375 43.3393 100.23 43.5991 100.23 43.859C100.085 44.2487 100.085 44.5085 100.085 44.5085C100.085 44.5085 100.23 44.6384 100.375 44.6384C100.23 44.7683 100.085 45.0281 100.085 45.0281V45.158C99.9406 45.6777 99.5061 46.587 99.2164 47.3665C99.0716 47.2366 98.9268 47.1066 98.7819 47.1066C98.9268 47.1066 96.4645 45.8076 95.4506 45.2879C95.4506 45.4178 95.4506 45.4178 95.4506 45.2879ZM101.099 42.5599C101.244 42.43 101.244 42.3001 101.244 42.0402C101.389 42.0402 101.679 42.0402 101.679 42.0402C101.534 42.1702 101.534 42.1702 101.389 42.3001C101.389 42.43 101.244 42.43 101.099 42.5599C100.955 42.5599 100.955 42.43 100.955 42.43C101.099 42.43 101.244 42.5599 101.099 42.5599ZM96.899 51.7833C96.899 51.7833 96.899 51.7833 97.0438 51.9132C97.0438 51.7833 96.899 51.7833 96.899 51.7833ZM86.7601 45.4178C87.3395 45.4178 87.9189 45.5478 88.4982 45.5478C87.4843 45.9375 86.7601 46.3272 86.7601 46.3272C86.6153 45.9375 86.3256 45.8076 86.0359 45.8076C86.0359 45.8076 86.3256 45.6777 86.7601 45.4178ZM85.8911 45.5478C85.6014 45.5478 85.4566 45.5478 85.7463 45.5478C85.4566 45.5478 85.1669 45.6777 84.8772 45.6777C84.8772 45.5478 85.022 45.4178 85.022 45.4178C85.3117 45.2879 85.6014 45.4178 85.8911 45.5478C85.7462 45.5478 85.7462 45.4178 85.8911 45.5478ZM83.4288 45.9375C83.284 46.0674 83.5736 46.587 82.5598 46.0674C82.8494 45.9375 82.9943 45.5478 83.1391 45.4178C82.8494 45.4178 82.5598 45.5478 82.2701 45.8076C82.5598 45.8076 82.5598 45.8076 82.5598 45.9375C82.2701 45.9375 80.6768 46.4571 80.2423 46.8468C80.2423 46.7169 79.9526 46.587 79.8078 46.587L80.2423 46.1973C79.5181 45.9375 78.9387 45.9375 78.3594 45.9375C78.2145 45.9375 78.0697 46.0674 78.0697 46.0674C77.9248 46.0674 77.9248 46.0674 78.0697 46.0674C77.9248 46.1973 77.78 46.4571 77.78 45.8076C77.4903 45.9375 75.8971 46.8468 76.7661 46.1973C76.1868 46.3272 76.3316 45.6777 75.8971 46.1973C75.7522 46.1973 75.3177 46.0674 75.1729 46.0674C74.8832 46.3272 74.5935 46.3272 74.3038 46.1973C74.5935 46.3272 74.7383 46.3272 75.028 46.3272C75.1729 46.4571 72.8554 46.587 73.0003 46.587C73.0003 46.8468 72.1312 46.3272 71.9864 46.1973C71.9864 46.4571 71.8415 46.7169 71.5519 46.8468C71.2622 46.7169 71.2622 46.4571 71.407 46.1973C71.1173 46.4571 69.2344 47.1066 68.7999 46.9767C68.9447 46.8468 69.0896 46.8468 69.2344 46.7169C68.7999 46.7169 68.2205 47.3665 67.786 47.6263C67.6411 47.6263 67.6411 47.6263 67.4963 47.6263C67.0618 47.3665 68.7999 46.587 67.6411 46.8468C68.0757 46.1973 66.7721 46.587 66.7721 46.587C66.6273 47.1066 65.7582 46.7169 65.4685 46.587C63.1511 46.587 60.3991 47.3665 58.8059 46.587C58.0817 46.3272 57.0678 46.7169 56.4884 46.587V46.7169C55.6194 46.8468 54.4606 46.3272 53.4468 46.4571C53.3019 46.4571 46.9289 46.4571 45.3357 45.9375C44.3218 45.9375 44.0321 45.9375 44.3218 45.9375C43.5976 45.8076 42.8734 45.6777 42.4388 45.9375H42.0043C42.4388 45.6777 42.0043 45.8076 41.5698 45.8076C41.5698 45.8076 41.5698 45.8076 41.5698 45.6777C40.2662 45.2879 40.1214 45.4178 40.1214 45.8076C39.3972 45.8076 39.2523 45.6777 39.6869 45.6777C39.2523 45.8076 39.1075 45.8076 38.9627 45.4178C38.8178 45.4178 38.673 45.4178 38.5281 45.4178C44.6115 44.5085 51.2741 44.1188 52.1432 43.859L52.4329 43.5991C61.5578 42.5599 73.5796 44.1188 84.153 45.158L83.7185 45.2879C83.8633 46.0674 84.8772 45.5477 83.4288 45.9375ZM78.0697 46.4571C77.9248 46.4571 77.9248 46.4571 78.0697 46.4571C77.9248 46.4571 77.9248 46.4571 78.0697 46.4571ZM41.425 45.8076H41.2801C41.425 45.8076 41.425 45.8076 41.425 45.8076ZM84.2978 45.2879C84.4427 45.2879 84.4427 45.2879 84.5875 45.2879C84.4427 45.2879 84.4427 45.4178 84.2978 45.2879ZM27.2306 38.7926C27.2306 38.7926 30.2722 36.8439 30.5619 36.9739C30.4171 37.1038 29.6929 37.2337 29.548 37.3636C29.8377 37.7533 30.1274 36.8439 30.2722 37.4935C32.5897 36.5841 34.6174 35.0252 37.2246 35.1551C37.0797 35.2851 37.0797 35.2851 36.9349 35.415C36.7901 35.415 38.8178 34.7654 39.542 34.5056C39.2523 34.3757 40.2662 34.1159 40.1214 34.1159C40.4111 33.986 40.7008 33.986 41.1353 33.8561C42.0043 33.986 42.8734 34.1159 43.8873 33.2065C43.7424 33.3364 46.0599 32.6869 46.7841 32.557C46.7841 32.557 46.6392 32.557 46.9289 32.8168C46.6392 32.8168 48.5222 32.8168 49.6809 32.8168V32.9467H49.8257V32.8168C49.9706 32.8168 50.2603 32.8168 50.2603 32.8168C51.7087 32.6869 55.04 32.2972 55.3297 32.4271C58.0817 31.3878 64.4547 32.557 68.7999 32.1673C68.7999 32.2972 68.655 32.4271 68.655 32.4271C68.9447 32.2972 69.6689 32.4271 69.6689 32.4271C70.2483 32.6869 70.538 32.6869 70.538 32.4271C70.8276 32.2972 71.5518 32.557 71.8415 32.6869C71.9864 32.557 72.8554 32.6869 72.8554 32.6869C74.4487 33.0766 76.1868 32.6869 77.6352 32.8168C79.9526 32.9467 82.7046 33.5963 84.8772 32.9467C85.7462 33.4663 87.0498 33.3364 87.774 33.5963C92.8434 35.2851 96.899 36.0645 101.679 38.4028C102.403 38.9225 102.982 39.572 103.417 40.2215C102.982 40.6113 102.548 41.001 102.258 41.3907C101.968 41.3907 101.534 41.6505 102.258 41.5206C102.113 41.6505 101.968 41.9103 101.824 42.0402L101.679 42.1702C101.679 42.0402 101.534 41.9103 101.534 41.7804V41.6505C101.534 41.6505 101.534 41.6505 101.389 41.7804C101.389 41.6505 101.244 41.5206 101.244 41.3907C101.244 41.3907 101.099 41.9103 101.099 42.0402H100.955C100.955 42.1702 100.955 42.1702 100.955 42.3001L100.81 42.1702C99.0716 42.8197 98.6371 43.2094 99.651 43.2094C98.7819 43.729 98.3474 43.9889 98.2026 43.3393C98.2026 43.859 97.1887 43.9889 97.0438 43.9889C96.4645 44.1188 95.4506 44.2487 94.4367 44.5085C94.4367 44.5085 94.2919 44.5085 94.0022 44.6384C92.1192 44.2487 90.3812 44.5085 88.3534 43.5991C88.4982 43.5991 88.6431 43.4692 88.7879 43.4692C88.9327 43.4692 86.7601 43.3393 86.0359 43.3393C86.1808 43.5991 85.1669 43.4692 85.3117 43.4692C85.022 43.4692 84.7324 43.4692 84.2978 43.4692C83.5736 43.0795 82.8494 42.6898 81.5459 43.3393C81.8355 43.3393 79.5181 43.3393 78.7939 43.3393C78.7939 43.3393 78.9387 43.3393 78.7939 43.0795C79.0836 43.0795 77.3455 42.8197 76.3316 42.6898V42.5599H76.1868V42.6898C76.0419 42.6898 75.8971 42.6898 75.7522 42.6898C74.4487 42.5599 71.2622 42.5599 70.8276 42.43C68.0757 43.2094 62.5717 41.7804 58.0817 42.43C58.0817 42.3001 58.0817 42.1702 58.2265 42.1702C57.9368 42.3001 57.2126 42.1702 57.2126 42.1702C56.6332 41.9103 56.3436 41.9103 56.3436 42.3001C56.0539 42.43 55.3297 42.3001 55.04 42.1702C54.8952 42.3001 54.171 42.3001 54.171 42.3001C52.8674 42.0402 50.8396 42.6898 49.6809 42.8197C47.6531 43.0795 44.7563 43.0795 43.0182 44.2487C42.0043 43.9889 40.9904 44.5085 40.2662 44.5085C39.1075 44.5085 37.0797 44.7683 34.9071 45.158C34.3278 44.6384 30.2722 43.9889 30.1274 43.9889C30.2722 44.1188 27.8099 43.3393 29.1135 43.3393C28.679 42.5599 26.9409 42.3001 26.6512 41.7804C26.6512 40.2215 26.796 39.1823 27.2306 38.7926ZM35.7762 62.6956C35.921 62.5656 35.921 62.5656 36.0659 62.5656C35.7762 62.4357 35.4865 62.046 35.4865 62.046C35.3416 61.5264 35.1968 61.3965 35.052 61.6563C34.7623 61.6563 34.4726 61.0068 34.4726 60.8768C34.1829 60.8768 33.8932 60.4871 33.8932 60.4871C33.4587 59.5778 32.1551 59.0581 31.5758 58.4086C30.2722 56.9796 29.8377 54.9011 28.2444 53.8618C28.3893 53.2123 27.9548 52.173 27.6651 51.7833C27.6651 51.6534 27.6651 51.5235 27.6651 51.3936C27.8099 51.5235 27.9548 51.6534 27.9548 51.6534L27.8099 51.7833C28.5341 52.3029 29.1135 52.9525 29.2583 52.5628C29.9825 52.9525 30.7067 53.0824 30.1274 53.602C30.5619 53.3422 31.2861 53.8618 31.4309 53.9917C32.0103 54.3815 32.8794 54.7712 33.8932 55.031C33.7484 55.031 37.0797 56.0703 36.6452 56.2002C36.9349 56.3301 37.0797 56.5899 37.0797 56.5899C37.2246 56.46 37.0797 56.3301 37.0797 56.2002C38.2385 56.46 41.5698 56.2002 41.5698 56.0703C41.5698 56.46 41.7146 56.5899 42.1492 56.7198C42.0043 56.8497 41.5698 56.9796 41.1353 56.9796C41.8595 57.1095 42.7285 57.2394 42.1492 57.3693C42.4388 57.3693 42.7285 57.3693 43.0182 57.3693C42.7285 57.4992 42.4388 58.0189 42.5837 57.889C43.0182 58.0189 43.4527 57.6292 43.4527 57.889H43.8873C44.0321 57.2394 43.0182 57.4992 44.4666 57.4992C44.6115 57.3693 44.6115 56.8497 45.3357 57.4992C45.046 57.6292 44.7563 57.889 44.6115 58.0189C44.9011 58.0189 45.1908 58.0189 45.6253 57.889C45.3357 57.889 45.3357 57.7591 45.4805 57.6292C45.7702 57.6292 47.3634 57.4992 47.9428 57.2394C47.9428 57.3693 48.2325 57.4992 48.2325 57.4992L47.798 57.7591C48.3773 58.1488 48.9567 58.2787 49.536 58.2787C49.6809 58.2787 49.8257 58.2787 49.8257 58.1488C49.9706 58.1488 49.9706 58.1488 49.8257 58.1488C49.9706 58.0189 50.2603 57.889 49.9706 58.4086C50.2603 58.2787 51.9983 57.7591 50.9845 58.1488C51.5638 58.1488 51.419 58.6684 51.8535 58.2787C51.9983 58.2787 52.4329 58.5385 52.5777 58.5385C52.8674 58.2787 53.1571 58.2787 53.4468 58.4086C53.3019 58.2787 53.0122 58.1488 52.7225 58.2787C52.5777 58.1488 54.7503 58.1488 54.7503 58.1488C54.7503 57.889 55.6194 58.4086 55.7642 58.5385C55.7642 58.2787 55.909 58.1488 56.1987 58.0189C56.3436 58.2787 56.3436 58.4086 56.1987 58.6684C56.4884 58.4086 58.3713 57.889 58.8059 58.0189C58.661 58.1488 58.5162 58.1488 58.3713 58.2787C58.661 58.2787 59.3852 57.7591 59.8197 57.4992C59.8197 57.4992 59.9646 57.4992 60.1094 57.4992C60.5439 57.889 58.8059 58.4086 59.9646 58.2787C59.5301 58.9282 60.6888 58.5385 60.6888 58.5385C60.8336 58.0189 61.7027 58.4086 61.9924 58.5385C64.165 58.6684 66.9169 57.7591 68.3654 58.4086C69.0896 58.6684 69.9586 58.1488 70.538 58.2787V58.1488C71.2622 57.889 72.4209 58.2787 73.5796 58.1488C73.7245 58.1488 79.8078 57.1095 81.401 57.3693C82.2701 57.1095 82.5598 56.9796 82.2701 57.2394C82.9943 57.2394 83.7185 57.1095 84.0082 56.7198H84.5875C84.2978 56.9796 84.5875 56.8497 85.022 56.7198C85.022 56.7198 85.022 56.7198 85.022 56.8497C86.3256 56.8497 86.4705 56.5899 86.3256 56.3301C86.905 56.2002 87.0498 56.2002 86.7601 56.3301C87.0498 56.2002 87.1947 56.0703 87.4843 56.3301C87.774 56.2002 88.0637 56.0703 88.2085 55.9404C88.4982 56.7198 88.6431 56.2002 89.0776 56.0703C89.9466 55.8105 90.526 55.8104 90.9605 55.6805C91.5399 56.3301 95.4506 54.2516 95.5954 54.1217C95.5954 54.1217 96.4645 53.602 96.7542 53.602V53.7319H96.899L96.7542 53.8618C96.899 53.8618 97.0438 53.7319 97.1887 53.7319C97.1887 53.8618 97.1887 53.9917 97.0438 54.1217C97.1887 54.3815 97.768 54.3815 96.899 54.6413C96.899 54.3815 96.4645 54.1216 96.4645 53.9917C96.3196 54.2516 96.3196 54.3815 96.4645 54.6413C96.4645 54.2516 97.3335 54.7712 96.7542 55.031C96.4645 55.031 96.1748 55.1609 96.03 55.2908C97.768 55.4207 96.1748 56.3301 96.1748 56.46L95.5954 56.0703C94.2919 56.5899 95.0161 56.5899 94.8712 57.2394C94.4367 57.4992 94.2919 57.4992 94.2919 57.2394C94.147 57.3693 93.4228 56.2002 94.4367 57.889C94.147 58.1488 94.0022 58.1488 94.147 57.7591C93.8573 58.1488 93.4228 57.6292 93.5677 58.1488C93.4228 58.1488 93.1331 58.2787 93.1331 58.4086C93.1331 58.6684 93.1331 58.7983 92.8434 58.9282C93.1331 58.9282 93.278 58.7983 93.278 58.6684C93.5677 58.6684 92.2641 59.9675 92.4089 59.8376C92.5538 59.9675 91.8296 60.0974 91.5399 60.0974C91.6847 60.2273 91.8296 60.4871 91.8296 60.7469C91.5399 60.7469 91.395 60.617 91.2502 60.3572C91.2502 60.7469 90.6708 62.046 90.3812 62.1759C90.3812 62.046 90.3812 61.9161 90.3812 61.7862C89.8018 62.3058 90.6708 62.8255 90.526 63.3451C90.0915 63.6049 90.6708 62.6956 90.0915 63.2152C89.657 63.2152 89.9466 61.9161 89.657 62.5656C89.3673 61.9161 88.9327 62.6955 88.9327 62.8255C88.9327 62.8255 89.3673 63.2152 88.7879 63.475C89.0776 62.9554 88.3534 63.3451 88.3534 63.3451C87.0498 64.3843 85.8911 66.2031 84.5875 66.2031C84.0082 66.2031 83.7185 66.8526 83.1391 66.9825V67.1124C82.7046 67.5021 81.6907 67.3722 80.8217 67.8919C81.8355 67.7619 80.9665 68.2816 80.9665 68.2816C80.6768 67.632 79.3733 68.4115 78.649 68.6713C75.7522 69.7106 77.4903 70.8797 76.3316 72.3087C76.3316 72.9583 76.3316 73.2181 76.1868 72.9583C75.8971 73.4779 75.7522 73.8676 76.0419 74.1274L75.7522 74.3872C75.6074 73.8676 75.7522 74.647 75.4625 74.777C75.6074 74.647 75.6074 74.5171 75.4625 74.5171C75.3177 74.647 74.8832 75.4265 74.8832 75.5564C75.7522 75.0368 75.1729 75.8162 75.028 75.5564C75.028 76.076 74.0141 76.076 73.7245 75.9461C73.2899 76.4658 72.1312 76.4658 71.8415 76.4658C71.9864 76.4658 71.9864 76.3358 72.1312 76.3358C71.8415 75.8162 68.3654 76.8555 68.3654 76.9854C68.3654 76.9854 66.4824 77.3751 67.4963 76.8555C67.0618 76.4658 61.413 76.9854 61.2682 77.1153C61.413 76.7256 60.2543 76.9854 60.1094 77.1153C59.9646 77.1153 58.0817 77.1153 57.9368 76.9854C58.0817 76.9854 58.8059 77.1153 58.8059 76.9854C58.8059 76.7256 57.9368 76.9854 58.3713 76.5957C56.6332 76.3358 54.171 77.2452 52.5777 76.076C52.7225 76.076 52.7225 75.9461 52.8674 75.9461C51.5638 75.9461 51.7087 75.2966 50.9845 75.4265C50.9845 75.6863 51.1293 75.6863 50.6948 75.2966C50.5499 75.1667 50.4051 74.9069 50.2603 74.777C50.2603 74.1274 50.4051 73.6078 49.2464 72.9583C49.3912 72.9583 49.536 72.8283 49.6809 72.8283C49.2464 71.6592 48.0876 71.3994 48.8118 70.7498C48.5222 69.7106 48.9567 69.8405 47.9428 69.3208C47.9428 69.3208 47.9428 69.3208 47.9428 69.1909H47.798C47.798 69.1909 47.798 69.1909 47.798 69.3208C47.6531 69.3208 47.5083 69.1909 47.3634 69.061C46.2047 68.4115 44.0321 68.1517 43.5976 67.8919C42.294 67.8919 42.8734 67.1124 41.425 67.2423C41.425 67.1124 41.425 67.1124 41.2801 66.8526C41.2801 66.8526 41.2801 66.7227 41.425 66.7227H41.2801C40.5559 65.9432 36.6452 63.2152 35.7762 62.6956ZM81.5459 82.8312C80.3871 82.9611 80.9665 83.221 81.1113 83.7406C81.1113 84.0004 80.9665 84.1303 80.8217 84.1303C81.1113 84.3901 81.401 84.9097 80.9665 84.52C80.9665 84.9097 80.2423 84.7798 80.8217 85.0397C80.8217 85.1696 80.6768 85.2995 80.6768 85.4294C80.9665 85.949 80.6768 85.949 80.9665 85.5593C81.2562 85.4294 81.1113 86.8584 81.1113 86.7285C81.2562 86.7285 80.8217 87.1182 80.6768 87.2481C80.9665 87.2481 81.1113 87.378 81.2562 87.5079C80.9665 87.6378 80.8217 87.6378 80.532 87.5079C80.8217 87.6378 81.401 88.807 81.2562 89.0668C81.1113 88.9369 81.1113 88.9369 80.9665 88.807C80.9665 88.9369 80.9665 88.9369 81.1113 89.0668C80.9665 89.0668 80.6768 89.0668 80.6768 89.0668V88.9369C80.0975 89.0668 79.3733 88.807 79.5181 89.1967C78.7939 89.3266 78.3594 89.3266 78.5042 88.807C78.3594 89.1967 77.6352 89.0668 77.6352 89.0668C77.6352 89.0668 75.028 88.9369 74.159 88.6771C74.3038 88.5472 74.159 88.6771 74.159 88.6771C73.8693 88.6771 73.7245 88.5472 73.8693 88.5472C73.7245 88.5472 73.4348 88.2873 73.4348 88.2873C73.4348 88.5472 73.5796 88.6771 73.8693 88.807C73.1451 88.0275 70.1034 89.3266 70.3931 89.3266C70.3931 89.0668 70.2483 88.807 69.9586 88.807C69.9586 88.6771 70.2483 88.5472 70.538 88.4173C70.1034 88.4173 69.5241 88.4173 69.2344 88.4173C69.3792 88.1574 69.6689 87.5079 69.5241 87.7677C69.2344 87.7677 68.9447 88.2873 68.9447 87.8976L68.655 88.0275C68.655 88.6771 69.3792 88.2873 68.3654 88.5472C68.2205 88.807 69.5241 88.6771 68.0757 88.9369C67.9308 88.9369 67.786 88.807 67.786 88.5472C67.9308 88.4173 68.0757 88.0275 68.2205 88.0275C67.9308 88.0275 67.786 88.1574 67.6411 88.2873C67.9308 88.1574 67.786 89.0668 67.4963 88.6771C67.3515 88.4173 67.2066 88.2873 66.9169 88.1574C66.6273 88.4173 66.6273 88.807 66.6273 89.0668C65.7582 89.4565 66.4824 88.807 66.0479 88.6771L66.3376 88.4173C65.3237 87.6378 65.4685 88.2873 64.8892 88.4173C64.4546 88.2873 64.3098 88.1574 64.5995 88.0275C64.3098 88.1574 64.7443 86.8584 64.165 88.4173C63.7304 88.4173 63.5856 88.2873 64.0201 88.1574C63.5856 88.1574 63.7304 87.5079 63.4408 88.0275C63.2959 88.0275 63.1511 87.8976 63.0062 87.8976C62.4269 88.2873 62.4269 87.8976 62.8614 88.1574C63.0062 88.4173 61.2682 88.2873 61.5578 88.2873C61.5578 88.4172 60.9785 88.1574 60.8336 87.8976C60.8336 88.1574 60.6888 88.2873 60.5439 88.4173C60.3991 88.1574 60.3991 88.0275 60.5439 87.7677C60.3991 88.0275 58.9507 88.5472 58.8059 88.4173C58.9507 88.2873 58.9507 88.2873 59.0955 88.1574C58.661 88.1574 57.9368 88.9369 57.9368 88.9369C57.6471 88.5472 58.8059 88.0275 58.0817 88.1574C58.3713 87.5079 57.5023 87.8976 57.5023 87.8976C57.5023 87.8976 57.5023 88.4172 56.9229 88.2873C57.3574 88.0275 56.7781 87.8976 56.6332 87.8976C54.8952 87.7677 53.1571 88.4173 52.288 87.8976C51.8535 87.6378 51.1293 88.0275 50.6948 87.8976V88.0275C50.2603 88.1574 49.3912 87.6378 48.667 87.7677C49.536 88.0275 48.5222 88.1574 48.5222 88.1574C48.5222 87.378 43.5976 87.5079 43.163 87.378C42.4388 87.5079 42.294 87.5079 42.5837 87.378C42.0043 87.2481 41.5698 87.2481 41.2801 87.5079L40.5559 87.6378C40.9904 87.378 40.2662 87.7677 40.1214 87.5079C40.4111 87.6378 40.4111 87.6378 40.4111 87.378C40.2662 87.378 39.2523 87.2481 39.1075 87.378C40.1214 87.7677 38.9627 87.6378 39.2523 87.5079C38.9627 87.6378 38.8178 87.7677 38.673 87.378C38.5281 87.5079 37.8039 87.1182 37.5143 87.1182C36.9349 87.1182 36.5004 86.9883 36.2107 86.9883C36.0659 86.3387 32.8794 86.5985 32.8794 86.5985C32.8794 86.5985 31.1413 86.5985 32.1551 86.3387C31.8655 85.949 26.9409 85.4294 26.796 85.4294C26.9409 85.0397 25.927 85.1696 25.7822 85.2995L24.0441 84.9097C24.1889 84.9097 24.7683 85.0397 24.7683 85.0397C24.7683 84.7798 24.0441 84.9098 24.4786 84.6499C22.8853 84.1303 20.8576 84.7798 19.554 83.6107C19.6988 83.6107 19.6988 83.4808 19.8437 83.4808L17.8159 83.2209C17.9607 83.3509 17.9607 83.2209 17.5262 83.2209C16.5123 82.8312 16.6572 82.3116 15.0639 82.4415C15.0639 82.3116 15.2088 82.1817 15.3536 82.0518C13.9052 81.5322 13.4707 82.1817 13.4707 81.2723C12.7465 80.7527 11.1532 77.8947 11.8774 76.9854C11.8774 75.1667 16.802 73.6078 18.9746 72.4386C18.9746 72.5685 18.9746 72.6984 18.9746 72.6984C19.1195 72.5685 19.554 72.4386 19.6988 72.4386C20.1334 72.4386 20.2782 72.4386 20.2782 72.1788C20.423 72.0489 21.0024 72.0489 21.1472 72.0489C21.1472 71.7891 21.7266 71.7891 21.7266 71.7891C22.7405 71.7891 24.3337 70.8797 25.3476 70.6199C26.796 70.2302 27.8099 69.8405 29.1135 69.1909C29.6929 69.3208 30.7067 69.1909 30.9964 69.061C32.8794 69.1909 37.9488 69.061 40.2662 68.0218C41.2801 68.6713 42.4388 69.3208 43.5976 69.7106C44.7563 70.1003 45.7702 70.6199 46.9289 71.0096C47.3634 71.1395 47.6531 71.1395 47.5083 71.6592C48.0876 74.1274 49.2464 77.2452 52.288 78.0246L53.0122 78.1546C53.4467 78.0246 55.1848 78.0246 55.3297 78.1546C56.1987 78.0246 57.2126 78.4144 58.0817 78.5443C59.8197 78.8041 62.5717 78.934 64.7443 78.934C66.6273 78.934 69.5241 79.0639 72.2761 78.6742C73.5796 78.4144 74.7384 78.2845 75.8971 77.7648C80.3871 75.9461 78.0697 69.061 82.8494 69.5807C83.4288 69.3208 84.153 68.9311 85.022 68.5414C84.8772 68.9311 84.4427 69.8405 84.8772 69.1909C84.8772 69.1909 84.8772 69.1909 85.022 69.1909C85.022 68.9311 85.1669 68.6713 85.1669 68.5414C85.4566 68.5414 85.4566 68.6713 85.3117 68.9311C85.3117 68.9311 85.4566 68.6713 85.6014 68.4115C85.6014 68.8012 85.4566 69.061 85.3117 69.4507C85.4566 69.4507 85.6014 68.9311 85.6014 68.9311C85.6014 69.1909 85.4566 69.3208 85.6014 69.7106C85.6014 69.7106 85.7463 69.1909 85.7463 69.5807V69.4507C85.7463 69.1909 85.7462 68.8012 85.8911 68.5414C86.0359 68.5414 85.7463 69.5807 85.7463 69.4507C85.7463 69.3208 86.0359 68.9311 85.8911 68.8012C85.8911 68.9311 85.8911 69.1909 85.8911 69.3208C86.0359 67.5021 86.0359 68.5414 86.1808 68.6713L86.0359 68.9311C86.0359 69.3208 86.1808 69.3208 86.1808 69.3208C86.0359 68.8012 86.3256 68.9311 86.1808 69.4507C86.1808 69.4507 86.4705 68.6713 86.3256 69.1909C86.3256 69.1909 86.3256 69.8405 86.4705 69.3208C86.4705 69.5807 86.3256 69.4507 86.4705 69.4507C86.6153 69.1909 86.4705 69.3208 86.6153 68.9311C86.6153 69.061 86.7601 69.061 86.7601 69.061C86.7601 69.3208 86.7601 69.8405 86.905 68.8012C87.1947 69.7106 87.1947 69.061 87.1947 68.9311C87.3395 68.5414 87.774 67.3722 87.4843 68.2816C87.1947 69.1909 87.1947 69.4507 87.3395 69.061C87.1947 70.1003 87.4843 68.9311 87.4843 68.9311C87.3395 69.3208 87.4843 69.3208 87.4843 69.3208C87.774 69.3208 87.9189 69.1909 88.0637 68.9311C88.0637 70.1003 88.3534 68.5414 88.2085 69.3208C88.2085 69.3208 88.4982 69.061 88.4982 69.3208V69.1909C88.3534 69.3208 88.7879 69.3208 88.9327 68.9311C88.7879 69.061 88.9327 69.3208 89.0776 69.4507C89.3673 69.4507 89.657 68.9311 89.657 68.9311C89.5121 69.3208 89.8018 69.3208 89.8018 69.3208C89.9466 69.1909 89.9466 69.1909 89.9466 69.3208C90.0915 69.4507 90.0915 69.3208 90.2363 69.061V69.1909C90.0915 69.5807 90.3812 68.8012 90.2363 69.4507C90.3812 69.5807 90.526 69.061 90.526 69.061C90.6708 68.8012 90.6708 68.8012 90.526 69.1909C90.526 69.061 90.6708 69.3208 90.6708 69.3208C90.8157 69.3208 90.8157 69.061 90.8157 69.4507C90.8157 69.3208 90.8157 69.3208 90.8157 69.1909C90.9605 69.1909 91.1054 69.5807 91.1054 69.5807C91.1054 69.4507 91.2502 69.3208 91.2502 69.1909C91.2502 69.3208 91.2502 69.5807 91.5399 69.061C91.6847 69.8405 91.8296 69.061 91.9744 69.5807C92.1192 69.3208 92.4089 69.1909 92.1192 69.3208C91.9744 69.7106 92.2641 69.4507 92.2641 69.3208C92.4089 69.1909 92.5538 69.3208 92.4089 69.7106C92.4089 69.7106 93.1331 69.061 93.278 69.4507V69.5807C93.7125 69.1909 93.5676 69.4507 93.7125 69.061C93.8573 69.061 93.8573 69.7106 94.147 68.8012C94.147 68.8012 94.2919 68.6713 94.4367 68.8012C94.147 68.9311 94.4367 69.5807 94.7264 68.9311C94.7264 68.9311 94.7264 69.061 94.7264 69.1909C94.7264 69.061 94.7264 68.9311 94.7264 68.9311C94.8712 68.9311 95.3057 68.9311 95.3057 69.061C95.5954 68.8012 95.8851 69.8405 96.6093 69.1909C96.6093 69.3208 96.6093 69.4507 96.6093 69.4507C96.6093 69.4507 96.6093 69.4507 96.7542 69.4507C96.7542 69.5807 96.899 69.4507 96.899 69.4507C96.899 69.5807 97.0438 69.3208 97.0438 69.7106C97.0438 69.7106 97.1887 69.4507 97.1887 69.5807C97.1887 69.5807 98.2026 69.3208 98.6371 68.9311C98.6371 69.3208 98.7819 69.1909 98.9268 69.1909C98.9268 69.3208 99.3613 69.7106 99.7958 69.7106C99.5061 69.9704 99.2164 70.2302 99.2164 70.2302C99.2164 70.3601 99.3613 70.49 99.651 70.3601C99.5061 70.3601 99.3613 70.49 99.2164 70.49L99.0716 70.3601V70.49C98.9268 70.49 98.7819 70.49 98.6371 70.49C97.3335 71.0096 95.7403 69.9704 94.0022 70.2302H93.8573H93.4228H92.6986C92.1192 70.2302 91.6847 70.2302 91.1054 70.2302C90.9605 70.2302 89.5121 70.2302 88.4982 70.2302C88.6431 70.6199 88.7879 70.7498 88.6431 70.7498C89.657 71.919 90.0915 73.8676 90.6708 75.0368C90.8157 75.1667 90.8157 75.2966 90.9605 75.5564C90.3812 75.4265 89.9466 75.5564 90.2363 75.0368C90.0915 75.4265 89.3673 75.1667 89.3673 75.1667C89.0776 75.0368 85.3117 75.6863 85.3117 75.2966C85.1669 75.5564 84.5875 75.4265 84.5875 75.4265C84.7324 75.5564 84.8772 75.6863 85.022 75.5564C84.2978 75.9461 83.7185 78.0246 83.8633 78.4144C83.5736 78.2845 83.4288 78.4144 83.1391 78.5443C82.9943 78.4144 82.9943 78.1546 82.9943 77.8947C82.8494 78.4144 82.5598 78.8041 82.5598 78.4144C82.4149 78.5443 82.4149 78.8041 82.4149 78.934C82.2701 78.6742 81.8355 78.2845 81.9804 78.5443C81.8355 78.8041 82.2701 79.1938 81.8355 79.0639V79.3237C82.5598 79.4536 82.2701 78.8041 82.2701 79.7134C82.5598 79.9733 82.7046 78.6742 82.7046 80.1032C82.5597 80.2331 82.4149 80.363 82.2701 80.363C82.2701 80.2331 81.8355 79.9733 81.8355 79.8434C81.8355 80.1032 81.8355 80.2331 81.9804 80.4929C81.9804 80.1032 82.8494 80.4929 82.4149 80.7527C82.1252 80.7527 81.9804 80.8826 81.8355 81.1424C82.1252 81.4022 82.4149 81.5322 82.8494 81.5322C82.4149 83.091 81.6907 82.3116 81.5459 82.8312ZM82.2701 97.5108C82.4149 96.3416 82.7046 94.1332 82.9943 93.8734C82.9943 92.8341 83.284 91.0154 83.4288 90.236C83.1391 88.2873 82.8494 84.6499 83.7185 83.2209C83.284 82.3116 83.284 81.2723 83.7185 81.2723C84.4427 79.4536 84.7324 77.8947 86.3256 76.9854C86.905 76.8555 88.2085 76.5957 88.4982 76.5957C89.2224 76.3358 89.657 75.4265 88.9327 76.7256C89.2224 76.7256 90.3812 76.8555 90.8157 76.7256C91.1054 77.3751 91.5399 78.0246 91.8296 78.5443C91.9744 78.6742 91.9744 78.6742 91.9744 78.8041V78.934C91.6847 80.4929 91.5399 83.3509 91.2502 84.2602C91.2502 85.4294 90.6708 86.8584 90.526 87.1182C90.526 87.8976 89.8018 89.4565 89.5121 89.8462C89.0776 91.7949 87.9189 94.0033 86.6153 95.0425C86.4705 95.9519 86.0359 96.7313 85.7463 96.4715C84.5875 97.5108 83.284 99.1996 82.2701 99.979C82.2701 99.979 81.6907 100.369 81.2562 100.758C81.6907 99.4594 81.9804 98.0304 82.2701 97.5108ZM96.6093 94.5229L96.3196 94.7827L95.5954 95.5622C92.4089 97.9005 87.774 99.8491 85.022 101.928C84.153 102.707 81.1113 103.227 79.6629 103.616C80.0975 103.097 79.5181 103.616 79.3733 103.616C79.9526 103.097 79.3733 103.616 79.5181 103.227C79.3733 103.487 79.2284 103.487 79.0836 103.357C79.2284 103.227 79.0836 103.227 78.7939 103.487C78.9387 103.357 79.2284 103.227 79.3733 103.097C78.5042 103.616 78.649 103.487 78.9387 103.227C79.0836 103.097 79.2284 103.097 79.2284 102.967C79.3733 102.837 79.3733 102.837 79.5181 102.837C79.6629 102.707 79.8078 102.577 79.9526 102.317C80.0975 102.317 80.0975 102.447 80.2423 102.577C80.0975 102.187 80.532 102.058 80.6768 102.058C80.532 102.058 83.7185 100.369 83.7185 100.758C83.8633 100.629 84.2978 100.758 84.153 100.758C84.153 100.369 84.4427 98.68 84.8772 98.2902C85.022 98.55 85.3117 98.55 85.6014 98.4201C85.7462 98.55 85.6014 98.8099 85.6014 99.0697C85.8911 98.8099 86.3256 98.4201 86.4705 98.2902C86.4705 98.4201 86.905 99.0697 86.7601 98.8099C86.905 98.68 86.7601 98.1603 87.0498 98.4201L87.1947 98.1603C86.905 98.0304 86.4705 97.6407 86.7601 97.251C87.0498 96.9912 87.4843 97.7706 87.4843 97.9005C87.6292 97.7706 87.6292 97.5108 87.6292 97.3809C87.4843 97.6407 86.905 96.9912 87.3395 96.9912C87.6292 97.1211 87.774 97.1211 88.0637 96.9912C87.9189 96.6014 87.774 96.4715 87.3395 96.2117C87.3395 95.4323 87.6292 96.3416 87.9189 96.0818L88.0637 96.4715C89.2224 96.3416 88.6431 96.0818 88.7879 95.5622C89.0776 95.3024 89.2224 95.3024 89.3673 95.4323C89.3673 95.0425 89.2224 94.6528 89.5121 95.0425C89.657 94.7827 90.2363 95.1724 89.9466 94.6528C90.0915 94.6528 90.2363 94.5229 90.3812 94.393C90.3812 93.7435 90.6708 94.0033 90.2363 94.1332C89.9466 94.1332 90.8157 92.964 90.6708 93.0939C90.526 92.964 91.1054 92.8341 91.2502 92.8341C91.1054 92.7042 90.9605 92.5743 90.8157 92.4444C91.1054 92.4444 91.2502 92.5743 91.395 92.7042C91.1054 92.3145 91.395 92.0547 91.5399 91.9248C91.5399 91.7949 90.8157 91.2752 91.395 91.1453C91.395 91.1453 91.395 91.1453 91.395 91.2752C91.395 91.0154 91.2502 90.6257 91.1054 90.3659C91.5399 90.4958 91.6847 91.2752 91.6847 90.7556C92.2641 91.2752 92.1192 90.4958 92.1192 90.4958C92.1192 90.4958 91.5399 90.236 91.9744 89.9761C92.1192 90.3659 92.5538 89.8462 92.4089 89.9761C92.9883 88.6771 92.9883 87.5079 93.5677 86.7285C93.8573 86.5985 93.7125 85.6892 93.8573 85.5593L93.7125 85.4294C93.7125 85.1696 94.2919 84.3901 94.147 84.0004C93.7125 84.52 93.7125 83.8705 93.7125 83.8705C94.5815 84.0004 94.5815 80.1032 94.7264 79.9733C94.5815 79.4536 94.5815 79.3237 94.7264 79.4536C94.8712 78.934 94.8712 78.6742 94.4367 78.5443V78.4144C94.5815 78.1546 94.4367 78.4144 94.5815 77.6349C94.5815 77.8947 94.5815 78.0246 94.7264 77.8947C94.7264 77.7648 94.5815 77.505 94.4367 77.1153C96.0299 76.3358 98.7819 77.505 99.651 78.5443C101.099 80.363 100.085 84.1303 100.52 85.949L100.665 86.2088C100.375 89.3266 98.7819 92.0547 96.6093 94.5229ZM113.99 80.1032L113.701 79.8434C113.266 79.5835 113.266 79.7134 113.266 79.7134C113.845 79.8434 113.701 79.9733 113.411 79.8434C113.121 79.7134 113.266 79.8434 113.411 79.8434L113.266 79.7134C113.266 79.7134 113.845 80.363 113.411 79.9733C113.411 79.9733 112.831 79.5835 113.266 79.9733C113.121 79.9733 113.121 79.8434 113.121 79.8434C113.266 79.9733 113.266 79.9733 113.556 80.2331C113.411 80.2331 113.411 80.2331 113.266 80.2331C113.121 80.1032 112.542 79.7134 113.411 80.4929C113.266 80.4929 113.121 80.363 113.121 80.363C113.121 80.4929 113.266 80.4929 113.266 80.6228C113.556 81.0125 114.135 81.9219 113.556 81.1424C112.976 80.363 112.831 80.2331 112.976 80.4929C112.252 79.7134 112.976 80.6228 112.976 80.6228C112.831 80.363 112.687 80.363 112.687 80.363C112.397 80.4929 112.397 80.7527 112.687 81.0125C111.818 80.1032 112.831 81.5322 112.252 80.7527C112.252 80.7527 112.252 81.0125 112.107 80.8826L112.252 81.0125C112.107 80.7527 111.962 81.1424 112.252 81.4022C112.252 81.1424 112.107 81.1424 111.818 81.0125C111.673 81.1424 111.673 81.792 111.673 81.792C111.528 81.4022 111.238 81.5322 111.383 81.5322C111.383 81.6621 111.383 81.6621 111.383 81.6621C111.093 81.6621 111.238 81.792 111.383 81.9219L111.238 81.792C111.093 81.4022 111.383 82.0518 111.093 81.6621C110.949 81.6621 111.093 82.0518 111.093 82.0518C111.238 82.3116 111.093 82.3116 110.949 82.0518C110.949 82.1817 110.659 82.0518 110.804 82.0518C110.804 82.1817 110.949 82.3116 110.514 82.0518C110.514 82.1817 110.659 82.1817 110.659 82.1817C110.659 82.3116 110.224 82.0518 110.224 82.0518C110.224 82.0518 110.369 82.4415 110.224 82.4415C110.08 82.3116 109.935 82.1817 109.935 82.7013C109.355 82.0518 109.79 82.8312 109.21 82.4415C109.355 82.7013 109.066 82.9611 109.21 82.7013C109.066 82.3116 109.066 82.7013 109.066 82.8312C109.066 82.9611 108.776 82.9611 108.631 82.5714C108.631 82.5714 108.341 83.4808 108.052 83.2209V83.091C107.907 83.7406 107.907 83.3509 107.907 83.7406C107.762 83.8705 107.328 83.2209 107.617 84.1303C107.617 84.2602 107.472 84.2602 107.328 84.2602C107.472 84.1303 106.748 83.6107 107.038 84.2602C107.038 84.2602 107.038 84.1303 106.893 84.0004C106.893 84.1303 107.038 84.2602 107.038 84.2602C106.893 84.2602 106.458 84.52 106.458 84.52C106.314 84.9097 105.589 84.1303 105.155 85.0397C105.155 84.9097 105.01 84.7798 105.01 84.7798C105.01 84.7798 105.01 84.7798 104.865 84.7798C104.72 84.7798 104.72 84.7798 104.865 84.7798C104.865 84.6499 104.72 85.0397 104.72 84.6499C104.72 84.6499 104.72 84.9097 104.72 84.7798C104.72 84.7798 103.996 85.4294 103.707 85.949C103.562 85.6892 103.417 85.8191 103.417 85.8191C103.272 85.6892 102.982 85.6892 102.548 85.6892C102.403 84.1303 101.824 82.1817 101.244 81.4022C101.534 80.8826 101.244 80.1032 101.099 79.8434C101.099 77.505 96.7541 74.5171 94.2919 76.5957C93.8573 76.7256 93.7125 76.9854 93.7125 77.2452C93.7125 77.1153 93.7125 77.1153 93.7125 77.1153C93.4228 76.9854 93.278 76.9854 93.5677 76.7256C93.278 76.7256 93.4228 76.076 93.278 75.9461C93.1331 75.6863 92.6986 74.9069 92.6986 74.9069L92.8434 75.0368C93.278 74.647 91.9744 73.6078 91.8296 73.4779C91.8296 73.4779 90.6708 72.4386 91.9744 73.2181C92.1192 73.2181 91.5399 72.6984 91.395 72.5685C92.5538 72.9582 93.4228 72.9582 93.7125 72.8283C93.7125 73.2181 94.4367 72.8283 94.5815 72.8283H96.03C95.8851 72.8283 95.8851 72.9583 95.7403 72.9583C95.7403 72.9583 95.7403 73.0882 95.7403 73.2181C96.1748 73.2181 96.6093 73.2181 96.899 73.0882C101.099 74.647 106.893 79.4536 111.383 78.934L111.673 78.8041C112.107 78.934 112.687 78.934 113.266 79.0639C113.266 79.0639 113.701 79.3237 113.266 79.1938V79.3237C113.556 79.4536 113.99 79.5835 113.99 79.8434C113.99 79.8434 113.556 79.5835 113.266 79.4536C113.411 79.5835 113.556 79.7134 113.701 79.8434C113.556 79.7134 113.411 79.7134 113.266 79.5835C115.294 80.7527 114.28 80.1032 113.99 80.1032ZM110.514 82.4415C110.514 82.4415 110.514 82.3116 110.514 82.4415V82.4415ZM113.556 79.1938C113.556 79.1938 113.701 79.1938 113.556 79.1938C113.701 79.3237 113.845 79.3237 113.845 79.3237C113.99 79.4536 114.135 79.5835 114.135 79.5835C113.845 79.4536 113.845 79.3237 113.556 79.1938C113.701 79.3237 113.556 79.1938 113.556 79.1938C113.556 79.1938 113.701 79.1938 113.556 79.1938ZM116.308 78.6742C116.018 78.6742 115.873 78.6742 115.873 78.6742C115.873 78.6742 116.018 78.6742 116.308 78.6742ZM114.714 79.8434C114.425 79.7134 114.28 79.4536 113.99 79.3237C114.28 79.3237 114.425 79.4536 114.714 79.4536C114.57 79.5835 114.425 79.5835 114.28 79.3237C114.425 79.4536 114.57 79.7134 114.714 79.8434ZM135.716 68.1517C135.137 68.2816 134.847 69.1909 134.847 69.061C134.558 68.8012 134.413 69.4507 134.413 69.5807L133.399 70.49C133.399 70.3601 133.399 70.3601 133.544 70.2302C133.544 70.2302 133.399 70.2302 133.399 70.1003C132.385 70.8797 132.095 72.5685 130.792 72.9583C130.792 72.8283 130.792 72.8283 130.792 72.6984L129.778 73.9975C129.923 73.9975 129.923 73.8676 129.778 74.2573C129.054 74.777 128.619 74.3872 128.329 75.6863C128.329 75.6863 127.46 76.4658 126.881 76.4658C126.881 76.4658 126.302 76.7256 125.577 76.9854C125.577 76.9854 125.577 76.8555 125.433 76.7256C125.577 76.8555 125.577 76.8555 125.577 76.8555C124.419 77.3751 122.97 77.8947 122.826 77.8947C121.812 78.934 117.901 77.8947 115.728 78.0246C115.728 77.8947 115.873 77.7648 116.018 77.6349C116.018 77.8947 115.439 77.6349 115.294 77.6349C115.004 77.3751 114.859 77.3751 114.859 77.6349C114.714 77.7648 114.28 77.3751 114.28 77.3751C114.135 77.505 113.701 77.3751 113.701 77.3751C112.687 76.7256 108.776 76.4658 107.328 76.5957C107.038 76.2059 106.314 75.9461 105.879 75.9461C105.01 75.2966 102.113 73.7377 100.085 73.0882C100.665 72.9583 101.534 72.6984 101.679 72.5685C101.389 72.4386 101.534 72.5685 101.824 72.4386C102.837 72.3087 102.982 72.8283 103.851 71.919C103.851 71.919 105.01 71.6592 105.445 71.7891C105.589 71.7891 109.5 71.3994 109.935 71.3994C110.949 70.6199 114.714 71.2695 117.032 70.49C117.032 70.6199 117.032 70.7498 116.887 70.8797C116.887 70.6199 117.466 70.6199 117.466 70.6199C117.901 70.7498 118.046 70.7498 117.901 70.49C118.046 70.3601 118.625 70.49 118.625 70.6199C118.77 70.49 119.204 70.49 119.204 70.49C120.363 70.8797 124.129 69.5807 125.433 68.9311C125.867 69.1909 126.736 69.061 127.026 68.9311C128.619 69.1909 133.689 69.1909 134.847 68.1517C135.137 68.0218 135.282 67.8919 135.427 67.7619C135.571 67.7619 135.716 67.7619 135.861 67.7619C135.861 67.7619 135.427 68.2816 135.716 68.1517Z" fill="#B8A98C"/>
<path d="M110.657 63.0049C110.657 63.135 110.512 63.135 110.512 63.2651C110.657 63.135 110.657 63.135 110.657 63.0049Z" fill="#B8A98C"/>
<path d="M113.264 62.2256C113.41 62.3577 113.41 62.2256 113.264 62.2256V62.2256Z" fill="#B8A98C"/>
<path d="M114.57 61.5765C114.57 61.4465 114.715 61.4465 114.715 61.3164C114.57 61.4465 114.425 61.5765 114.57 61.5765Z" fill="#B8A98C"/>
<path d="M104.867 65.2134L104.577 65.7338C104.722 65.4736 104.867 65.3435 104.867 65.2134Z" fill="#B8A98C"/>
<path d="M106.313 64.6944C106.458 64.9551 106.894 64.4337 106.313 64.6944V64.6944Z" fill="#B8A98C"/>
<path d="M109.211 63.7851C109.211 63.9153 109.791 63.2645 109.211 63.7851V63.7851Z" fill="#B8A98C"/>
<path d="M110.368 63.1351C110.658 63.2647 110.368 63.0055 110.368 63.1351V63.1351Z" fill="#B8A98C"/>
<path d="M95.0155 65.9932C95.0155 66.1239 95.0155 66.1239 95.0155 65.9932C95.1617 66.1239 95.1617 66.1239 95.0155 65.9932Z" fill="#B8A98C"/>
<path d="M84.7309 66.2533C84.8761 66.3833 84.8761 66.1232 84.7309 65.9932C84.7309 66.1232 84.7309 66.2533 84.7309 66.2533Z" fill="#B8A98C"/>
<path d="M84.7309 65.9935C84.7309 65.9935 84.8759 65.8635 84.8759 65.7334L84.7309 65.9935Z" fill="#B8A98C"/>
<path d="M85.1663 65.9932C85.1663 66.3832 85.3116 65.9932 85.1663 65.9932V65.9932Z" fill="#B8A98C"/>
<path d="M85.7457 66.3833C85.7457 66.644 85.8907 66.3833 85.7457 66.3833V66.3833Z" fill="#B8A98C"/>
<path d="M18.8303 69.6313V69.501C18.8303 69.501 18.6853 69.501 18.8303 69.6313Z" fill="#B8A98C"/>
<path d="M73.8672 84.5703C73.7221 84.5703 73.7221 84.7008 73.5771 84.7008C73.7221 84.7008 73.7221 84.7008 73.8672 84.5703Z" fill="#B8A98C"/>
<path d="M71.4071 84.6998C71.2623 84.5699 70.8278 84.6998 70.3932 84.8297C70.9726 84.8297 71.4071 84.8297 71.4071 84.6998Z" fill="#B8A98C"/>
<path d="M64.1649 84.4408C64.311 84.4408 64.311 84.4408 64.1649 84.4408C64.311 84.3081 64.311 84.4408 64.1649 84.4408Z" fill="#B8A98C"/>
<path d="M72.13 84.8304L72.8552 84.5703C72.4201 84.5703 72.13 84.7004 72.13 84.8304Z" fill="#B8A98C"/>
<path d="M70.1054 84.7002C70.2504 84.4387 69.2352 84.7002 70.1054 84.7002V84.7002Z" fill="#B8A98C"/>
<path d="M66.3382 84.4409C66.3382 84.3091 65.1779 84.5726 66.3382 84.4409V84.4409Z" fill="#B8A98C"/>
<path d="M64.5983 84.5707C64.3082 84.4391 64.4533 84.5707 64.5983 84.5707V84.5707Z" fill="#B8A98C"/>
<path d="M32.5899 82.8809H32.4451C32.4451 83.0119 32.5899 83.0119 32.5899 82.8809Z" fill="#B8A98C"/>
<path d="M18.8283 79.6334C19.2634 79.6334 18.2481 79.5024 18.8283 79.6334V79.6334Z" fill="#B8A98C"/>
<path d="M113.119 76.7761C112.974 76.6449 112.829 76.6449 113.119 76.7761V76.7761Z" fill="#B8A98C"/>
<path d="M113.266 77.0356C113.121 76.9055 113.121 76.7753 113.121 76.9055C113.121 77.0356 113.121 77.0356 113.266 77.0356Z" fill="#B8A98C"/>
<path d="M113.555 75.8674C113.555 75.8674 113.409 75.735 113.555 75.8674V75.8674Z" fill="#B8A98C"/>
<path d="M113.99 75.8655C113.699 75.7359 113.99 75.9951 113.99 75.8655V75.8655Z" fill="#B8A98C"/>
<path d="M113.411 75.9973C113.265 75.8649 113.411 75.9973 113.411 75.9973V75.9973Z" fill="#B8A98C"/>
<path d="M109.934 78.9839C110.08 79.1165 110.08 78.9839 109.934 78.9839V78.9839Z" fill="#B8A98C"/>
<path d="M95.885 69.5009C95.74 69.3709 95.3048 69.8911 95.885 69.5009V69.5009Z" fill="#B8A98C"/>
<path d="M88.2086 67.812C88.2086 67.812 88.0636 67.6819 88.0636 67.5518C88.0636 67.812 88.2086 67.812 88.2086 67.812Z" fill="#B8A98C"/>
<path d="M90.9593 89.7671C91.1055 89.6362 91.1055 89.6362 90.9593 89.7671V89.7671Z" fill="#B8A98C"/>
<path d="M85.6024 95.7422C85.3123 96.0024 85.0222 96.2626 85.0222 96.2626C85.3123 96.2626 85.6024 96.0024 85.6024 95.7422Z" fill="#B8A98C"/>
<path d="M83.7192 97.561C83.7192 97.4307 83.8641 97.4307 83.8641 97.4307C83.7192 97.4307 83.7192 97.4307 83.7192 97.561Z" fill="#B8A98C"/>
<path d="M83.4263 97.3008C83.5715 97.5617 83.4263 97.4312 83.4263 97.3008V97.3008Z" fill="#B8A98C"/>
<path d="M85.8898 95.6124C86.1799 95.8725 86.47 95.0921 85.8898 95.6124V95.6124Z" fill="#B8A98C"/>
<path d="M88.3533 93.5342C88.3533 93.6643 88.7884 92.7535 88.3533 93.5342V93.5342Z" fill="#B8A98C"/>
<path d="M89.0768 92.3639C89.3669 92.2342 89.0768 92.2342 89.0768 92.3639V92.3639Z" fill="#B8A98C"/>
<path d="M100.811 69.6305C100.231 69.8916 101.246 69.5 100.811 69.6305V69.6305Z" fill="#B8A98C"/>
</g>
<defs>
<clipPath id="clip0">
<rect width="144.84" height="129.91" fill="white"/>
</clipPath>
</defs>
</svg>
