<svg width="139" height="139" viewBox="0 0 139 139" fill="none" xmlns="http://www.w3.org/2000/svg">
<path d="M72.0336 37.7766C71.7867 37.43 71.2974 36.743 70.8081 36.056L71.1446 35.6758L71.1572 36.9411L70.8811 37.0579C70.673 36.7067 70.5148 36.3237 70.4119 35.9218C70.4046 34.8033 70.6937 33.7058 71.2452 32.7589C71.7966 31.8119 72.5875 31.0551 73.5243 30.5778C73.891 30.3977 74.2989 30.3394 74.6963 30.4101C75.0937 30.4807 75.4628 30.6773 75.7566 30.9748C76.1956 31.376 76.6576 31.7468 77.1398 32.0852C77.5921 32.318 77.9706 32.6899 78.2279 33.1541C78.4853 33.6184 78.6099 34.1544 78.5862 34.6948C78.5536 35.3112 78.3552 35.9039 78.0153 36.4003C77.6754 36.8967 77.2086 37.2752 76.6724 37.4893C76.0174 37.7009 75.3521 37.873 74.6794 38.0046C77.899 38.3957 81.2499 38.7568 84.596 39.2336C85.8103 39.4261 87.0038 39.7482 88.1592 40.1953C90.7909 41.1732 93.376 42.3527 96.0223 43.2568C98.5789 44.1303 100.528 47.4076 100.122 49.8904C100.04 50.9058 100.288 51.9203 100.822 52.7603C101.597 54.3567 102.278 56.0044 102.861 57.6934C104.384 62.1634 105.573 66.6901 105.361 71.3713C106.877 68.2593 107.815 64.8571 108.122 61.3563C108.042 59.7826 107.675 58.2414 107.041 56.8216C106.76 56.2266 106.701 55.5379 106.876 54.8973C107.051 54.2567 107.447 53.713 107.982 53.3781C108.121 53.5339 108.241 53.7082 108.339 53.8969C108.716 55.1501 109.167 56.376 109.688 57.5674C110.32 58.8727 110.475 60.3867 110.122 61.8095C110.006 62.4854 109.827 63.147 109.588 63.7842C109.35 64.2759 109.238 64.8276 109.265 65.3817C109.292 65.9357 109.456 66.4718 109.741 66.9339C109.86 67.249 109.912 67.5892 109.893 67.9291C109.874 68.269 109.783 68.5998 109.629 68.8968C108.644 70.8528 108.192 73.0701 108.325 75.2921C108.146 76.9027 107.763 78.4791 107.187 79.9771C107.133 80.181 107.055 80.375 106.991 80.5622C108.444 81.7308 108.417 81.7082 107.369 83.2269C106.924 83.9318 106.525 84.669 106.173 85.4331C105.398 86.9596 104.603 88.4754 103.885 90.0374C103.579 90.7024 103.53 91.5228 103.219 92.1837C102.655 93.4672 101.994 94.6993 101.245 95.8677C100.194 97.416 99.0023 98.8498 97.8385 100.302C96.8427 101.544 95.8013 102.743 94.5651 104.218C96.0956 104.175 97.4189 104.087 98.7495 104.115C100.349 104.032 101.952 104.139 103.53 104.435C104.595 104.864 105.473 105.709 105.992 106.802C106.51 107.895 106.631 109.158 106.33 110.342C105.349 113.594 102.844 114.242 100.141 114.389C99.7202 114.355 99.3096 114.231 98.9338 114.023C98.0534 113.595 97.1366 113.26 96.1964 113.023C96.3666 113.319 96.5369 113.616 96.7071 113.912C97.9859 116.129 97.9168 117.998 96.3093 119.634C95.3033 120.775 94.0671 121.649 92.697 122.19C91.9648 122.468 91.1864 122.577 90.4128 122.508C89.6392 122.439 88.8877 122.195 88.2076 121.791C87.9898 121.668 87.7664 121.559 87.5195 121.43C86.5451 122.841 85.2549 123.961 83.77 124.687C81.3887 125.855 79.0068 125.334 76.6291 124.431C74.3531 123.765 72.3126 122.381 70.7677 120.457C69.5036 123.916 66.7792 124.335 63.8484 124.191C62.4659 124.076 61.095 123.834 59.7507 123.468C58.5976 123.187 57.5532 122.528 56.7607 121.581C55.9682 120.634 55.4666 119.446 55.3245 118.179C55.2652 117.536 55.501 116.889 55.4269 115.978C54.1872 116.784 52.9895 117.662 51.8392 118.61C50.0596 120.232 48.1114 120.641 46.0979 119.11C43.6143 117.221 41.208 115.156 39.94 111.986C39.1167 109.927 39.763 107.11 41.4791 106.217C42.1831 105.944 42.9271 105.812 43.6748 105.826C46.3615 105.628 49.0543 105.473 51.7443 105.297C51.937 105.285 52.1256 105.242 52.4437 105.195C50.4757 103.448 48.4557 101.932 46.7526 100.077C44.4561 97.5755 41.2804 96.0028 39.6977 92.8118C37.7883 88.9616 34.7 86.2271 32.0846 83.0503C30.8655 81.5421 30.1589 79.6301 30.0815 77.6299C29.9318 75.5123 30.0298 73.3964 30.0517 71.283C30.0842 70.8993 30.2225 70.5348 30.4487 70.2367C32.3566 74.354 34.6755 78.2339 37.3641 81.8071L37.6511 81.6742C37.4936 80.5521 37.1898 79.4597 36.7487 78.4295C35.2555 76.2448 34.577 73.5341 34.8474 70.8347C34.9636 65.4303 35.9412 60.088 37.7373 55.042C38.4893 52.8987 39.3296 50.7985 40.1054 48.6664C40.2951 47.8339 40.561 47.0239 40.8991 46.2482C41.4948 45.1984 42.2509 44.2652 43.1353 43.4882C45.2193 41.7943 47.6142 40.6001 50.1598 39.9855C54.9482 38.8449 59.7988 38.0334 64.6823 37.5561C67.1333 37.3601 69.5964 37.4339 72.0336 37.7766V37.7766ZM94.2785 117.805C94.1042 118.128 93.8707 118.409 93.5922 118.631C92.4839 119.154 91.3349 119.591 90.3013 120.018C91.1497 120.405 92.097 120.458 92.9781 120.169C93.8593 119.879 94.6184 119.265 95.1233 118.433C95.9882 116.774 95.0628 113.597 93.1843 112.501C90.6021 110.995 89.0015 111.338 87.4974 113.66C87.0335 114.336 86.8132 115.171 86.8774 116.009C86.9417 116.847 87.2862 117.631 87.8465 118.215C87.5972 116.628 87.7563 115.988 88.8322 115.166C90.0822 114.059 91.6756 113.509 93.2881 113.627C92.9229 113.996 92.4667 114.242 91.9746 114.337C90.7127 114.524 89.5478 115.171 88.6726 116.17C88.5376 116.288 88.4279 116.437 88.351 116.605C88.2741 116.774 88.2317 116.958 88.2269 117.146C88.2221 117.333 88.2549 117.52 88.323 117.693C88.3912 117.866 88.4931 118.021 88.6218 118.147C88.9581 118.566 89.3999 118.87 89.8935 119.023C90.387 119.176 90.911 119.171 91.4019 119.008C92.3665 118.62 93.3225 118.21 94.2823 117.81L94.2785 117.805ZM61.5464 102.613C61.7395 101.868 61.9388 101.124 62.1239 100.376C62.2523 99.8562 62.3615 99.3295 62.4792 98.806L62.8376 98.8942C63.0353 99.537 63.2686 100.166 63.5363 100.779C64.1765 102.061 65.4377 102.472 66.1523 101.612C67.0327 100.605 67.5273 99.2753 67.5365 97.8904C67.5954 97.5369 67.71 97.1971 67.8754 96.8855C68.1686 97.1728 68.4806 97.4419 68.7457 97.7563C68.8359 97.9196 68.8919 98.1023 68.91 98.2915C69.2554 99.7061 69.5982 101.121 69.9604 102.613C71.2388 102.53 72.4618 102.021 73.4611 101.156C74.2824 100.293 75.0891 99.41 75.8436 98.4791C75.9582 98.3318 76.042 98.1594 76.0891 97.9738C76.1361 97.7882 76.1455 97.5937 76.1164 97.4039C75.7324 96.4783 75.4169 95.5214 75.1726 94.5422C75.0847 93.1763 75.1165 91.8045 75.2675 90.4451C75.561 88.5969 75.7109 86.7254 75.7156 84.8502C75.6758 84.2587 75.7676 83.6655 75.9833 83.1201C76.199 82.5747 76.5323 82.0928 76.9555 81.7148C77.633 80.8433 78.2497 79.9186 78.8003 78.9484C78.8791 78.8436 78.9324 78.7192 78.9554 78.5865C78.9784 78.4538 78.9703 78.317 78.932 78.1885C78.8936 78.0601 78.8262 77.9439 78.7358 77.8507C78.6453 77.7575 78.5348 77.6902 78.4141 77.6548C77.2133 77.0448 76.0127 76.4339 74.6859 75.7592C75.0228 76.598 75.176 77.5093 75.1335 78.4224C75.091 79.3355 74.854 80.2257 74.4409 81.0238C73.8523 82.1847 73.1854 83.2962 72.6296 84.4766C71.7743 86.2933 70.9332 88.1232 70.1984 90.0069C70.0721 90.6499 70.0559 91.3125 70.1507 91.9619C70.1578 92.9386 70.2211 93.9231 70.1705 94.8903C70.0808 95.2484 69.9262 95.5838 69.7154 95.8768C69.3096 95.6722 68.9492 95.376 68.6586 95.0081C68.1095 93.6879 67.6653 92.322 67.2318 90.9589C66.8325 89.7035 66.5054 88.4277 66.1333 87.1643C65.4618 85.3747 64.9302 83.5276 64.5441 81.6423C63.9741 78.3159 63.0953 75.0601 61.9209 71.924C61.8522 72.5511 61.829 73.1831 61.8515 73.8141C61.7763 75.919 61.8379 78.027 62.0359 80.1226C62.6322 84.0586 63.435 87.9673 63.0796 91.912C62.9738 92.584 63.0906 93.2748 63.4097 93.8629C64.3348 95.0414 63.7009 96.0656 63.6359 97.142C63.6065 97.2573 63.5486 97.3618 63.4684 97.4442C63.3882 97.5267 63.2887 97.584 63.1807 97.6101C62.9603 97.5382 62.7628 97.4014 62.6104 97.2151C62.2386 96.9006 61.8983 96.5315 61.5042 96.2604C60.7768 95.7602 59.6518 95.8894 59.4316 94.5799C59.2721 94.4515 59.0974 94.3467 58.9122 94.2684C58.5138 94.0182 58.1691 93.6796 57.9008 93.2751C57.2319 91.6336 56.6447 89.9582 56.0654 88.2831C54.8063 84.6423 53.5714 80.9938 52.3245 77.3491C51.8482 75.9567 51.4113 74.5492 50.877 73.1782C49.8868 70.6371 48.6883 68.1469 49.2527 65.3644C49.2257 64.977 49.1294 64.5989 48.969 64.2511C47.8262 64.7797 48.0696 65.7467 48.1869 66.6557C48.5416 69.4058 49.3627 72.2417 49.1526 74.8867C48.7846 79.52 49.9194 83.9156 50.9829 88.3808C51.2706 89.5889 51.5627 90.7997 51.7666 92.0181C51.76 92.4331 51.6802 92.843 51.5316 93.2258L51.1048 93.1854C50.9951 92.7012 50.8584 92.2246 50.6955 91.7581C50.4103 90.6257 49.924 89.564 49.2637 88.6319C48.6674 88.049 48.2024 87.3266 47.9043 86.5199C47.6062 85.7132 47.4829 84.8435 47.5438 83.9774C47.3685 81.8372 46.6453 79.7918 45.4552 78.0699C45.4222 78.0133 45.296 78.0146 45.3844 78.042C45.5685 79.5076 45.6999 80.9816 45.9502 82.443C46.2968 84.4667 46.7465 86.4792 47.1178 88.5007C47.1475 88.8883 47.1337 89.2784 47.0767 89.6624C46.7595 89.3795 46.4692 89.0632 46.2099 88.7182C45.7686 88.0024 45.3903 87.2438 45.0016 86.4943C44.1147 84.7841 42.8735 83.1406 42.4297 81.3408C41.5236 77.2776 40.3572 73.2872 38.9391 69.3984C38.7018 68.8827 38.4329 68.3846 38.1343 67.9074C37.9121 68.4154 37.796 68.97 37.7941 69.5318C37.7126 71.5594 37.7302 73.6067 37.5364 75.6109C37.2752 77.357 37.4805 79.1474 38.128 80.7721C38.3586 81.3246 38.4951 81.9175 38.531 82.5224C38.5729 83.143 38.1994 83.4398 37.6632 83.0423C37.0473 82.6385 36.4997 82.1244 36.0438 81.5219C34.9051 79.7913 33.8635 77.9903 32.8048 76.2037C32.1228 75.053 31.4781 73.8787 30.8167 72.7149L30.5401 72.7891C30.628 74.7508 30.6118 76.7174 30.8474 78.6722C30.9806 79.7274 31.3584 80.7292 31.9458 81.5847C33.1628 83.2169 34.46 84.7774 35.8319 86.2594C37.3822 87.8186 38.7024 89.6247 39.7469 91.6151C40.3947 92.9536 41.2699 94.1486 42.3266 95.1379C45.4582 98.0922 48.6868 100.926 51.9187 103.749C52.3457 104.216 52.8686 104.569 53.4451 104.777C54.0216 104.986 54.6355 105.045 55.2372 104.95C56.7594 104.738 58.2912 104.613 59.8257 104.578C62.1284 104.366 64.419 104.077 66.725 103.889C67.8754 103.782 69.032 103.776 70.1835 103.87C71.9967 104.04 73.8097 104.357 75.6233 104.6C75.7573 104.585 75.8894 104.554 76.0172 104.509C78.2654 104.237 80.5132 103.963 82.7635 103.703C84.2983 103.339 85.8819 103.282 87.4358 103.535C88.5803 103.838 89.778 103.754 90.9464 103.94C91.7207 104.153 92.5347 104.124 93.2948 103.859C94.0548 103.594 94.7301 103.102 95.2429 102.441C95.678 101.871 96.0841 101.276 96.4594 100.658C97.0296 99.6803 97.5076 98.6334 98.0974 97.6712C98.7315 96.6367 99.5143 95.7131 100.117 94.6579C101.192 92.7738 102.179 90.8258 103.207 88.9071C104.017 87.3958 104.887 85.9219 105.618 84.3627C105.83 83.687 105.953 82.9828 105.984 82.2704L105.666 82.108C105.374 82.2448 105.103 82.4298 104.864 82.6565C103.922 83.8861 103.029 85.161 102.099 86.4019C100.752 88.1986 99.3833 89.9751 98.0404 91.7752C97.9328 91.9859 97.8639 92.2169 97.8374 92.4558C97.7705 93.0767 97.6144 93.6826 97.3747 94.2516C96.689 95.3415 95.8575 96.3174 95.0903 97.344C94.6631 97.9155 94.2936 97.812 94.0029 97.0306C93.8166 97.2816 93.6173 97.5211 93.4061 97.748C92.3687 98.7283 91.3583 99.7477 90.2545 100.638C89.742 100.841 89.1975 100.933 88.652 100.909C89.5417 98.9143 89.5391 98.8768 88.593 97.8142C88.5596 97.8112 88.526 97.8172 88.4953 97.8317C88.2865 98.0564 88.0792 98.283 87.8761 98.5139C86.5287 100.046 85.2901 101.666 83.0342 101.884C81.9909 102.14 80.975 102.513 80.0028 102.995C79.1369 103.285 78.6916 102.901 78.8235 101.939C78.9596 101.084 79.1691 100.245 79.4493 99.432C79.8072 98.3166 80.2319 97.2315 80.628 96.1335L80.1423 95.6347C79.8449 96.1055 79.5031 96.5417 79.1224 96.9364C78.374 97.5754 77.5389 98.0993 76.7612 98.7014C75.994 99.1808 75.2925 99.7734 74.6769 100.462C73.7444 101.735 72.4533 102.645 70.9991 103.055C69.8133 103.431 69.5026 103.24 69.1879 101.881C68.9368 100.797 68.6719 99.716 68.3503 98.3705C67.3761 100.293 67.0096 102.395 65.1102 103.154L62.8695 100.913C62.4519 101.575 62.0633 102.192 61.6748 102.809L61.5464 102.613ZM73.7349 74.3563C74.0032 74.399 74.2667 74.472 74.521 74.5741C75.7887 75.3495 77.0425 76.1549 78.3109 76.9287C79.469 77.6352 79.7221 78.1707 79.1132 79.2632C78.4685 80.4197 77.654 81.4551 76.9389 82.5635C76.6637 82.9067 76.4704 83.3174 76.3758 83.7597C76.1557 86.2084 76.0801 88.6876 75.805 91.1228C75.5836 92.1513 75.5777 93.2201 75.7878 94.2513C75.9978 95.2826 76.4185 96.2501 77.0191 97.0834C77.3395 96.5732 77.7653 96.1504 78.2628 95.8482C78.761 95.7405 79.2007 95.4272 79.4883 94.975C79.7759 94.5228 79.8889 93.9672 79.8031 93.4265C79.8173 93.0982 79.8693 92.7731 79.9581 92.4588C80.5887 90.1498 81.7577 88.0543 83.3532 86.3729C84.3981 85.1491 85.3384 83.8257 86.1625 82.4189C86.7081 81.3458 87.1316 80.2054 87.4239 79.0226C87.726 78.0041 87.8638 76.9166 88.1254 75.8789C88.3408 75.0196 88.6042 74.1751 88.9141 73.3501C89.0875 73.1586 89.3053 73.0206 89.5447 72.9505C89.7268 73.1656 89.8628 73.4214 89.9432 73.6996C90.0046 74.307 89.9266 74.9214 89.7161 75.4886C88.7989 77.0353 88.4349 78.8899 88.6921 80.7055C88.8332 81.5809 88.7901 82.4793 88.5659 83.3343C87.9965 85.171 87.2085 86.9096 86.5891 88.7262C86.3976 89.3368 86.3422 89.9876 86.4272 90.6257C86.5878 91.3406 86.8119 92.0371 87.0964 92.7055C87.4296 92.4022 87.7438 92.0753 88.037 91.7271C89.6108 89.5822 91.1777 87.4309 92.7191 85.2577C93.0907 84.7156 93.4119 84.1352 93.678 83.525C94.185 82.4066 94.6547 81.2654 95.1206 80.123C95.9207 78.1614 96.8388 76.2495 97.4587 74.2084C98.0494 72.2633 98.31 70.1755 98.7484 68.1617C98.8633 67.8644 99.0226 67.5895 99.2199 67.348L99.5051 67.5123C99.4565 67.944 99.4284 68.378 99.4207 68.8128C99.3407 70.4008 99.4094 71.9935 99.6257 73.5666C100.294 76.7039 99.8745 79.9968 98.4477 82.8233C97.7994 84.219 96.8444 85.4374 96.8124 87.1705C96.7441 87.8573 96.6085 88.5344 96.4076 89.1903C95.9923 91.0692 95.5744 92.9471 95.1538 94.8241C95.7203 94.0426 96.2413 93.224 96.714 92.3729C96.7526 92.3154 96.7797 92.2499 96.7936 92.1804C96.8075 92.111 96.8077 92.0392 96.7945 91.9696C96.2875 90.8897 96.9812 90.3573 97.4535 89.6756C98.5302 88.1218 99.7177 86.6949 100.029 84.5588C100.281 82.6917 101.025 80.9426 102.174 79.5207C102.872 78.5642 103.512 77.5607 104.092 76.5163C102.622 78.3105 102.622 78.3105 101.861 78.3393C102.685 76.7253 103.508 75.1117 104.33 73.4986L104.028 73.3133C103.484 74.4297 102.94 75.546 102.397 76.6623C102.137 75.0162 103.531 73.7482 102.692 72.0328L101.89 72.3205L101.721 72.1056C102.057 71.8187 102.364 71.495 102.637 71.1397C102.854 70.7238 103.033 70.286 103.172 69.8326L102.93 69.7087L101.902 70.4903L101.88 67.6808L101.359 67.7024C101.563 66.7884 101.759 65.9077 101.955 65.027L101.591 64.8166L99.6922 66.4545C99.9875 65.8146 100.374 65.229 100.838 64.7191C100.979 64.615 101.1 64.4818 101.194 64.3272C101.287 64.1725 101.351 63.9995 101.382 63.818C101.414 63.6366 101.411 63.4502 101.376 63.2696C101.34 63.0891 101.272 62.9179 101.175 62.7659L99.9925 63.8426C100.896 61.1927 100.896 61.1927 100.536 60.5381L99.0735 61.818C99.3399 61.1999 99.6431 60.6012 99.9814 60.0255C100.124 59.6734 100.139 59.2761 100.022 58.913C99.8488 58.7664 99.6378 58.6814 99.418 58.6697C99.3154 57.9883 99.2343 57.3829 99.1293 56.7802C99.0779 56.4851 98.949 56.1958 98.9181 55.9021C98.9272 55.706 98.9672 55.5129 99.0363 55.3312C99.2365 55.419 99.4191 55.5477 99.5741 55.7101C99.7724 56.0942 99.9451 56.493 100.091 56.9036C100.697 55.4458 99.9924 54.3985 99.3796 53.2519C99.2257 53.4249 99.1268 53.5188 99.0464 53.629C97.219 56.2322 94.7679 58.247 91.9577 59.4561C90.66 59.9984 89.2362 60.238 87.9081 60.7166C83.4981 62.2075 78.8935 62.9169 74.2733 62.8171C70.4659 62.8153 66.6361 62.6215 62.8138 62.317C60.364 62.0984 57.9302 61.7049 55.5285 61.1391C54.0041 60.6739 52.5031 60.1237 51.0315 59.4906C48.5637 58.5933 46.2365 57.2962 44.1298 55.6436C42.9535 54.7461 41.9048 53.64 40.7023 52.5399L39.9181 53.6622L41.8699 55.2653L41.7032 55.5572C41.529 55.4689 41.3466 55.4009 41.1591 55.3542C40.5888 55.2788 40.0175 55.2354 39.4466 55.1797L40.2785 56.534C38.8032 56.6908 38.8032 56.6908 39.4819 57.6358C38.5952 58.1898 38.549 58.5222 39.0652 59.5595C38.7279 59.8586 38.4683 60.2473 38.312 60.6874C38.4678 61.2033 38.7166 61.6809 39.0441 62.0925L37.7413 61.7759C37.8923 62.6495 38.0135 63.3509 38.1717 64.2667C37.6172 64.0058 37.0828 63.7542 36.5127 63.4859C36.4765 63.6588 36.4779 63.8385 36.5168 64.0107C37.0745 64.3418 37.6587 64.6141 38.348 64.9617C37.5963 66.2276 38.3782 67.2982 39.1848 68.368C39.2695 68.4928 39.3364 68.6307 39.3832 68.7769C40.8617 72.5992 42.0325 76.552 42.8828 80.5913C43.3825 82.7089 44.3526 84.663 45.7092 86.2845C45.7653 85.8965 45.7901 85.504 45.7833 85.1114C45.4178 82.4156 45.3766 79.6908 44.4695 77.0403C44.3884 76.5616 44.3835 76.0714 44.4549 75.5909L44.8268 75.5632C45.1342 76.1513 45.4269 76.7482 45.7517 77.326C47.0941 79.6179 47.8999 82.2281 48.0995 84.9314C48.2254 85.8172 48.5395 86.6594 49.0173 87.3922C49.4851 88.0234 50.0158 88.5972 50.5998 89.1031C50.386 88.1922 50.1768 87.4021 50.0177 86.6049C49.5176 84.0984 48.6247 81.5477 48.6389 79.0902C48.7492 74.8319 48.429 70.5734 47.6838 66.3901C47.5527 65.8178 47.5898 65.2156 47.7898 64.667C48.1047 64.2632 48.4979 63.9392 48.9416 63.7177C49.2342 64.125 49.4623 64.5817 49.6166 65.0695C49.6424 66.5513 49.7911 68.0276 50.061 69.4808C51.3079 73.4719 52.8895 77.3698 54.1445 81.359C55.3348 85.1426 56.6334 88.8771 58.1491 92.5469C58.1876 92.8683 58.3275 93.1656 58.5453 93.3887C58.7631 93.6117 59.0455 93.7468 59.3449 93.7712C59.5656 93.8668 59.756 94.0295 59.8929 94.2396C60.175 94.6359 60.4996 94.9947 60.86 95.3083C61.5815 95.7674 62.3663 96.0976 63.262 96.5508C63.3582 95.9885 63.3415 95.4105 63.2129 94.8559C62.6655 93.5536 62.447 92.1182 62.5796 90.6952C62.5877 88.6888 62.4527 86.6846 62.1756 84.7005C61.3396 80.8862 61.0372 76.9582 61.2785 73.0472C61.3115 72.4084 61.1207 71.7796 60.7441 71.2857C58.7818 68.9501 59.9385 66.7749 61.1166 65.1057C61.3243 64.9336 61.5643 64.8125 61.8198 64.7509L62.0448 64.9747C61.9704 65.4556 61.8388 65.9242 61.6532 66.3688C61.3713 66.9051 61.2277 67.5132 61.2373 68.1299C61.2469 68.7465 61.4094 69.349 61.7078 69.8748C63.2686 73.4927 64.3774 77.3183 65.0051 81.2515C65.4521 83.1995 66.0265 85.1109 66.7241 86.9711C67.4603 89.3437 68.1993 91.7156 68.9411 94.0867C69.0332 94.3807 69.1568 94.6659 69.3115 95.0764C69.5823 94.768 69.7702 94.3859 69.8552 93.9711C69.9401 93.5562 69.9189 93.1242 69.7938 92.7213C69.5196 91.5916 69.5123 90.4057 69.7728 89.2723C70.6114 87.1265 71.6342 85.0702 72.8278 83.1302C74.2537 80.7766 75.2301 78.4138 73.9482 75.4C73.8474 75.0599 73.776 74.7105 73.7349 74.3563ZM82.2849 43.0953C81.6358 43.1095 80.753 43.143 79.8676 43.1442C78.8092 43.1456 77.7484 43.1168 76.689 43.1058C75.6286 43.0947 74.5695 43.1082 73.5079 43.0754C72.7414 42.8786 71.9466 42.8453 71.1682 42.9773C69.9488 43.5717 68.5618 43.6238 67.3072 43.1224C67.1467 43.0468 66.9703 43.0195 66.7966 43.0436C66.623 43.0677 66.4586 43.1422 66.321 43.2592C66.1835 43.3761 66.0779 43.5312 66.0155 43.7079C65.9531 43.8845 65.9363 44.0761 65.9667 44.2623C66.0282 44.5839 66.0298 44.9154 65.9714 45.2377C65.9129 45.5599 65.7956 45.8664 65.6262 46.1391C65.4569 46.4118 65.2389 46.6454 64.985 46.8262C64.7312 47.0069 64.4465 47.1313 64.1476 47.192C62.5406 47.6337 60.9259 47.9602 59.5574 46.188C59.2279 45.8979 58.9808 45.5135 58.8442 45.0788C58.8823 44.2996 59.13 43.5493 59.5569 42.9198C59.9839 42.2902 60.5715 41.8088 61.248 41.5344C61.9345 41.2444 62.6842 41.1758 63.4061 41.3368C64.1281 41.4978 64.7912 41.8816 65.3151 42.4416C65.3985 42.5264 65.4985 42.59 65.6077 42.6275C65.7169 42.6651 65.8325 42.6757 65.946 42.6586C66.4167 42.4211 66.933 42.3081 67.4522 42.3291C67.9714 42.35 68.4785 42.5043 68.9315 42.7791C69.0735 42.8407 69.2255 42.8709 69.3785 42.8679C69.5316 42.8649 69.6825 42.8287 69.8223 42.7615C70.8875 42.2372 72.0776 42.0846 73.2269 42.3248C75.8234 42.5608 78.4178 42.4476 81.0153 42.5187C82.5251 42.5084 84.0341 42.6003 85.5332 42.7939C88.3101 43.249 91.0768 43.8515 93.2509 46.2929C93.585 46.4691 93.9518 46.5614 94.3236 46.5627C93.9938 45.6942 93.4687 44.9282 92.7958 44.3339C92.1229 43.7396 91.3234 43.3358 90.4697 43.159C86.9049 42.2908 83.3022 41.6158 79.6749 41.1366C75.6976 40.7281 71.7155 40.8263 67.7376 40.7379C66.3412 40.6394 64.9396 40.6715 63.5483 40.8338C60.2048 41.3984 56.9074 42.1677 53.5766 42.7928C50.8689 43.1159 48.3518 44.4538 46.4632 46.5737C45.9475 47.1615 45.6252 47.916 45.5457 48.7211C45.4663 49.5262 45.6343 50.3371 46.0237 51.029C46.1844 50.7819 46.3327 50.5499 46.4845 50.3208C46.9889 49.5019 47.7465 48.9033 48.6219 48.6318C49.4973 48.3603 50.4336 48.4337 51.2636 48.8387C52.0097 49.2219 52.8243 49.4247 53.6504 49.4329C54.4766 49.4411 55.2945 49.2545 56.047 48.8862C56.9158 48.4603 57.6204 48.1287 58.5231 49.0002C58.8537 49.224 59.2486 49.3098 59.6336 49.2413C61.3164 49.1497 62.9889 48.9036 64.633 48.5056C66.4805 47.9313 68.2757 48.5804 70.0958 48.7485C70.1429 48.8419 70.178 48.9418 70.2002 49.0454C70.0222 49.1656 69.8236 49.2456 69.6162 49.2806C68.5484 49.2163 67.4792 49.1036 66.4106 49.0167C66.0759 48.9597 65.7357 48.9509 65.3988 48.9905C64.0688 49.3897 62.7162 49.6956 61.3496 49.9064C60.1883 49.8675 59.0327 49.715 57.8969 49.4508C57.4275 49.3256 56.9375 49.3202 56.4658 49.4351C55.6095 49.9145 54.6621 50.1736 53.6977 50.1922C52.7333 50.2107 51.7779 49.9881 50.9064 49.5418C50.3892 49.1814 49.7645 49.0466 49.1587 49.1648C48.553 49.283 48.0114 49.6452 47.6436 50.1783C47.2495 50.6299 47.0804 51.3148 46.6803 51.7576C46.2263 52.26 46.4429 52.6215 46.8433 52.9408C47.7077 53.63 48.5917 54.2887 49.4953 54.9168C52.0448 56.4947 54.8373 57.5625 57.7382 58.0687C59.5741 58.683 61.4502 59.1472 63.3507 59.4574C66.8055 59.6907 70.2699 59.7117 73.727 59.5204C79.9408 59.1767 85.9272 57.9969 91.3223 54.8436C92.6053 54.1967 93.6335 53.0784 94.2233 51.6884C94.8131 50.2984 94.9261 48.7273 94.5421 47.2557C93.4381 47.5638 92.8109 46.5886 91.9478 46.0121C89.5277 44.4362 86.7862 43.5264 83.9642 43.3626C84.3308 43.7095 84.5775 43.9178 84.7973 44.1551C86.3686 45.8508 86.7115 47.3288 85.8774 48.7713C84.6902 50.8246 81.0688 51.1825 79.2696 49.4242C78.1979 48.3769 77.898 45.7644 78.8727 45.0776C79.9878 44.292 81.2279 43.6988 82.2849 43.0953V43.0953ZM80.0419 95.5661C80.6838 95.4784 81.0829 95.2621 80.8797 94.3739C80.7684 94.0978 80.7211 93.7966 80.742 93.4963C80.7628 93.1961 80.8512 92.9059 80.9994 92.6508C81.1476 92.3958 81.3512 92.1837 81.5925 92.0328C81.8339 91.8819 82.1056 91.7969 82.3842 91.7851C82.4495 91.7748 82.516 91.7797 82.5793 91.7993C82.6427 91.8188 82.7015 91.8528 82.7518 91.8987C82.8436 92.0879 82.8706 92.3059 82.8281 92.5144C82.3686 93.5987 81.8201 94.6352 81.4018 95.7397C80.6993 97.5949 80.0407 99.4725 79.426 101.373C79.1247 102.298 79.4524 102.671 80.3456 102.394C81.2264 101.967 82.1329 101.605 83.059 101.311C85.2743 100.971 86.5215 99.2884 87.8458 97.7356C88.3106 97.1243 88.5819 96.3683 88.6197 95.5784C88.6098 94.7458 88.8035 93.9252 89.1811 93.1992C89.5588 92.4733 90.107 91.8678 90.7706 91.4437C90.9096 91.3464 91.0654 91.2806 91.2285 91.2501C91.3917 91.2197 91.5589 91.2253 91.72 91.2666C92.0145 91.6215 92.1942 92.0702 92.2319 92.545C92.1811 92.9366 92.0186 93.3013 91.767 93.5885C91.1057 94.4294 90.4906 95.3115 89.925 96.2302C89.6567 96.8636 89.5503 97.5631 89.617 98.2559C89.7352 98.8855 89.9282 99.4961 90.1911 100.072C90.775 99.5953 91.3297 99.0777 91.8516 98.523C92.9417 97.2219 94.2855 96.1343 94.6687 94.2311C95.0974 92.1023 95.6511 90.0141 96.0987 87.891C96.3555 86.1482 96.9014 84.4697 97.7103 82.9362C98.6633 81.3266 99.2472 79.4949 99.4134 77.593C99.5797 75.691 99.3236 73.7737 98.6664 72C96.5116 80.622 92.2013 88.4375 86.2076 94.591C86.2371 93.6266 86.1848 92.6614 86.0511 91.7073C85.7906 91.0083 85.7046 90.2477 85.8016 89.5015C85.8986 88.7553 86.1752 88.0497 86.6039 87.4551C87.5968 86.0256 88.1674 84.306 88.2413 82.5209C88.2312 81.528 88.1701 80.5364 88.0585 79.5508C87.7713 79.7525 87.5628 80.0612 87.4727 80.4181C86.8602 82.7354 85.6848 84.8337 84.0684 86.4953C82.2809 88.1274 81.0114 90.3227 80.4381 92.7734C80.2542 93.6469 80.1814 94.5573 80.0419 95.5661V95.5661ZM92.0003 42.3804L91.9413 42.6338C92.404 42.9222 92.8521 43.237 93.2838 43.5769C96.1787 46.099 97.4328 48.0726 96.1957 51.0626C95.4785 52.5845 94.4097 53.8807 93.0927 54.8259C89.8379 57.2024 86.1182 58.7342 82.2244 59.3013C78.3338 59.9641 74.4121 60.3925 70.4774 60.5846C67.7194 60.6588 64.9604 60.4919 62.2274 60.0856C60.3983 59.7448 58.5894 59.288 56.81 58.7175C53.0294 57.735 49.3868 56.4362 46.2787 53.5009C45.5459 52.9127 44.9874 52.107 44.6713 51.182C44.3552 50.2569 44.2951 49.2526 44.4984 48.2914C44.7223 47.2048 45.1898 46.1941 45.8599 45.3483C46.5301 44.5024 47.3823 43.8471 48.3418 43.44C52.8094 41.355 57.5921 40.1687 62.4545 39.9393C65.578 39.7213 68.7422 39.7898 71.89 39.7501C72.6752 39.7402 73.4674 39.782 74.2569 39.8461C77.0385 40.0722 79.8223 40.2398 82.6014 40.5812C84.9154 40.8655 87.2241 41.3628 89.5352 41.7658C87.4778 40.9466 85.3531 40.3397 83.1897 39.9531C79.4721 39.3775 75.7427 39.0067 72.0175 38.6019C70.686 38.4321 69.3445 38.3703 68.0044 38.4171C62.1924 38.8642 56.4181 39.7663 50.7271 41.1165C47.4839 41.6941 44.4992 43.3846 42.2155 45.9374C41.5914 46.7343 41.2181 47.7248 41.1496 48.7658C41.0812 49.8068 41.3211 50.8444 41.8346 51.7285C42.9463 53.6444 44.5416 55.1776 46.4329 56.1476C48.0709 56.9624 49.7809 57.6078 51.3612 58.5455C53.9518 59.9336 56.7752 60.743 59.6623 60.9252C63.9591 61.4242 68.2701 61.5659 72.5642 61.6747C75.0178 61.7481 77.4729 61.6046 79.9049 61.2455C82.1582 60.8006 84.3882 60.228 86.5858 59.5301C90.3487 58.685 93.8641 56.8624 96.8277 54.22C97.5268 53.6398 98.0663 52.865 98.3882 51.9786C98.7102 51.0923 98.8024 50.128 98.655 49.1894C98.5632 48.1457 98.2479 47.1393 97.7339 46.2498C97.22 45.3603 96.5216 44.6121 95.6938 44.0641C94.5076 43.3962 93.2344 42.9347 92.0003 42.3805V42.3804ZM46.3888 107.491C49.9702 109.328 52.4222 111.956 52.096 116.685C52.6027 116.57 53.0754 116.322 53.4726 115.963C53.4229 115.105 53.2847 114.255 53.0607 113.431L53.1502 113.277C53.5644 113.936 53.9792 114.595 54.3946 115.256C55.9831 114.903 56.4825 113.739 55.5909 111.731L56.1036 111.819L56.7382 113.864C60.1274 111.291 64.3806 110.033 65.9908 105.299C64.5337 105.331 62.9955 105.273 61.491 105.421C59.5743 105.609 57.6854 105.967 55.7827 106.243C55.5114 106.292 55.235 106.301 54.9613 106.27C54.2873 106.165 53.6129 106.012 53.7931 107.171C52.2829 106.277 52.0392 106.312 51.6869 107.129C51.0441 106.941 50.383 106.836 49.7173 106.816C48.6151 106.939 47.5448 107.246 46.3888 107.491ZM79.685 109.294C78.7389 108.14 77.8888 107.064 76.9905 106.037C76.7432 105.827 76.4489 105.69 76.1373 105.642C75.6025 105.499 75.0591 105.413 74.5195 105.301C73.8303 105.158 73.145 105.098 73.0039 106.026C72.82 107.236 72.71 108.465 72.5631 109.731L74.593 109.831C74.5504 109.964 74.4863 110.088 74.4036 110.197C74.0016 110.24 73.5965 110.265 73.1927 110.298C73.029 110.289 72.8662 110.329 72.7221 110.413C72.5781 110.498 72.4582 110.623 72.3758 110.776C72.2933 110.929 72.2513 111.103 72.2545 111.28C72.2576 111.457 72.3058 111.63 72.3937 111.779C72.6169 112.086 72.8865 112.349 73.191 112.559L72.8819 112.461C72.6387 113.073 72.3569 113.668 72.1622 114.301C71.9337 115.044 71.7809 115.821 71.5399 116.81C75.4273 115.437 79.6023 115.326 83.5476 116.491C82.6115 114.887 81.7053 113.417 80.8845 111.899C80.3497 110.909 79.8843 109.928 78.5915 109.909L79.685 109.294ZM107.379 54.8096C107.468 55.4462 107.596 56.0757 107.764 56.6936C108.316 58.2657 109.031 59.8306 108.718 61.4912C108.303 63.6943 107.842 65.8871 107.296 68.0446C106.918 69.5397 106.195 70.9179 105.926 72.4372C105.498 74.7648 104.65 76.9784 103.428 78.9512C102.358 80.5347 101.511 82.2798 100.912 84.1303C100.3 86.2457 99.3267 88.2187 98.0425 89.9475C97.7512 90.37 97.507 90.832 97.241 91.2758L97.4731 91.4894C97.826 91.1999 98.1592 90.8833 98.4701 90.5421C101.017 87.3434 102.87 83.4818 106.14 80.9731C106.957 79.0596 108.029 77.2195 107.761 74.9096C107.428 72.9527 107.818 70.9329 108.848 69.2828C109.05 68.9952 109.194 68.6651 109.27 68.3137C109.385 67.9377 109.37 67.5295 109.228 67.1644C108.864 66.6864 108.649 66.0964 108.613 65.4786C108.578 64.8607 108.724 64.2466 109.031 63.7237C110.347 60.6567 109.875 57.7733 107.379 54.8096L107.379 54.8096ZM71.1907 108.791C71.2215 108.35 71.2563 107.771 71.3031 107.195C71.374 106.872 71.3575 106.533 71.2556 106.22C71.1538 105.906 70.9708 105.631 70.7285 105.426C70.4861 105.221 70.1945 105.096 69.8881 105.065C69.5818 105.033 69.2736 105.098 69 105.25C67.5053 105.852 66.8688 107.423 65.7166 108.53L66.7824 109.113C65.3668 109.301 64.0732 110.072 63.1711 111.265L64.6359 111.693C63.3618 112.069 61.8972 111.716 61.0778 113.446C61.4704 113.742 61.8975 113.98 62.3481 114.155C63.3009 114.372 64.2913 114.336 65.2269 114.619C67.1201 115.062 68.8095 116.207 70.0014 117.856C70.142 117.604 70.2484 117.333 70.3175 117.049C70.372 116.124 70.3222 115.179 70.4277 114.267C70.5381 113.314 70.7306 112.41 69.5646 111.929C69.5448 111.819 69.5385 111.707 69.5457 111.595L70.68 111.546C71.1207 109.979 71.0839 109.923 69.3451 109.505L69.2578 109.197L71.1907 108.791ZM62.0717 122.72C63.2408 122.73 64.7224 122.812 66.1838 122.733C66.7378 122.765 67.2851 122.591 67.7356 122.242C68.1861 121.892 68.513 121.387 68.6623 120.81C68.8472 119.257 67.9636 116.62 66.9173 116.181C65.8029 115.645 64.6028 115.346 63.3833 115.301C61.5918 115.422 59.8136 115.713 58.0696 116.171C56.3871 116.558 55.8562 118.361 56.9721 119.928C58.1862 121.634 59.9541 122.214 62.0717 122.72ZM84.4571 116.283L84.8192 116.242C85.0554 115.135 85.5275 114.102 86.1979 113.226C86.8683 112.35 87.7186 111.655 88.6813 111.195C88.7775 111.066 88.8487 110.917 88.8905 110.758C88.9323 110.598 88.9439 110.431 88.9247 110.267C88.9054 110.103 88.8556 109.944 88.7783 109.801C88.7011 109.658 88.5979 109.533 88.4749 109.433C86.7555 108.043 85.06 106.616 83.3288 105.244C83.004 104.98 82.6098 104.835 82.2035 104.83C80.6879 104.935 79.185 105.132 77.6506 105.297C77.8289 105.892 78.1898 106.403 78.6736 106.745C79.1575 107.088 79.7352 107.242 80.3111 107.182L79.4616 107.732C81.1505 110.623 82.8038 113.453 84.4572 116.283H84.4571ZM79.8062 117.284C79.4819 117.258 79.2139 117.243 78.9462 117.213C76.9809 116.967 74.9907 117.301 73.1874 118.179C71.9496 118.789 71.9135 119.189 73.0048 120.218C73.523 120.636 74.0174 121.088 74.4851 121.571C76.8926 124.473 81.6573 124.59 84.0676 123.354C84.4304 123.157 84.7373 122.858 84.9561 122.488C85.1749 122.118 85.2975 121.692 85.3111 121.254C85.3248 120.815 85.2289 120.381 85.0335 119.996C84.8382 119.612 84.5506 119.291 84.2009 119.068C83.3242 118.365 82.5234 117.524 81.5978 116.927C80.9805 116.661 80.3289 116.5 79.666 116.449L79.8062 117.284ZM84.6783 105.141C88.0495 108.75 92.1077 110.565 96.5814 112.191C95.2829 109.508 96.3523 107.533 97.2507 105.45C96.209 105.268 95.3518 105.05 94.4968 104.984C92.88 104.86 91.263 104.905 89.6492 104.717C88.7702 104.615 88.0159 104.51 87.6425 105.52C87.2643 105.098 86.7628 104.83 86.2228 104.761C85.6827 104.692 85.1372 104.826 84.6783 105.141V105.141ZM50.893 116.043C50.8638 114.945 50.5958 113.87 50.1105 112.905C49.6253 111.94 48.9365 111.112 48.0998 110.487C46.7588 109.491 45.223 108.832 43.8273 107.918C43.493 107.657 43.0817 107.537 42.6712 107.582C42.2608 107.627 41.8798 107.833 41.6006 108.161C41.2291 108.431 40.9555 108.831 40.826 109.294C40.6964 109.757 40.719 110.254 40.8897 110.7C41.9992 113.913 44.0659 116.636 46.7648 118.442C47.1783 118.642 47.6286 118.736 48.0811 118.718C48.5336 118.7 48.9762 118.57 49.3749 118.338C49.7736 118.106 50.1178 117.779 50.3809 117.381C50.6441 116.983 50.8193 116.525 50.893 116.043V116.043ZM100.39 112.822C101.321 112.97 102.27 112.74 103.053 112.176C103.836 111.611 104.397 110.754 104.628 109.768C104.839 108.975 104.766 108.125 104.423 107.386C104.081 106.648 103.494 106.076 102.78 105.783C102.075 105.457 101.39 105.069 100.686 104.743C100.606 104.714 100.521 104.704 100.438 104.714C100.354 104.723 100.273 104.752 100.201 104.799C98.6131 105.995 97.1293 107.29 97.0107 109.665C96.9813 109.993 97.0645 110.32 97.2446 110.586C98.0364 111.685 99.1423 112.471 100.39 112.822L100.39 112.822ZM81.6913 49.7452C81.8979 49.7812 82.1048 49.836 82.3109 49.8502C82.9947 49.9528 83.6901 49.7943 84.2772 49.4022C84.8642 49.0102 85.3061 48.4091 85.5266 47.7028C85.594 47.0301 85.4783 46.3508 85.1935 45.748C84.9088 45.1453 84.4675 44.6454 83.9236 44.3094C83.4715 43.9918 82.9407 43.8302 82.4016 43.8461C81.8625 43.862 81.3406 44.0546 80.9053 44.3985C80.0864 44.8157 79.4319 45.5344 79.0593 46.4256C78.61 48.1483 79.7375 49.4062 81.6913 49.7452ZM74.7028 31.203C74.1524 31.2034 73.6126 31.3659 73.1413 31.6728C72.67 31.9797 72.2851 32.4196 72.028 32.945C71.8031 33.5386 71.7429 34.1901 71.8548 34.8201C71.9667 35.45 72.2459 36.0312 72.6583 36.4928C73.0126 36.8598 73.4699 37.0893 73.9581 37.1451C74.9599 37.0741 75.9501 36.8726 76.9072 36.545C77.3181 36.3299 77.645 35.9643 77.8297 35.5132C78.0143 35.0622 78.0447 34.5551 77.9154 34.0821C77.1295 32.8027 76.0122 31.8014 74.7028 31.203H74.7028ZM63.2347 42.16C62.8782 42.0516 62.5045 42.0257 62.1381 42.0842C61.7717 42.1426 61.4209 42.284 61.1087 42.499C60.7964 42.7141 60.5298 42.998 60.3262 43.3321C60.1227 43.6663 59.9869 44.0431 59.9276 44.4378C59.7699 45.6035 60.6376 46.5183 61.9562 46.7383C63.783 47.043 65.1494 46.2486 65.2298 44.8352C65.2811 44.515 65.2686 44.1866 65.1931 43.872C65.1177 43.5574 64.981 43.2638 64.7923 43.0107C64.6035 42.7575 64.367 42.5508 64.0984 42.4041C63.8298 42.2574 63.5354 42.1742 63.2347 42.16ZM35.8705 72.8221C36.7304 72.4298 36.6656 73.22 36.7494 73.6521C36.8222 74.1708 36.8629 74.6942 36.8714 75.2187L37.2051 75.2349C37.2247 73.6316 37.2673 72.0303 37.2568 70.4244C37.1183 69.0701 37.0992 67.7047 37.1997 66.3464C37.3891 65.2944 37.0369 65.2112 36.0764 65.0088C36.1072 65.6062 36.2447 66.1916 36.4812 66.7327C36.6265 66.8451 36.739 67 36.8054 67.1792C36.8718 67.3584 36.8894 67.5543 36.8561 67.7439C36.8228 67.9335 36.7399 68.1089 36.6174 68.2493C36.4948 68.3898 36.3376 68.4895 36.1643 68.5367C36.708 69.2157 36.6927 69.1918 36.1025 69.6013C35.9465 69.7695 35.8351 69.9798 35.7798 70.2103C36.8452 71.009 36.6334 71.7402 35.9016 72.4744C35.8645 72.5857 35.8538 72.7052 35.8705 72.8221V72.8221ZM93.6198 120.805C92.8827 121.088 92.0955 121.186 91.3182 121.091C90.5409 120.996 89.7939 120.711 89.1341 120.257C87.7273 119.306 86.3128 118.428 85.8546 116.528C85.6785 118.534 86.8698 119.829 88.2556 120.788C89.0395 121.387 89.9752 121.709 90.9352 121.712C91.8951 121.715 92.8326 121.399 93.6198 120.805V120.805ZM91.6282 91.9857C89.7179 92.7559 89.1747 93.5916 89.3085 95.933C90.0806 94.5949 91.2615 93.736 91.6283 91.9857H91.6282ZM95.6075 119.319C97.5788 117.007 96.9077 113.965 94.1171 112.417C96.6343 115.599 96.7283 117.018 95.6076 119.319L95.6075 119.319ZM61.5668 71.1023C61.0425 69.4445 60.0939 68.1563 60.8704 66.7221C59.8849 68.6679 59.9543 69.199 61.5668 71.1023ZM100.527 95.2522L100.788 95.4449C101.533 94.4441 102.133 93.3269 102.567 92.1315L102.301 91.9596L100.527 95.2522ZM97.4068 93.2245L97.0833 92.9505C96.3637 94.0963 95.6441 95.242 94.9244 96.3878L95.0389 96.4937C95.8282 95.404 96.6175 94.3142 97.4068 93.2245ZM87.391 60.2635L87.302 59.9819L83.4845 61.0734L83.5551 61.2935L87.391 60.2635ZM102.587 66.8388L102.434 69.0332C103.346 68.2623 103.4 67.7778 102.587 66.8388V66.8388ZM71.4823 119.874L71.3512 120.039L73.6213 122.18L73.7837 121.975C73.0778 121.285 72.373 120.594 71.6632 119.909C71.6063 119.882 71.5444 119.87 71.4823 119.874V119.874ZM69.439 120.79C69.6788 120.376 69.7702 119.881 69.6962 119.398C69.6222 118.916 69.3878 118.479 69.037 118.17L69.439 120.79ZM102.728 61.2011L102.505 61.2445L103.156 64.2217L103.399 64.1735L102.728 61.2011ZM91.5013 59.0709L91.3749 58.7159C90.5823 58.9979 89.7896 59.28 88.997 59.562L89.0936 59.8277C89.8962 59.5754 90.6987 59.3232 91.5013 59.0709Z" fill="#99A287"/>
<path d="M65.1779 23.0589C64.612 21.1517 66.3809 19.5499 67.7602 18.794C68.399 18.4447 69.1299 18.3448 69.8292 18.511C70.5284 18.6772 71.1529 19.0994 71.5968 19.706C72.2022 20.366 72.7307 21.1034 73.1705 21.9019C73.4504 22.3715 73.5531 22.9391 73.4577 23.488C73.3622 24.0369 73.0758 24.5255 72.6573 24.8536C71.9211 25.4679 71.0136 25.7939 70.0833 25.7781C69.1531 25.7623 68.2554 25.4056 67.5376 24.7666C67.0108 24.4072 66.5857 23.8982 66.3088 23.2955C66.0319 22.6927 65.9139 22.0193 65.9676 21.3489L65.1779 23.0589ZM66.6866 21.8065C66.8578 22.4748 67.1135 23.1145 67.4465 23.7074C68.0301 24.3971 68.818 24.8456 69.6747 24.9758C70.5314 25.106 71.4034 24.9098 72.1407 24.421C72.3032 24.3191 72.4444 24.1819 72.5552 24.0179C72.666 23.854 72.744 23.667 72.7842 23.4687C72.8245 23.2705 72.8261 23.0654 72.789 22.8665C72.7519 22.6675 72.6769 22.4791 72.5688 22.3131C72.0611 21.4439 71.4535 20.6476 70.7607 19.9431C69.1478 18.2434 67.0049 19.4553 66.6866 21.8065Z" fill="#99A287"/>
<path d="M59.0107 32.7464C59.0231 33.1656 58.9464 33.5823 58.7864 33.9645C58.6264 34.3467 58.3875 34.6842 58.0879 34.9511C57.7884 35.2181 57.4361 35.4074 57.0582 35.5044C56.6804 35.6015 56.2869 35.6038 55.9081 35.5111C54.9702 35.3647 54.1117 34.8606 53.4881 34.09C52.8645 33.3194 52.517 32.3332 52.5084 31.3099C52.7025 30.476 53.139 29.7313 53.7539 29.1849C54.3688 28.6386 55.1296 28.3194 55.9248 28.2743C56.7918 28.6054 57.5481 29.2073 58.0975 30.0036C58.647 30.7999 58.9649 31.7546 59.0107 32.7464V32.7464ZM58.2999 32.6321C58.2419 31.8541 57.9844 31.109 57.5564 30.4801C57.1283 29.8512 56.5465 29.3634 55.8761 29.0714C54.7809 28.8289 53.5333 30.7091 53.4301 31.7371C53.4193 32.4498 53.6512 33.1419 54.0819 33.6821C54.5126 34.2223 55.1121 34.5728 55.7664 34.667C57.4759 34.8734 58.0449 34.5721 58.2999 32.6321Z" fill="#99A287"/>
<path d="M78.265 15.4959C78.3857 14.9948 78.5364 14.5027 78.7163 14.0228C79.2314 12.8211 80.1159 12.6795 81.1116 13.5917C82.3817 14.7553 82.5606 17.1653 81.3212 18.1109C81.0313 18.3089 80.7079 18.4429 80.3697 18.5051C80.0315 18.5673 79.6853 18.5565 79.351 18.4732C78.8643 18.0776 78.5098 17.5219 78.3407 16.8899C78.2446 16.4329 78.219 15.9619 78.265 15.4959V15.4959ZM81.605 16.3493C81.4617 15.8424 81.2694 15.3532 81.0314 14.8896C80.8236 14.5088 80.4936 14.2235 80.104 14.0877C79.9214 14.1383 79.7546 14.2407 79.6209 14.3844C79.4873 14.5281 79.3917 14.7078 79.3441 14.9048C79.2401 15.5062 79.432 16.187 79.3805 16.812C79.3024 17.763 79.849 17.963 80.3866 17.6822C80.861 17.3172 81.2732 16.8663 81.605 16.3493V16.3493Z" fill="#99A287"/>
<path d="M49.7966 96.2478L43.6823 90.4695C43.5732 91.0076 43.5755 91.565 43.689 92.1019C43.8024 92.6389 44.0243 93.1422 44.3387 93.5759C45.0168 94.2569 45.7315 94.8942 46.4791 95.4843C43.8901 94.6949 42.7279 92.7587 43.3513 89.2731C43.6221 89.4369 43.8795 89.6251 44.1209 89.8359C45.0135 90.7667 45.8778 91.7293 46.7685 92.6621C47.6425 93.5774 48.5438 94.4622 49.4155 95.3799C49.6061 95.6188 49.7759 95.8762 49.9228 96.1487L49.7966 96.2478Z" fill="#99A287"/>
<path d="M50.3017 96.8344L55.6851 102.145L56.0281 102.007L55.4271 98.1541L55.755 98.1269C56.0773 99.8464 56.3997 101.566 56.722 103.285L56.251 103.516C54.4843 101.044 51.6606 99.7488 50.3017 96.8344Z" fill="#99A287"/>
<path d="M52.5443 88.2265L54.6668 92.4225L54.3798 92.5628C53.6842 91.2212 52.9614 89.8926 52.3173 88.5264C52.2343 88.3712 52.2041 88.1895 52.2318 88.0128C52.2595 87.836 52.3435 87.6752 52.4692 87.5581C52.5949 87.441 52.7545 87.375 52.9205 87.3713C53.0864 87.3676 53.2484 87.4265 53.3785 87.5379C54.0079 88.1874 54.5712 88.9076 55.0589 89.6864C55.316 90.3038 55.5003 90.9538 55.6075 91.6208C54.5235 90.2879 54.5598 88.2947 52.8692 88.007L52.5443 88.2265Z" fill="#99A287"/>
<path d="M48.5942 96.864C49.5955 98.2436 50.6093 99.6133 51.5946 101.005C52.5446 102.396 53.8586 103.448 55.3671 104.025C54.7779 104.057 54.1894 103.946 53.6457 103.698C53.102 103.451 52.617 103.074 52.227 102.596C50.8546 100.828 49.597 98.9596 48.2912 97.1332L48.5942 96.864Z" fill="#99A287"/>
<path d="M61.6744 102.809L60.2989 103.328L60.4126 102.888C60.0059 102.306 59.5837 101.735 59.1958 101.14C58.3979 99.9155 57.6184 98.6778 56.8312 97.4454L57.1279 97.235C57.2528 97.3833 57.3885 97.5231 57.5009 97.6813C58.6214 99.2592 59.728 100.848 60.8712 102.408C61.0771 102.535 61.3089 102.606 61.5461 102.613L61.6744 102.809Z" fill="#99A287"/>
<path d="M48.3192 47.2612C49.4101 43.94 54.6246 43.1397 58.4422 45.5704C58.1311 45.8261 57.753 45.9688 57.3621 45.9779C56.9712 45.9871 56.5877 45.8623 56.2666 45.6214C55.1295 44.9484 53.8254 44.6781 52.5383 44.8487C51.2513 45.0192 50.0463 45.6219 49.0936 46.5717C48.8467 46.8158 48.5882 47.046 48.3192 47.2612V47.2612Z" fill="#99A287"/>
<path d="M78.6204 54.2579C78.1548 54.3285 77.691 54.4093 77.223 54.4677C76.1865 54.5971 75.1352 54.6614 74.1136 54.852C72.9204 55.1183 71.6794 54.9598 70.5766 54.4003C70.0481 54.2051 69.4834 54.153 68.932 54.2483C68.504 54.3517 68.0901 54.5144 67.7008 54.7324C67.985 54.1793 68.4437 53.7549 68.9935 53.5365C69.5432 53.3181 70.1473 53.3203 70.6957 53.5426C71.3508 53.9171 72.0687 54.1462 72.8071 54.2163C73.5454 54.2864 74.2893 54.1961 74.9949 53.9508C76.1675 53.7757 77.3509 53.6997 78.5345 53.7235L78.6204 54.2579Z" fill="#99A287"/>
<path d="M84.6365 50.8542L88.0205 50.6737C87.8338 50.9641 87.5879 51.2043 87.3017 51.3759C87.0155 51.5475 86.6966 51.6457 86.3696 51.6632C86.0427 51.6806 85.7164 51.6168 85.4159 51.4765C85.1154 51.3362 84.8487 51.1234 84.6365 50.8542V50.8542Z" fill="#99A287"/>
<path d="M75.0587 46.2029L72.5384 46.7799L72.4007 46.2623C73.244 46.0684 74.0872 45.8745 74.9304 45.6807L75.0587 46.2029Z" fill="#99A287"/>
<path d="M62.4355 117.027C61.9139 117.087 61.387 117.124 60.8722 117.214C60.3715 117.278 59.879 117.402 59.4036 117.583C59.2591 117.646 59.1292 117.743 59.0232 117.867C58.9172 117.991 58.8378 118.138 58.7905 118.299C58.9105 118.604 59.1253 118.855 59.398 119.007C59.6916 119.217 60.0581 119.292 60.3665 119.482C61.1054 119.936 61.5751 119.999 61.7204 118.912C61.8203 118.717 61.9662 118.555 62.1433 118.44C62.3203 118.326 62.5223 118.265 62.7285 118.262C63.2519 118.376 63.7557 118.577 64.2219 118.859C64.0564 119.269 63.8148 119.638 63.5123 119.943C63.0262 120.154 62.5148 120.288 61.9936 120.343C62.9992 121.016 65.8047 120.813 66.4022 120.107C66.5125 119.927 66.5878 119.725 66.6235 119.514C66.6592 119.302 66.6545 119.084 66.6098 118.874C66.5651 118.665 66.4813 118.467 66.3634 118.293C66.2456 118.119 66.0962 117.973 65.9244 117.864C65.6233 117.673 65.2936 117.539 64.9149 117.348C65.1277 117.261 65.355 117.222 65.5823 117.235C65.8097 117.247 66.0321 117.311 66.2353 117.422C66.4385 117.533 66.6181 117.688 66.7625 117.878C66.907 118.068 67.0131 118.289 67.0741 118.526C67.4318 119.769 67.094 120.672 66.0017 120.873C64.492 121.151 62.9428 121.261 61.3898 121.446L61.767 122.005L61.6674 122.189C61.4106 122.086 61.17 121.941 60.9537 121.76C60.4744 121.208 60.0476 120.605 59.5945 120.027C59.4598 119.847 59.3118 119.68 59.1521 119.527C57.7031 118.192 57.723 117.556 59.409 116.953C60.3696 116.706 61.3489 116.552 62.335 116.495L62.4355 117.027ZM62.1926 119.755L63.6449 119.443L63.5475 119.097C62.9474 118.822 62.3559 118.574 62.1926 119.755Z" fill="#99A287"/>
<path d="M78.8588 119.169C78.2821 119.119 77.7034 119.104 77.1252 119.124C76.5556 119.166 75.9936 119.289 75.4535 119.489C75.2888 119.54 75.1375 119.631 75.0119 119.757C74.8863 119.883 74.7901 120.039 74.7311 120.212C74.7757 120.412 74.8595 120.599 74.9768 120.761C75.0941 120.923 75.2421 121.056 75.411 121.15C78.2889 122.64 81.1902 123.484 84.0818 122.001C84.2246 121.951 84.3485 121.852 84.4347 121.72C84.5209 121.587 84.5647 121.427 84.5597 121.265C84.5546 121.103 84.5008 120.947 84.4064 120.821C84.3121 120.695 84.1823 120.605 84.0367 120.566C83.0507 120.12 81.9825 119.925 80.9156 119.999C80.3529 120.085 79.9984 121.163 79.3861 122.026C78.8658 121.795 78.3644 121.516 77.887 121.194C77.7174 120.903 77.6183 120.57 77.5989 120.226C77.8905 120.309 78.1738 120.422 78.4449 120.565C78.6716 120.773 78.8736 121.01 79.0462 121.271C79.2519 121.034 79.4258 120.768 79.5628 120.479C79.6122 120.275 79.6989 120.084 79.8177 119.916C79.9365 119.749 80.085 119.609 80.2545 119.504C80.424 119.4 80.6112 119.332 80.805 119.307C80.9989 119.281 81.1955 119.298 81.3833 119.355C82.3161 119.473 83.2353 119.693 84.1271 120.01C84.3507 120.129 84.547 120.3 84.7018 120.51C84.8566 120.721 84.966 120.966 85.022 121.228C85.0126 121.484 84.9419 121.732 84.8168 121.949C84.6917 122.166 84.5166 122.344 84.3085 122.466C83.3127 122.998 82.2145 123.267 81.1037 123.252C79.0415 122.87 77.0139 122.296 75.0437 121.535C74.7828 121.364 74.5589 121.134 74.3873 120.862C74.2158 120.589 74.1005 120.28 74.0492 119.954C74.137 119.705 74.2796 119.482 74.4647 119.306C74.6498 119.129 74.8719 119.003 75.1119 118.94C76.0015 118.71 76.9104 118.578 77.8246 118.546C78.1933 118.587 78.554 118.688 78.8943 118.846L78.8588 119.169Z" fill="#99A287"/>
<path d="M44.7209 112.45C44.3886 112.002 44.0841 111.532 43.8094 111.041C43.5705 110.485 43.3622 109.915 43.1854 109.332C43.7487 109.335 44.3068 109.448 44.8325 109.667C46.0456 110.486 47.2071 111.392 48.3093 112.378C49.4965 113.438 49.612 115.114 48.5749 115.633C48.3508 115.747 48.1075 115.81 47.8599 115.82C47.6123 115.829 47.3656 115.783 47.1348 115.686C45.2849 114.733 43.7113 113.252 42.584 111.403C42.5003 111.21 42.4342 111.008 42.3866 110.8L42.6039 110.601C43.1989 111.308 43.794 112.016 44.3891 112.723L44.7209 112.45ZM45.3587 113.211L45.2252 113.446C45.9015 113.951 46.5553 114.504 47.2652 114.937C47.4163 115.033 47.5859 115.089 47.7605 115.101C47.9351 115.113 48.11 115.081 48.2712 115.008C48.3958 114.853 48.4823 114.667 48.5227 114.466C48.5631 114.266 48.5561 114.058 48.5024 113.861C48.1081 113.143 47.6121 112.495 47.0323 111.943C46.361 111.367 45.6496 110.848 44.9044 110.39C44.6237 110.227 44.332 110.087 44.0318 109.972C44.525 110.954 44.9274 111.908 46.0252 112.122C46.4718 112.258 46.8824 112.505 47.2237 112.844C47.3731 113.081 47.4709 113.351 47.51 113.634C47.2902 113.754 47.0476 113.818 46.8011 113.82C46.309 113.65 45.8273 113.447 45.3587 113.211L45.3587 113.211Z" fill="#99A287"/>
<path d="M94.2828 117.81C94.3761 117.283 94.3568 116.74 94.2263 116.222C93.9145 115.782 93.4585 115.488 92.9522 115.401C92.7645 115.406 92.5818 115.468 92.4249 115.579C92.268 115.69 92.143 115.847 92.0641 116.031C92.1607 116.578 92.3468 117.103 92.6137 117.579C92.3781 117.883 92.0432 118.078 91.6784 118.122C91.3136 118.166 90.9472 118.056 90.6552 117.816C90.9978 117.597 91.2828 117.415 91.5673 117.232C91.3449 115.823 91.6848 114.855 92.4889 114.605C92.9641 114.602 93.4322 114.729 93.85 114.974C94.2677 115.219 94.6216 115.573 94.8789 116.004C94.9676 116.161 95.0227 116.337 95.04 116.52C95.0574 116.703 95.0365 116.887 94.9789 117.06C94.9213 117.233 94.8285 117.39 94.7074 117.519C94.5863 117.648 94.4399 117.745 94.2791 117.805L94.2828 117.81Z" fill="#99A287"/>
<path d="M99.2496 111.346C97.6975 111.092 97.3729 110.546 98.0149 109.12C98.3148 108.488 98.6806 107.895 99.1052 107.352C99.7544 106.489 100.544 106.709 101.404 107.267C101.557 107.361 101.69 107.488 101.795 107.641C101.9 107.794 101.974 107.968 102.012 108.154C102.051 108.339 102.053 108.531 102.019 108.717C101.985 108.904 101.915 109.08 101.814 109.236C101.015 111.526 100.746 111.633 99.2496 111.346ZM99.6631 110.852C99.9329 110.889 100.206 110.824 100.437 110.669C100.827 110.005 101.126 109.283 101.326 108.528C101.189 108.21 100.949 107.959 100.651 107.82C99.8857 108.144 98.9304 108.127 98.6108 109.275C98.3255 110.3 98.3905 110.628 99.6631 110.852V110.852Z" fill="#99A287"/>
<path d="M81.8351 48.0986C82.2214 47.0425 82.4137 46.3849 82.7047 45.79C82.7816 45.6701 82.8836 45.5716 83.0025 45.5024C83.1214 45.4332 83.2538 45.3954 83.3888 45.392C83.6166 45.5181 83.7901 45.735 83.8725 45.9968C83.9514 46.1506 84.0013 46.3197 84.0192 46.4945C84.0371 46.6692 84.0227 46.8461 83.9767 47.0147C83.9308 47.1834 83.8543 47.3405 83.7516 47.477C83.649 47.6135 83.5222 47.7265 83.3788 47.8097C82.8797 47.9855 82.3598 48.0828 81.8351 48.0986V48.0986Z" fill="#99A287"/>
<path d="M76.0484 33.0044C76.2295 33.7083 76.2733 34.4451 76.177 35.1682C75.8479 36.0147 74.9382 36.055 73.9738 35.936C74.5536 34.8392 75.0783 33.8465 75.603 32.8538L76.0484 33.0044Z" fill="#99A287"/>
<path d="M64.5006 43.9632C64.4994 44.2516 64.4423 44.5366 64.3329 44.7997C64.2234 45.0628 64.064 45.2982 63.8651 45.4907C63.6661 45.6831 63.432 45.8284 63.1778 45.9171C62.9236 46.0057 62.655 46.0359 62.3894 46.0055C62.2887 45.9133 62.2095 45.7969 62.1581 45.6657C62.1066 45.5344 62.0845 45.392 62.0933 45.2498C62.349 44.4864 62.6616 43.7467 63.0282 43.0379C63.0804 42.896 63.1723 42.7753 63.2912 42.6925C63.41 42.6098 63.5498 42.5692 63.6911 42.5764C63.8323 42.5836 63.9679 42.6382 64.079 42.7326C64.1901 42.8271 64.2712 42.9566 64.3108 43.1032C64.4127 43.3783 64.4767 43.6681 64.5006 43.9632Z" fill="#99A287"/>
<path d="M71.2423 22.9634C71.101 23.3191 70.8866 23.6355 70.6153 23.8885C70.1952 24.0501 69.7522 24.1311 69.3062 24.1277C69.313 23.7193 69.2964 23.306 69.3344 22.9038C69.3637 22.6177 69.4317 22.3378 69.5363 22.073C69.6918 21.6739 69.8888 21.2968 70.0682 20.9103C70.4491 21.3706 70.8406 21.8219 71.2016 22.2991C71.2539 22.5158 71.2677 22.7412 71.2423 22.9634V22.9634Z" fill="#99A287"/>
<path d="M55.8184 33.2037C56.0301 32.5467 56.2788 31.9043 56.563 31.2801C56.8309 31.2302 57.1058 31.248 57.3663 31.332C57.2993 31.954 57.1612 32.5647 56.9553 33.1501C56.6637 33.3867 56.3169 33.5312 55.9537 33.5672L55.8184 33.2037Z" fill="#99A287"/>
<path d="M81.1152 16.3773L80.3989 17.1418C80.2043 16.8353 80.0575 16.4964 79.9646 16.1385C80.0582 15.8907 80.2172 15.678 80.4218 15.5267L81.1152 16.3773Z" fill="#99A287"/>
</svg>
