<svg width="38" height="25" viewBox="0 0 38 25" fill="none" xmlns="http://www.w3.org/2000/svg">
<g clip-path="url(#clip0)">
<path opacity="0.07" d="M35 0.556641H3C1.3 0.556641 0 1.86842 0 3.58382V21.7469C0 23.4623 1.4 24.7741 3 24.7741H35C36.7 24.7741 38 23.4623 38 21.7469V3.58382C38 1.86842 36.6 0.556641 35 0.556641Z" fill="#4F5544"/>
<path d="M35 1.56543C36.1 1.56543 37 2.47358 37 3.58355V21.7466C37 22.8566 36.1 23.7648 35 23.7648H3C1.9 23.7648 1 22.8566 1 21.7466V3.58355C1 2.47358 1.9 1.56543 3 1.56543H35Z" fill="white"/>
<path d="M25.2603 16.9339C23.5633 18.4273 21.1033 19.2245 18.9853 19.2245C16.0153 19.2245 13.3413 17.9127 11.3193 15.7301C11.1593 15.5586 11.3013 15.3245 11.4923 15.4577C13.6753 16.9753 16.3743 17.8875 19.1623 17.8875C21.0423 17.8875 23.1123 17.4233 25.0123 16.4586C25.3003 16.3123 25.5423 16.6827 25.2603 16.9329V16.9339ZM25.9663 15.9682C25.7503 15.6373 24.5323 15.8118 23.9863 15.8895C23.8193 15.9137 23.7933 15.7402 23.9433 15.6171C24.9133 14.7997 26.5053 15.0359 26.6913 15.3093C26.8783 15.5838 26.6443 17.4889 25.7313 18.4001C25.5913 18.5393 25.4593 18.4647 25.5213 18.279C25.7263 17.6695 26.1853 16.3012 25.9673 15.9682H25.9663Z" fill="#FF9900"/>
<path d="M21.8148 15.9866C21.2408 15.484 21.1388 15.2499 20.8218 14.7706C19.8748 15.7918 19.2038 16.0975 17.9718 16.0975C16.5188 16.0975 15.3848 15.1511 15.3848 13.254C15.3848 11.7737 16.1468 10.7647 17.2288 10.2722C18.1688 9.83532 19.4788 9.75762 20.4788 9.63856V9.40143C20.4788 8.96753 20.5118 8.45291 20.2708 8.07956C20.0588 7.74354 19.6548 7.6053 19.3008 7.6053C18.6408 7.6053 18.0508 7.9615 17.9088 8.70013C17.8788 8.86461 17.7648 9.02606 17.6088 9.03312L15.9318 8.84443C15.7918 8.81113 15.6358 8.69004 15.6748 8.46098C16.0608 6.31673 17.8978 5.66992 19.5418 5.66992C20.3818 5.66992 21.4818 5.90604 22.1458 6.57808C22.9878 7.40551 22.9078 8.51345 22.9078 9.71625V12.5598C22.9078 13.4145 23.2428 13.7908 23.5578 14.251C23.6708 14.4165 23.6958 14.6142 23.5548 14.7373C23.2018 15.0481 22.5748 15.6253 22.2288 15.9482C22.1717 15.9961 22.1016 16.0254 22.0277 16.0322C21.9538 16.0391 21.8795 16.0232 21.8148 15.9866V15.9866ZM20.1558 13.4306C20.4958 12.7989 20.4788 12.2056 20.4788 11.4952V11.0997C19.2288 11.0997 17.9088 11.3822 17.9088 12.9362C17.9088 13.7252 18.2948 14.258 18.9588 14.258C19.4458 14.258 19.8808 13.9432 20.1558 13.4306V13.4306Z" fill="#221F1F"/>
</g>
<defs>
<clipPath id="clip0">
<rect width="38" height="24.2174" fill="white" transform="translate(0 0.556641)"/>
</clipPath>
</defs>
</svg>
