<svg width="38" height="25" viewBox="0 0 38 25" fill="none" xmlns="http://www.w3.org/2000/svg">
<g clip-path="url(#clip0)">
<path opacity="0.07" d="M35 0.556641H3C1.3 0.556641 0 1.86842 0 3.58382V21.7469C0 23.4623 1.4 24.7741 3 24.7741H35C36.7 24.7741 38 23.4623 38 21.7469V3.58382C38 1.86842 36.6 0.556641 35 0.556641Z" fill="#4F5544"/>
<path d="M35 1.56543C36.1 1.56543 37 2.47358 37 3.58355V21.7466C37 22.8566 36.1 23.7648 35 23.7648H3C1.9 23.7648 1 22.8566 1 21.7466V3.58355C1 2.47358 1.9 1.56543 3 1.56543H35Z" fill="white"/>
<path d="M23.9 8.93146C24.1 7.9224 23.9 7.21606 23.3 6.61062C22.7 5.90428 21.6 5.60156 20.2 5.60156H16.1C15.8 5.60156 15.6 5.80337 15.5 6.10609L14 16.2976C14 16.4994 14.1 16.7012 14.3 16.7012H17L17.4 13.2704L19.2 11.0505L23.9 8.93146V8.93146Z" fill="#003087"/>
<path d="M23.8996 8.93164L23.6996 9.13345C23.1996 11.9588 21.4996 12.9679 19.0996 12.9679H17.9996C17.6996 12.9679 17.4996 13.1697 17.3996 13.4724L16.7996 17.4077L16.5996 18.4168C16.5996 18.6186 16.6996 18.8204 16.8996 18.8204H18.9996C19.2996 18.8204 19.4996 18.6186 19.4996 18.4168V18.3159L19.8996 15.8942V15.7932C19.8996 15.5914 20.1996 15.3896 20.3996 15.3896H20.6996C22.7996 15.3896 24.3996 14.5824 24.7996 12.1606C24.9996 11.1516 24.8996 10.3443 24.3996 9.73889C24.2996 9.23436 24.0996 9.03255 23.8996 8.93164V8.93164Z" fill="#3086C8"/>
<path d="M23.3004 8.73045C23.2004 8.62955 23.1004 8.62955 23.0004 8.62955C22.9004 8.62955 22.8004 8.62955 22.7004 8.52864C22.4004 8.42773 22.0004 8.42773 21.6004 8.42773H18.6004C18.5004 8.42773 18.4004 8.42773 18.4004 8.52864C18.2004 8.62955 18.1004 8.73045 18.1004 8.93226L17.4004 13.3721V13.473C17.4004 13.1703 17.7004 12.9685 18.0004 12.9685H19.3004C21.8004 12.9685 23.4004 11.9594 23.9004 9.13408V8.93226C23.8004 8.83136 23.6004 8.73045 23.4004 8.73045H23.3004V8.73045Z" fill="#012169"/>
</g>
<defs>
<clipPath id="clip0">
<rect width="38" height="24.2174" fill="white" transform="translate(0 0.556641)"/>
</clipPath>
</defs>
</svg>
