<svg width="28" height="24" viewBox="0 0 28 24" fill="none" xmlns="http://www.w3.org/2000/svg">
<path d="M0 23.987V9.21304L2.10526 9.21739V9.24348L20 9.2313V23.9861H0V23.987ZM17.8947 10.9435H2.10526V22.2478H17.8947V10.9435ZM12.6316 8.43739C12.6316 6.66348 12.1126 5.65217 10 5.65217C7.89474 5.65217 7.36842 6.66435 7.36842 8.43739V9.23043H5.26316V8.04087C5.26316 5.03478 7.65684 4 10 4C12.1232 4 14.7368 5.17739 14.7368 8.04087V9.23043H12.6316V8.43739Z" fill="#99A287"/>
<path fill-rule="evenodd" clip-rule="evenodd" d="M22 0C18.6864 0 16 2.68636 16 6C16 9.31364 18.6864 12 22 12C25.3136 12 28 9.31364 28 6C28 2.68636 25.3136 0 22 0ZM22.5455 8.18182C22.5455 8.32648 22.488 8.46522 22.3857 8.56751C22.2834 8.66981 22.1447 8.72727 22 8.72727C21.8553 8.72727 21.7166 8.66981 21.6143 8.56751C21.512 8.46522 21.4545 8.32648 21.4545 8.18182V6.54545H19.8182C19.6735 6.54545 19.5348 6.48799 19.4325 6.38569C19.3302 6.2834 19.2727 6.14466 19.2727 6C19.2727 5.85534 19.3302 5.7166 19.4325 5.61431C19.5348 5.51201 19.6735 5.45455 19.8182 5.45455H21.4545V3.81818C21.4545 3.67352 21.512 3.53478 21.6143 3.43249C21.7166 3.33019 21.8553 3.27273 22 3.27273C22.1447 3.27273 22.2834 3.33019 22.3857 3.43249C22.488 3.53478 22.5455 3.67352 22.5455 3.81818V5.45455H24.1818C24.3265 5.45455 24.4652 5.51201 24.5675 5.61431C24.6698 5.7166 24.7273 5.85534 24.7273 6C24.7273 6.14466 24.6698 6.2834 24.5675 6.38569C24.4652 6.48799 24.3265 6.54545 24.1818 6.54545H22.5455V8.18182Z" fill="#4F5544"/>
</svg>
