<svg width="14" height="15" viewBox="0 0 14 15" fill="none" xmlns="http://www.w3.org/2000/svg">
<g clip-path="url(#clip0)">
<path d="M6.99738 1.26424C8.86681 1.26424 9.08644 1.27255 9.82537 1.3058C10.5087 1.33643 10.878 1.45018 11.1252 1.5473C11.4529 1.67505 11.6865 1.82512 11.9306 2.06968C12.1747 2.31424 12.3279 2.54743 12.453 2.87512C12.5475 3.1223 12.6643 3.49199 12.6945 4.17493C12.7277 4.91387 12.7361 5.13305 12.7361 7.00293C12.7361 8.8728 12.7277 9.09199 12.6945 9.83093C12.6639 10.5143 12.5501 10.8836 12.453 11.1307C12.3253 11.4584 12.1752 11.6921 11.9306 11.9362C11.6861 12.1803 11.4529 12.3334 11.1252 12.4586C10.878 12.5531 10.5083 12.6699 9.82537 12.7001C9.08644 12.7333 8.86725 12.7416 6.99738 12.7416C5.1275 12.7416 4.90831 12.7333 4.16937 12.7001C3.486 12.6694 3.11675 12.5557 2.86956 12.4586C2.54188 12.3308 2.30825 12.1807 2.06413 11.9362C1.82 11.6916 1.66687 11.4584 1.54175 11.1307C1.44725 10.8836 1.33044 10.5139 1.30025 9.83093C1.267 9.09199 1.25869 8.8728 1.25869 7.00293C1.25869 5.13305 1.267 4.91387 1.30025 4.17493C1.33087 3.49155 1.44462 3.1223 1.54175 2.87512C1.6695 2.54743 1.81956 2.3138 2.06413 2.06968C2.30869 1.82555 2.54188 1.67243 2.86956 1.5473C3.11675 1.4528 3.48644 1.33599 4.16937 1.3058C4.90831 1.26949 5.1275 1.26424 6.99738 1.26424ZM6.99738 0.00292969C5.09731 0.00292969 4.85844 0.0112422 4.11119 0.0444922C3.36656 0.0777422 2.85819 0.19718 2.41412 0.369555C1.953 0.54718 1.56406 0.789117 1.17513 1.17805C0.786187 1.56699 0.547312 1.95855 0.366625 2.41705C0.19425 2.86155 0.0748125 3.36993 0.0415625 4.11718C0.0083125 4.8618 0 5.10068 0 7.0003C0 8.89993 0.0083125 9.13924 0.0415625 9.88649C0.0748125 10.6311 0.19425 11.1395 0.366625 11.5866C0.54425 12.0477 0.786187 12.4367 1.17513 12.8256C1.56406 13.2146 1.95562 13.4534 2.41412 13.6341C2.85862 13.8065 3.367 13.9259 4.11425 13.9592C4.8615 13.9924 5.09775 14.0007 7.00044 14.0007C8.90312 14.0007 9.13938 13.9924 9.88663 13.9592C10.6313 13.9259 11.1396 13.8065 11.5868 13.6341C12.0479 13.4565 12.4368 13.2146 12.8258 12.8256C13.2147 12.4367 13.4536 12.0451 13.6342 11.5866C13.8066 11.1421 13.9261 10.6337 13.9593 9.88649C13.9926 9.13924 14.0009 8.90299 14.0009 7.0003C14.0009 5.09762 13.9926 4.86137 13.9593 4.11412C13.9261 3.36949 13.8066 2.86112 13.6342 2.41399C13.4566 1.95287 13.2147 1.56393 12.8258 1.17499C12.4368 0.786055 12.0453 0.54718 11.5868 0.366492C11.1423 0.194117 10.6339 0.0746797 9.88663 0.0414297C9.13675 0.0108047 8.89744 0.00292969 6.99738 0.00292969ZM6.99738 3.4058C5.01419 3.4058 3.40287 5.01405 3.40287 7.0003C3.40287 8.98655 5.01419 10.5948 6.99738 10.5948C8.98056 10.5948 10.5919 8.98349 10.5919 7.0003C10.5919 5.01712 8.98056 3.4058 6.99738 3.4058ZM6.99738 9.33349C5.7085 9.33349 4.66419 8.28918 4.66419 7.0003C4.66419 5.71143 5.7085 4.66712 6.99738 4.66712C8.28625 4.66712 9.33056 5.71143 9.33056 7.0003C9.33056 8.28918 8.28625 9.33349 6.99738 9.33349ZM11.5723 3.26405C11.5723 3.72737 11.1969 4.10274 10.7336 4.10274C10.2703 4.10274 9.89494 3.72737 9.89494 3.26405C9.89494 2.80074 10.2703 2.42537 10.7336 2.42537C11.1969 2.42537 11.5723 2.80074 11.5723 3.26405Z" fill="#4F5544"/>
</g>
<defs>
<clipPath id="clip0">
<rect width="14" height="14" fill="white" transform="translate(0 0.00195312)"/>
</clipPath>
</defs>
</svg>
