<svg width="14" height="15" viewBox="0 0 14 15" fill="none" xmlns="http://www.w3.org/2000/svg">
<g clip-path="url(#clip0)">
<path d="M7 0.00195312C7.94792 0.00195312 8.85325 0.187307 9.716 0.558016C10.5788 0.928724 11.3231 1.42704 11.949 2.05295C12.5749 2.67887 13.0732 3.4232 13.4439 4.28595C13.8146 5.1487 14 6.05404 14 7.00195C14 8.26574 13.687 9.43547 13.0611 10.5111C12.4352 11.5868 11.5846 12.4375 10.5092 13.0631C9.43381 13.6887 8.26408 14.0017 7 14.002C6.30729 14.002 5.64492 13.9108 5.01288 13.7285C5.36521 13.1574 5.60219 12.6531 5.72381 12.2156L6.216 10.3016C6.33763 10.5326 6.5625 10.7362 6.89062 10.9123C7.21875 11.0885 7.5651 11.1766 7.92969 11.1766C8.65885 11.1766 9.31204 10.9669 9.88925 10.5475C10.4665 10.128 10.9131 9.55389 11.2293 8.82502C11.5455 8.09614 11.7034 7.27583 11.7031 6.36408C11.7031 5.28258 11.2869 4.34385 10.4545 3.54789C9.62208 2.75193 8.56173 2.35395 7.27344 2.35395C6.4836 2.35395 5.76056 2.48768 5.10431 2.75514C4.44806 3.0226 3.91942 3.37202 3.51837 3.80339C3.11733 4.23477 2.8105 4.7026 2.59788 5.20689C2.38525 5.71118 2.27894 6.21854 2.27894 6.72895C2.27894 7.36099 2.39735 7.91399 2.63419 8.38795C2.87102 8.86191 3.22656 9.19616 3.70081 9.3907C3.78598 9.42716 3.8589 9.43022 3.91956 9.39989C3.98023 9.36956 4.02281 9.31181 4.04731 9.22664C4.13248 8.92272 4.18104 8.73431 4.193 8.66139C4.24171 8.52781 4.21138 8.4002 4.102 8.27858C3.78613 7.92624 3.62819 7.47052 3.62819 6.91139C3.62819 5.98768 3.94727 5.19479 4.58544 4.5327C5.2236 3.87062 6.05908 3.53943 7.09187 3.53914C8.00333 3.53914 8.71427 3.78822 9.22469 4.28639C9.7351 4.78456 9.99031 5.43468 9.99031 6.23677C9.99031 6.90527 9.89917 7.52199 9.71687 8.08695C9.53458 8.65191 9.27325 9.10458 8.93287 9.44495C8.5925 9.78533 8.20356 9.95552 7.76606 9.95552C7.40148 9.95552 7.10369 9.82179 6.87269 9.55433C6.64169 9.28687 6.56877 8.97085 6.65394 8.60627C6.70265 8.43622 6.76652 8.21747 6.84556 7.95002C6.9246 7.68256 6.9914 7.45462 7.04594 7.2662C7.10048 7.07779 7.1521 6.8742 7.20081 6.65545C7.24952 6.4367 7.27387 6.25441 7.27387 6.10858C7.27387 5.80466 7.19483 5.55558 7.03675 5.36133C6.87867 5.16708 6.64781 5.06981 6.34419 5.06952C5.96735 5.06952 5.65133 5.24277 5.39612 5.58927C5.14092 5.93577 5.01331 6.3702 5.01331 6.89258C5.01331 7.08712 5.02848 7.27554 5.05881 7.45783C5.08915 7.64012 5.12254 7.77385 5.159 7.85902L5.21369 7.98677C4.71552 10.1501 4.41175 11.42 4.30237 11.7965C4.20525 12.2582 4.16879 12.799 4.193 13.4188C2.94117 12.8596 1.92937 12.0029 1.15762 10.8485C0.385875 9.69404 0 8.41187 0 7.00195C0 5.06966 0.683521 3.41999 2.05056 2.05295C3.4176 0.685912 5.06727 0.00239063 6.99956 0.00239063L7 0.00195312Z" fill="#4F5544"/>
</g>
<defs>
<clipPath id="clip0">
<rect width="14" height="14" fill="white" transform="translate(0 0.00195312)"/>
</clipPath>
</defs>
</svg>
