<svg width="14" height="15" viewBox="0 0 14 15" fill="none" xmlns="http://www.w3.org/2000/svg">
<g clip-path="url(#clip0)">
<path d="M7.35372 0.0137663C8.23247 0.00195312 9.10618 0.0089535 9.97889 0.00195312C10.0318 0.894938 10.4014 1.80455 11.1538 2.4359C11.9046 3.08299 12.9666 3.3792 14 3.47939V5.82845C13.0316 5.80089 12.0587 5.62588 11.1799 5.26361C10.7972 5.1131 10.4407 4.91928 10.0917 4.72108C10.0872 6.42567 10.0998 8.12807 10.0791 9.82566C10.0267 10.6412 9.71703 11.4528 9.17115 12.1248C8.2929 13.2436 6.76855 13.9729 5.20292 13.9957C4.24258 14.0434 3.28326 13.8159 2.46494 13.3967C1.10879 12.7019 0.1545 11.4301 0.0155108 10.065C-0.00199629 9.77589 -0.00468474 9.48625 0.00745351 9.19694C0.128313 8.08695 0.76031 7.02508 1.74129 6.30273C2.8532 5.46137 4.41078 5.0606 5.86916 5.29774C5.88275 6.16184 5.84297 7.02508 5.84297 7.88919C5.17673 7.70193 4.39819 7.75443 3.81605 8.10576C3.39014 8.34953 3.06828 8.70819 2.90003 9.1265C2.76104 9.42227 2.80083 9.75085 2.80888 10.065C2.96852 11.0223 4.02806 11.8269 5.1591 11.7398C5.90894 11.7328 6.62755 11.3548 7.01833 10.8013C7.14473 10.6075 7.28624 10.4093 7.29379 10.1814C7.35976 9.13788 7.33357 8.09876 7.34163 7.05527C7.34717 4.70358 7.33357 2.35845 7.35422 0.0142038L7.35372 0.0137663Z" fill="#4F5544"/>
</g>
<defs>
<clipPath id="clip0">
<rect width="14" height="14" fill="white" transform="translate(0 0.00195312)"/>
</clipPath>
</defs>
</svg>
