<svg width="139" height="139" viewBox="0 0 139 139" fill="none" xmlns="http://www.w3.org/2000/svg">
<path d="M110.786 115.881C110.654 117.233 110.452 118.577 110.18 119.905C109.896 120.454 109.509 120.934 109.044 121.312C108.615 120.901 108.23 120.439 107.896 119.934C107.605 119.172 107.221 118.454 106.754 117.802C106.87 118.625 106.943 119.453 106.972 120.285C107.097 121.698 106.993 123.124 106.666 124.499C106.439 125.02 106.106 125.478 105.691 125.838C105.276 126.198 104.79 126.45 104.271 126.576C100.052 126.893 95.8127 126.931 91.5796 126.981C89.903 127.049 88.2242 126.935 86.5685 126.641C84.8333 126.295 83.1477 125.704 81.5551 124.881C79.7513 123.752 77.6539 123.298 75.5879 123.59C72.9451 124.135 70.513 123.357 68.0249 122.781C63.3949 121.709 58.7512 120.696 54.1514 119.488C52.3377 118.904 50.5628 118.187 48.8389 117.342C47.8368 116.817 46.8099 116.35 45.7626 115.942C42.1232 114.858 42.0518 114.819 42.0964 110.945C39.6507 113.516 37.5019 111.94 35.1788 110.774C31.5716 108.964 29.5853 105.512 27.3005 102.329C26.5802 101.325 25.8802 100.304 25.1586 99.3017C24.6772 98.5977 24.3347 97.794 24.1522 96.9405C23.9697 96.087 23.9511 95.2019 24.0977 94.3403C24.2443 93.4787 24.5528 92.659 25.0042 91.932C25.4555 91.2051 26.0401 90.5864 26.7215 90.1145C28.7857 88.5714 30.9292 87.153 32.9978 85.6165C33.4003 85.3014 33.681 84.836 33.7859 84.3101C33.8806 83.6532 33.4134 82.5952 33.6906 82.3321C34.4851 81.4122 35.511 80.7646 36.6415 80.4696C39.4708 80.2226 42.3135 80.2149 45.1438 80.4465C48.695 80.7383 52.2215 81.374 55.7615 81.8357C56.7912 81.97 57.5136 82.2653 56.9823 83.7165C52.8643 83.0834 48.808 82.3439 44.7253 81.8754C42.236 81.5752 39.7261 81.5297 37.2288 81.7395C35.3023 81.9147 35.0169 82.6096 35.5119 84.6001C35.5742 84.7796 35.6014 84.9711 35.5919 85.1625C35.5823 85.354 35.5363 85.5412 35.4566 85.7124C35.3769 85.8836 35.2653 86.0351 35.1288 86.1572C34.9923 86.2793 34.834 86.3694 34.6637 86.4219C32.4526 87.825 30.2064 89.1934 28.134 90.8156C25.2375 93.0829 24.9488 95.9854 27.0783 99.0758C28.4156 101.017 29.8441 102.893 31.0681 104.914C32.9011 107.94 35.8884 109.168 38.6126 110.76C39.9679 111.552 41.0617 110.238 41.963 109.313C42.6463 108.439 43.2705 107.512 43.8306 106.54C44.147 106.191 44.5002 105.884 44.883 105.625C45.0168 106.15 45.0609 106.697 45.0131 107.24C44.5939 108.735 44.0298 110.181 43.5484 111.657C43.4417 111.906 43.3894 112.178 43.3958 112.452C43.4021 112.726 43.4669 112.995 43.585 113.238C43.7031 113.481 43.8714 113.69 44.0767 113.851C44.282 114.012 44.5188 114.119 44.7686 114.164C46.4889 114.85 48.1933 115.583 49.9107 116.278C55.2007 118.568 60.7453 120.097 66.4025 120.824C67.3958 120.928 68.3579 121.38 69.3512 121.485C72.222 121.787 75.1135 121.89 77.9725 122.279C79.4783 122.586 80.9598 123.019 82.4037 123.574C83.632 124.095 84.9003 124.497 86.194 124.777C89.4125 125.13 92.6503 125.354 95.8846 125.438C98.3788 125.482 100.873 125.385 103.358 125.146C105.452 124.962 106.407 123.3 105.978 120.971C105.565 118.732 105.051 116.492 105.997 114.048C107.974 114.93 107.856 117.32 109.348 118.917C109.383 118.11 109.379 117.301 109.336 116.495C109.106 114.389 109.291 114.156 111.235 114.334C111.511 114.36 111.787 114.381 112.167 114.413C112.912 112.266 114.191 110.459 113.676 107.802C113.408 106.503 112.892 105.28 112.161 104.21C111.431 103.141 110.501 102.249 109.433 101.592C107.999 100.578 106.274 100.056 104.818 99.0714C103.724 98.4149 102.805 97.4639 102.15 96.3103C101.239 94.2124 99.6903 92.5173 97.7632 91.5089C95.5807 90.3787 93.3864 89.2752 90.8545 87.9856C91.2131 92.5766 91.4567 96.596 91.891 100.591C92.1661 101.57 92.6076 102.484 93.1926 103.287C93.321 103.443 93.4101 103.633 93.4514 103.838C93.4927 104.043 93.4847 104.256 93.4284 104.456C93.372 104.657 93.2691 104.838 93.1295 104.984C92.9899 105.129 92.8182 105.233 92.6309 105.285C88.3798 107.915 83.9112 107.603 79.2776 106.994C73.7773 106.362 68.3751 104.964 63.2044 102.837C61.1042 101.938 58.785 101.659 56.611 100.937C55.0175 100.429 53.4738 99.7515 52.0024 98.916C50.0038 97.7474 49.8028 96.1082 51.2027 93.94C55.6508 87.0504 60.2336 80.2579 64.5155 73.2495C66.775 69.3584 68.8464 65.3429 70.7216 61.2192C74.1024 54.1942 77.5416 47.192 80.6319 40.0163C82.7914 35.0023 84.3418 29.6845 86.2929 24.5599C87.7579 20.7119 89.3633 16.921 91.0613 13.1875C91.5923 12.447 92.3379 11.9216 93.178 11.6958C93.6752 11.9934 94.0689 12.459 94.2991 13.0215C96.2724 17.1493 97.7328 21.4352 97.3929 26.5194C99.3475 24.2316 101.039 22.0879 102.892 20.1222C105.636 17.2098 108.477 14.401 111.328 11.6099C111.832 11.2968 112.386 11.0898 112.961 11C113.137 11.5428 113.253 12.1062 113.307 12.6784C113.271 15.8884 113.221 19.1 113.069 22.3051C112.853 23.1457 112.522 23.9462 112.085 24.6794C111.259 23.2314 110.758 22.2376 110.154 21.3245C109.33 20.0804 108.639 20.0817 108.013 21.2332C105.271 26.281 102.532 31.3305 99.7952 36.3817C99.5187 36.8943 99.4345 37.5372 99.1268 38.0191C98.8377 38.5742 98.3985 39.0201 97.8684 39.2968C97.6212 39.2187 97.3921 39.085 97.1959 38.9042C96.9998 38.7235 96.8412 38.4999 96.7304 38.2481C95.3898 35.4671 94.1246 32.6437 92.8288 29.8372C92.3591 28.7016 91.7285 27.6525 90.9598 26.7278C90.6873 29.0263 90.3914 31.322 90.1506 33.6244C89.9942 35.1195 89.9166 36.6244 89.8065 38.1251C89.5061 42.2167 89.0525 46.3043 88.9596 50.4015C88.8929 53.3383 89.3104 56.2878 89.5104 59.2316C89.7109 62.1833 89.9634 65.1323 90.0975 68.0875C90.3578 73.8215 90.5583 79.5588 90.7665 85.2955C90.8123 86.5569 91.5997 86.9009 92.5056 87.4065C95.459 89.0547 98.3335 90.8693 101.229 92.6381C101.483 92.7772 101.686 93.005 101.805 93.2846C102.992 97.2384 106.225 98.3022 109.263 99.8977C112.606 101.654 115.196 104.553 114.988 108.927C114.879 111.238 113.858 113.508 113.152 115.761C112.799 116.039 112.365 116.169 111.93 116.125C111.541 116.096 111.156 116.014 110.786 115.881ZM90.2949 18.8813L90.056 18.8047C89.418 20.1929 88.6875 21.5411 88.1598 22.9768C86.6784 27.0079 85.4361 31.1499 83.8142 35.1109C81.2592 41.3511 78.6011 47.5508 75.7456 53.635C72.8147 59.8797 69.6891 66.024 66.4617 72.0955C64.7992 75.2231 62.7176 78.088 60.8479 81.088C58.5999 84.6951 56.3664 88.3129 54.1476 91.9413C53.8501 92.4265 53.6373 92.9727 53.2232 93.8236C54.9008 94.8512 56.6629 95.7075 58.4869 96.3816C64.2238 97.8773 69.9936 99.2654 75.8024 100.378C78.2733 100.731 80.7741 100.764 83.2523 100.478C84.8395 100.366 86.3817 99.501 87.9686 99.3925C90.3721 99.2281 90.4805 99.1381 90.2739 96.5489C89.8705 91.4924 89.5444 86.4289 89.2956 81.3585C88.99 74.9485 88.8168 68.5314 88.5637 62.1184C88.3756 57.3535 88.0233 52.5915 87.9887 47.826C87.9664 44.7554 88.3628 41.6788 88.6151 38.6091C88.8863 35.3095 89.2222 32.0161 89.5042 28.7174C89.7844 25.4404 90.0326 22.1601 90.2949 18.8813ZM111.68 13.3224C110.916 13.7382 110.192 14.2345 109.519 14.804C107.626 16.7713 105.743 18.7594 103.985 20.8657C101.855 23.4167 99.8723 26.1104 97.7822 28.7011C97.6358 28.8656 97.4565 28.9916 97.2581 29.0695C97.0597 29.1474 96.8475 29.1751 96.6377 29.1504C96.4687 29.0321 96.3269 28.8737 96.2231 28.687C96.1192 28.5004 96.0561 28.2905 96.0384 28.0735C95.9818 27.2878 95.9984 26.498 96.0882 25.716C96.4794 21.4394 94.9297 17.7881 92.9953 13.7475C92.4379 16.0936 91.8675 17.9364 91.5965 19.8296C91.342 21.1303 91.3995 22.48 91.7634 23.7499C92.9555 26.9336 94.4248 29.9967 95.8162 33.0907C96.4116 34.4145 97.0857 35.6968 97.8583 37.2717C100.866 31.7169 103.768 26.505 106.526 21.2052C108.121 18.1405 108.015 18.0793 110.974 19.4277C111.208 19.4653 111.445 19.468 111.68 19.4357V13.3224ZM51.5358 95.7264L51.4257 96.5098C52.417 97.3058 53.4843 97.9842 54.6093 98.5335C58.6049 99.9724 62.6533 101.24 66.6848 102.561C68.2621 103.159 69.8698 103.658 71.5 104.056C75.2215 104.781 78.971 105.339 82.7096 105.961C85.3067 106.471 87.9853 106.122 90.3965 104.959C90.6405 104.801 90.845 104.58 90.9921 104.317C91.1392 104.053 91.2245 103.755 91.2404 103.447C90.8053 102.437 90.035 101.641 89.0827 101.218C88.1303 100.795 87.0659 100.775 86.1011 101.164C80.2668 103.878 74.5598 101.662 68.838 100.788C66.2124 100.388 63.6723 99.3687 61.0646 98.7798C58.2638 98.29 55.5835 97.1916 53.1848 95.5506C52.6303 95.4525 52.0619 95.5132 51.5358 95.7264V95.7264Z" fill="#4F5544"/>
</svg>
