<svg width="139" height="139" viewBox="0 0 139 139" fill="none" xmlns="http://www.w3.org/2000/svg">
<path d="M67.8908 78.1455L63.6304 73.0097L63.931 72.6733C65.3203 72.6795 65.6235 74.5176 66.4351 74.7892C64.2095 70.3872 61.8348 65.7878 59.5458 61.1371C56.9235 55.8094 54.4102 50.4167 51.7885 45.0887C49.4241 40.2831 46.9779 35.5263 44.5667 30.7488C41.948 25.5604 39.2406 20.4231 36.7545 15.1585C35.8485 13.24 34.387 11.6345 34.0674 9.35931C33.8304 7.67364 35.4702 4.96991 36.9595 4.79803C37.1477 4.75922 37.3399 4.76053 37.5249 4.80191C37.7099 4.84329 37.8841 4.92391 38.0375 5.03914C38.1909 5.15437 38.3206 5.30195 38.4189 5.47338C38.5172 5.64482 38.5824 5.83675 38.6106 6.03813C39.6066 9.20518 40.5962 12.3874 41.8263 15.4454C43.39 19.3325 45.1471 23.126 46.8936 26.9189C48.6224 30.6732 50.4643 34.3636 52.2147 38.1058C53.881 41.668 55.4093 45.3116 57.1513 48.8273C59.1473 52.8557 61.3241 56.775 63.3983 60.7569C64.5049 62.8813 65.5151 65.0675 66.6559 67.1688C67.4265 68.5881 68.4006 69.8733 69.1903 71.2813C70.1298 72.956 70.9692 74.698 71.8001 76.3103C72.4603 72.4096 73.1322 68.4394 73.804 64.4692L74.2355 64.3682C74.4649 64.8452 74.6295 65.357 74.7244 65.8887C74.8527 68.8861 74.9221 71.8889 74.9932 74.8912C74.9708 75.2187 74.9171 75.5441 74.8332 75.8623L74.4198 75.935C74.3075 75.4781 74.2299 75.0109 74.1876 74.5379C74.1503 72.5946 74.1532 70.6488 74.0035 68.7034C73.0427 71.7802 72.6504 75.0086 72.8492 78.2028C73.6032 77.4731 74.1208 76.9267 74.6831 76.4411C75.2237 75.9741 75.7054 75.973 75.7659 76.8444C75.7567 76.9854 75.7785 77.1256 75.8297 77.2534C75.8808 77.3812 75.9598 77.493 76.0602 77.5798C76.1606 77.6665 76.2795 77.7257 76.4073 77.7525C76.5351 77.7793 76.6681 77.773 76.7954 77.734C81.738 77.5248 85.6539 79.823 89.0548 83.2806C92.0804 86.373 94.7527 89.8425 97.0191 93.6209C99.3316 97.4473 101.821 101.149 104.054 105.028C105.06 106.771 105.814 108.675 106.292 110.677C107.108 114.188 110.132 115.436 112.938 115.328C115.459 115.054 117.882 114.013 119.92 112.327C120.478 111.961 120.891 111.383 121.074 110.713C121.257 110.043 121.195 109.333 120.902 108.729C120.751 108.274 120.617 107.811 120.475 107.351L120.869 107.045C121.256 107.39 121.587 107.802 121.848 108.266C122.561 110.05 122.808 112.025 122.562 113.985C122.351 115.134 121.741 116.168 120.856 116.873C119.359 118.339 117.569 119.407 115.637 119.987C112.423 120.821 109.173 121.571 105.905 120.621C103.907 120.16 101.943 119.567 100.022 118.845C98.5011 118.026 97.0552 117.061 95.7013 115.963C93.4245 114.327 90.959 113.006 88.3603 112.029C86.4345 111.111 84.6645 109.869 83.114 108.35C81.4171 106.945 79.8595 105.347 78.2601 103.81C76.167 101.642 74.5325 99.012 73.4605 96.0874C71.8961 92.7266 71.2393 88.9324 71.5622 85.1214C71.4584 84.555 71.2424 84.0236 70.9286 83.5628C70.0411 81.524 68.4982 79.9169 66.574 79.0272C64.7434 77.9126 62.9858 76.6695 61.3122 75.3057C61.1158 75.0328 60.9812 74.7131 60.9187 74.3707C61.2676 74.3972 61.604 74.5065 61.9036 74.6909C63.5982 76.2733 65.4943 77.5913 67.5396 78.6083L67.8908 78.1455ZM104.151 112.764C104.01 112.329 103.842 111.906 103.648 111.498C102.496 109.503 101.41 107.455 100.139 105.553C98.1214 102.537 96.1134 99.4914 93.8445 96.7025C91.6783 94.1548 89.3889 91.7322 86.9852 89.444C84.3356 86.7456 81.3239 84.4865 78.0432 82.7365C77.7221 82.5047 77.4334 82.2258 77.1849 81.9077L77.3894 81.5578C77.8214 81.664 78.2399 81.8196 78.638 82.0221C79.99 82.8393 81.293 83.7436 82.5401 84.7303C85.2142 87.0046 87.8636 89.321 90.4004 91.7666C92.051 93.3742 93.5878 95.1116 94.9988 96.9653C96.8184 99.3333 98.3759 101.939 100.214 104.288C102.081 106.844 103.661 109.634 104.924 112.601C105.256 113.195 105.68 113.72 106.179 114.156C106.644 114.58 107.131 114.977 107.637 115.344L107.401 115.657C107.153 115.562 106.912 115.451 106.678 115.324C104.2 113.776 101.7 112.265 99.2597 110.654C93.4865 106.87 87.9564 102.685 82.7029 98.1254C81.2987 96.9258 80.0379 95.5461 78.9468 94.0151C76.872 91.0243 74.9968 87.8698 73.039 84.7831L72.6555 84.7984C72.7369 85.0002 72.8066 85.2076 72.8642 85.4194C72.9367 85.7543 72.954 86.1062 73.0376 86.4368C73.9076 89.8808 74.6761 93.3923 76.9651 96.1069C78.5029 98.1133 80.1966 99.9738 82.029 101.67C84.4628 103.709 87.3216 105.167 89.782 107.175C93.6708 110.292 97.9123 112.88 102.415 114.882C106.018 116.679 109.982 117.562 114.013 117.466C115.089 117.409 116.166 116.935 117.237 116.916C117.988 116.997 118.752 116.799 119.403 116.354C120.054 115.909 120.552 115.244 120.815 114.469C120.328 114.225 119.784 114.124 119.239 114.176C118.693 114.229 118.165 114.432 117.705 114.768C115.966 116.008 113.887 116.531 111.865 116.238C110.435 116.231 109.059 115.746 107.927 114.85C106.795 113.954 105.962 112.692 105.545 111.237C104.746 108.62 103.711 106.103 102.452 103.72C100.48 100.172 98.1338 96.8773 96.013 93.4264C93.6262 89.572 90.8063 86.0577 87.6141 82.9591C85.3291 80.6724 82.4326 79.2023 79.2997 78.739C78.3296 78.5979 76.5187 77.5401 76.307 80.0906C76.2652 80.1667 76.2063 80.2307 76.136 80.2764C75.4957 80.9534 74.8501 81.6247 74.2166 82.3088C73.1837 83.4241 73.1528 83.8688 73.9635 85.1277C74.5045 85.9679 75.0167 86.8303 75.5612 87.6677C76.8561 89.9681 78.3159 92.1523 79.928 94.2014C82.3021 96.769 84.8547 99.1387 87.5651 101.292C90.5378 103.711 93.693 105.88 96.8129 108.088C98.7213 109.439 100.713 110.657 102.667 111.935C101.442 110.483 100.145 109.166 98.9014 107.792C97.3201 106.044 95.8261 104.204 94.2161 102.489C91.7922 99.9062 89.3075 97.3895 86.8345 94.8611C85.4542 93.4499 84.1199 91.9715 82.632 90.7006C80.2497 88.6656 77.7528 86.7836 75.3174 84.8184C75.1139 84.5992 74.94 84.3501 74.8005 84.0781L75.1013 83.7728C76.2363 84.6771 77.3977 85.5463 78.5005 86.4934C80.4799 88.1933 82.4579 89.8983 84.3721 91.6805C85.8712 93.0763 87.2712 94.5941 88.7185 96.0539C91.3211 98.6789 93.95 101.274 96.5207 103.935C97.9251 105.389 99.2504 106.933 100.579 108.469C101.739 109.811 102.854 111.2 104.151 112.764L104.151 112.764ZM37.8093 8.21073C37.4004 8.51479 37.1376 8.72567 36.8614 8.91286C35.4764 9.85168 35.3412 10.1073 36.0089 11.6025C37.2687 14.4236 38.5392 17.2433 39.9304 19.9868C41.7757 23.6256 43.7957 27.157 45.639 30.797C47.4636 34.3999 49.1492 38.0879 50.9183 41.7252C54.5297 49.1504 58.1362 56.5785 61.7879 63.9797C62.9621 66.3592 64.2391 68.6795 65.5305 70.9855C66.3933 72.526 67.3804 73.9824 68.282 75.4977C68.8696 76.4852 69.4037 77.5109 69.9618 78.5193L70.3502 78.2795C70.293 78.0008 70.2396 77.721 70.1777 77.4438C69.2033 74.0703 67.8286 70.8601 66.0869 67.8905C63.2022 62.1347 60.0602 56.5358 57.1466 50.797C55.0503 46.6678 53.1457 42.4206 51.1663 38.2199C50.2109 36.1922 49.2693 34.1566 48.3417 32.113C47.1402 29.4514 45.9837 26.7647 44.7739 24.1077C43.3756 21.0366 41.9015 18.0071 40.5345 14.9193C39.5782 12.7591 38.7463 10.5313 37.8093 8.21073L37.8093 8.21073ZM72.2581 86.9435C72.2752 89.5964 72.7743 92.2009 73.7273 94.6107C74.8432 97.7873 76.5735 100.653 78.8071 103.023C80.4699 104.675 82.162 106.304 83.9436 107.804C85.3086 109.171 86.8819 110.279 88.6005 111.083C91.0002 111.902 93.2731 113.072 95.3568 114.562C96.7399 115.761 98.2259 116.818 99.7967 117.721C103.413 119.51 107.444 120.209 111.473 119.747C113.606 119.613 115.699 118.947 117.586 117.803C117.278 117.737 116.956 117.755 116.649 117.856C114.577 118.602 112.379 118.747 110.279 118.279C104.081 117.357 98.7126 114.35 93.5426 110.935C89.9235 108.544 86.4488 105.91 82.8908 103.415C79.4833 100.931 76.6769 97.6214 74.6856 93.7386C73.7115 91.5512 72.8999 89.2794 72.2581 86.9435L72.2581 86.9435ZM35.2553 7.97296L35.6637 8.35388C36.1605 7.92303 36.6281 7.4539 37.0623 6.95043C37.0977 6.63575 37.0547 6.3197 36.9376 6.03497C36.6456 6.06004 36.3615 6.1635 36.1113 6.33584C35.7878 6.85844 35.5016 7.40579 35.2553 7.97296V7.97296ZM70.6888 75.5711L70.3836 75.751L71.53 79.3207L72.0327 79.096L70.6888 75.5711ZM70.427 80.4928L70.6934 80.224C69.7593 79.2533 68.8253 78.2827 67.8912 77.312L67.8327 77.3654L70.427 80.4928V80.4928Z" fill="#B8A98C"/>
<path d="M79.3069 79.7283C79.8695 79.9062 80.4506 80.0378 80.9918 80.2693C85.2671 82.249 89.0145 85.2961 91.9339 89.1666C94.13 91.8792 96.2727 94.6424 98.4263 97.395C98.6343 97.6828 98.7628 98.0293 98.7979 98.397C92.8615 91.552 87.9572 83.493 79.0463 80.3494L79.3069 79.7283Z" fill="#B8A98C"/>
</svg>
