<svg width="41" height="41" viewBox="0 0 41 41" fill="none" xmlns="http://www.w3.org/2000/svg">
<path d="M18.7601 2.26393C19.7458 1.36478 21.2542 1.36478 22.2399 2.26393C23.2224 3.16016 24.6205 3.43827 25.8712 2.98624C27.1259 2.53274 28.5195 3.10999 29.0861 4.3179C29.6508 5.52188 30.8361 6.31387 32.1646 6.37486C33.4973 6.43605 34.564 7.50267 34.6251 8.83545C34.6861 10.1639 35.4781 11.3492 36.6821 11.9139C37.89 12.4805 38.4673 13.8741 38.0138 15.1288C37.5617 16.3795 37.8398 17.7776 38.7361 18.7601C39.6352 19.7458 39.6352 21.2542 38.7361 22.2399C37.8398 23.2224 37.5617 24.6205 38.0138 25.8712C38.4673 27.1259 37.89 28.5195 36.6821 29.0861C35.4781 29.6508 34.6861 30.8361 34.6251 32.1646C34.564 33.4973 33.4973 34.564 32.1646 34.6251C30.8361 34.6861 29.6508 35.4781 29.0861 36.6821C28.5195 37.89 27.1259 38.4673 25.8712 38.0138C24.6205 37.5617 23.2224 37.8398 22.2399 38.7361C21.2542 39.6352 19.7458 39.6352 18.7601 38.7361C17.7776 37.8398 16.3795 37.5617 15.1288 38.0138C13.8741 38.4673 12.4805 37.89 11.9139 36.6821C11.3492 35.4781 10.1639 34.6861 8.83545 34.6251C7.50267 34.564 6.43605 33.4973 6.37486 32.1646C6.31387 30.8361 5.52188 29.6508 4.3179 29.0861C3.10999 28.5195 2.53274 27.1259 2.98624 25.8712C3.43827 24.6205 3.16016 23.2224 2.26393 22.2399C1.36478 21.2542 1.36478 19.7458 2.26393 18.7601C3.16016 17.7776 3.43827 16.3795 2.98624 15.1288C2.53274 13.8741 3.10999 12.4805 4.3179 11.9139C5.52188 11.3492 6.31387 10.1639 6.37486 8.83545C6.43605 7.50267 7.50267 6.43605 8.83545 6.37486C10.1639 6.31387 11.3492 5.52188 11.9139 4.3179C12.4805 3.10999 13.8741 2.53274 15.1288 2.98624C16.3795 3.43827 17.7776 3.16016 18.7601 2.26393Z" stroke="#CBA864"/>
<path d="M11.5457 18.027C11.5217 18.027 11.4977 18.018 11.4737 18C11.4497 17.988 11.4377 17.97 11.4377 17.946C11.4377 17.904 11.4557 17.871 11.4917 17.847C11.5277 17.823 11.5667 17.808 11.6087 17.802C11.9087 17.742 12.1727 17.664 12.4007 17.568C12.6347 17.466 12.7877 17.301 12.8597 17.073L13.9037 13.707C13.9697 13.497 13.9367 13.356 13.8047 13.284C13.6727 13.206 13.4867 13.149 13.2467 13.113C13.2167 13.107 13.1867 13.095 13.1567 13.077C13.1267 13.053 13.1117 13.026 13.1117 12.996C13.1117 12.948 13.1357 12.912 13.1837 12.888C13.2317 12.858 13.2767 12.84 13.3187 12.834C13.4867 12.816 13.6607 12.777 13.8407 12.717C14.0267 12.657 14.2067 12.588 14.3807 12.51C14.5547 12.432 14.7047 12.363 14.8307 12.303C14.8487 12.291 14.8667 12.282 14.8847 12.276C14.9087 12.27 14.9297 12.267 14.9477 12.267C14.9717 12.267 14.9927 12.276 15.0107 12.294C15.0287 12.306 15.0317 12.324 15.0197 12.348C14.9777 12.438 14.9387 12.537 14.9027 12.645C14.8667 12.747 14.8277 12.861 14.7857 12.987L13.4807 17.226C13.4387 17.37 13.4477 17.475 13.5077 17.541C13.5737 17.607 13.6727 17.655 13.8047 17.685C13.9427 17.715 14.0957 17.754 14.2637 17.802C14.2937 17.808 14.3207 17.823 14.3447 17.847C14.3687 17.871 14.3747 17.898 14.3627 17.928C14.3567 17.952 14.3387 17.976 14.3087 18C14.2787 18.018 14.2487 18.027 14.2187 18.027C14.0627 18.027 13.9097 18.021 13.7597 18.009C13.6157 18.003 13.4747 17.997 13.3367 17.991C13.1987 17.985 13.0607 17.982 12.9227 17.982C12.7727 17.982 12.6197 17.985 12.4637 17.991C12.3077 17.997 12.1517 18.003 11.9957 18.009C11.8457 18.021 11.6957 18.027 11.5457 18.027ZM17.3729 18.126C17.0909 18.126 16.8689 18.042 16.7069 17.874C16.5509 17.706 16.4459 17.484 16.3919 17.208C16.3439 16.926 16.3349 16.617 16.3649 16.281C16.4009 15.945 16.4699 15.612 16.5719 15.282C16.6739 14.94 16.8119 14.595 16.9859 14.247C17.1599 13.899 17.3609 13.581 17.5889 13.293C17.8169 13.005 18.0689 12.774 18.3449 12.6C18.6209 12.42 18.9149 12.33 19.2269 12.33C19.5089 12.33 19.7279 12.414 19.8839 12.582C20.0459 12.75 20.1539 12.975 20.2079 13.257C20.2619 13.533 20.2709 13.839 20.2349 14.175C20.2049 14.505 20.1389 14.832 20.0369 15.156C19.9349 15.492 19.7969 15.834 19.6229 16.182C19.4489 16.53 19.2449 16.851 19.0109 17.145C18.7829 17.439 18.5309 17.676 18.2549 17.856C17.9789 18.036 17.6849 18.126 17.3729 18.126ZM17.4269 17.892C17.5949 17.892 17.7659 17.823 17.9399 17.685C18.1199 17.541 18.2939 17.349 18.4619 17.109C18.6299 16.869 18.7859 16.596 18.9299 16.29C19.0799 15.978 19.2059 15.654 19.3079 15.318C19.4099 14.988 19.4879 14.661 19.5419 14.337C19.5959 14.013 19.6199 13.719 19.6139 13.455C19.6079 13.185 19.5659 12.972 19.4879 12.816C19.4099 12.654 19.2839 12.573 19.1099 12.573C18.8879 12.573 18.6659 12.693 18.4439 12.933C18.2219 13.167 18.0119 13.479 17.8139 13.869C17.6219 14.253 17.4569 14.67 17.3189 15.12C17.2229 15.444 17.1419 15.771 17.0759 16.101C17.0159 16.425 16.9829 16.722 16.9769 16.992C16.9709 17.262 17.0009 17.481 17.0669 17.649C17.1389 17.811 17.2589 17.892 17.4269 17.892ZM21.9311 18.126C21.6491 18.126 21.4271 18.042 21.2651 17.874C21.1091 17.706 21.0041 17.484 20.9501 17.208C20.9021 16.926 20.8931 16.617 20.9231 16.281C20.9591 15.945 21.0281 15.612 21.1301 15.282C21.2321 14.94 21.3701 14.595 21.5441 14.247C21.7181 13.899 21.9191 13.581 22.1471 13.293C22.3751 13.005 22.6271 12.774 22.9031 12.6C23.1791 12.42 23.4731 12.33 23.7851 12.33C24.0671 12.33 24.2861 12.414 24.4421 12.582C24.6041 12.75 24.7121 12.975 24.7661 13.257C24.8201 13.533 24.8291 13.839 24.7931 14.175C24.7631 14.505 24.6971 14.832 24.5951 15.156C24.4931 15.492 24.3551 15.834 24.1811 16.182C24.0071 16.53 23.8031 16.851 23.5691 17.145C23.3411 17.439 23.0891 17.676 22.8131 17.856C22.5371 18.036 22.2431 18.126 21.9311 18.126ZM21.9851 17.892C22.1531 17.892 22.3241 17.823 22.4981 17.685C22.6781 17.541 22.8521 17.349 23.0201 17.109C23.1881 16.869 23.3441 16.596 23.4881 16.29C23.6381 15.978 23.7641 15.654 23.8661 15.318C23.9681 14.988 24.0461 14.661 24.1001 14.337C24.1541 14.013 24.1781 13.719 24.1721 13.455C24.1661 13.185 24.1241 12.972 24.0461 12.816C23.9681 12.654 23.8421 12.573 23.6681 12.573C23.4461 12.573 23.2241 12.693 23.0021 12.933C22.7801 13.167 22.5701 13.479 22.3721 13.869C22.1801 14.253 22.0151 14.67 21.8771 15.12C21.7811 15.444 21.7001 15.771 21.6341 16.101C21.5741 16.425 21.5411 16.722 21.5351 16.992C21.5291 17.262 21.5591 17.481 21.6251 17.649C21.6971 17.811 21.8171 17.892 21.9851 17.892ZM26.3183 15.633C26.0843 15.633 25.9013 15.555 25.7693 15.399C25.6433 15.237 25.5713 15.027 25.5533 14.769C25.5353 14.511 25.5683 14.241 25.6523 13.959C25.7243 13.725 25.8383 13.494 25.9943 13.266C26.1563 13.032 26.3453 12.84 26.5613 12.69C26.7833 12.54 27.0173 12.465 27.2633 12.465C27.4913 12.465 27.6623 12.54 27.7763 12.69C27.8963 12.84 27.9653 13.035 27.9833 13.275C28.0013 13.515 27.9683 13.773 27.8843 14.049C27.8123 14.295 27.7013 14.541 27.5513 14.787C27.4013 15.027 27.2213 15.228 27.0113 15.39C26.8073 15.552 26.5763 15.633 26.3183 15.633ZM26.3633 15.435C26.5493 15.435 26.7053 15.363 26.8313 15.219C26.9633 15.075 27.0713 14.898 27.1553 14.688C27.2453 14.472 27.3203 14.265 27.3803 14.067C27.4283 13.917 27.4673 13.761 27.4973 13.599C27.5333 13.437 27.5513 13.287 27.5513 13.149C27.5513 13.011 27.5213 12.9 27.4613 12.816C27.4013 12.732 27.3023 12.69 27.1643 12.69C26.9903 12.69 26.8373 12.759 26.7053 12.897C26.5793 13.029 26.4713 13.194 26.3813 13.392C26.2913 13.584 26.2163 13.773 26.1563 13.959C26.1083 14.121 26.0633 14.289 26.0213 14.463C25.9853 14.631 25.9643 14.79 25.9583 14.94C25.9583 15.084 25.9883 15.204 26.0483 15.3C26.1083 15.39 26.2133 15.435 26.3633 15.435ZM25.2473 18.261C25.2113 18.261 25.1783 18.246 25.1483 18.216C25.1243 18.186 25.1243 18.156 25.1483 18.126L30.6023 12.114C30.6623 12.048 30.7163 12.006 30.7643 11.988C30.8183 11.97 30.8753 11.961 30.9353 11.961C31.0013 11.961 31.0433 11.979 31.0613 12.015C31.0793 12.051 31.0733 12.084 31.0433 12.114L25.5893 18.126C25.5413 18.186 25.4873 18.222 25.4273 18.234C25.3733 18.252 25.3133 18.261 25.2473 18.261ZM28.8023 18.153C28.5683 18.153 28.3853 18.075 28.2533 17.919C28.1273 17.757 28.0553 17.547 28.0373 17.289C28.0193 17.031 28.0523 16.761 28.1363 16.479C28.2083 16.245 28.3223 16.014 28.4783 15.786C28.6403 15.552 28.8293 15.36 29.0453 15.21C29.2673 15.06 29.5013 14.985 29.7473 14.985C29.9753 14.985 30.1463 15.06 30.2603 15.21C30.3803 15.36 30.4493 15.555 30.4673 15.795C30.4853 16.035 30.4523 16.293 30.3683 16.569C30.2963 16.815 30.1853 17.061 30.0353 17.307C29.8853 17.547 29.7053 17.748 29.4953 17.91C29.2913 18.072 29.0603 18.153 28.8023 18.153ZM28.8473 17.955C29.0333 17.955 29.1893 17.883 29.3153 17.739C29.4473 17.595 29.5553 17.418 29.6393 17.208C29.7293 16.992 29.8043 16.785 29.8643 16.587C29.9123 16.437 29.9513 16.281 29.9813 16.119C30.0173 15.957 30.0353 15.807 30.0353 15.669C30.0353 15.531 30.0053 15.42 29.9453 15.336C29.8853 15.252 29.7863 15.21 29.6483 15.21C29.4743 15.21 29.3213 15.279 29.1893 15.417C29.0633 15.549 28.9553 15.714 28.8653 15.912C28.7753 16.104 28.7003 16.293 28.6403 16.479C28.5923 16.641 28.5473 16.809 28.5053 16.983C28.4693 17.151 28.4483 17.31 28.4423 17.46C28.4423 17.604 28.4723 17.724 28.5323 17.82C28.5923 17.91 28.6973 17.955 28.8473 17.955ZM9.27451 26.126C8.80651 26.126 8.42251 26.021 8.12251 25.811C7.82851 25.595 7.60951 25.313 7.46551 24.965C7.32151 24.611 7.24951 24.227 7.24951 23.813C7.24951 23.381 7.32451 22.943 7.47451 22.499C7.63051 22.055 7.85851 21.647 8.15851 21.275C8.45851 20.897 8.82451 20.594 9.25651 20.366C9.69451 20.138 10.1955 20.024 10.7595 20.024C11.2275 20.024 11.6115 20.132 11.9115 20.348C12.2115 20.558 12.4305 20.84 12.5685 21.194C12.7125 21.542 12.7845 21.923 12.7845 22.337C12.7845 22.769 12.7065 23.207 12.5505 23.651C12.4005 24.095 12.1755 24.506 11.8755 24.884C11.5755 25.256 11.2065 25.556 10.7685 25.784C10.3365 26.012 9.83851 26.126 9.27451 26.126ZM9.30151 25.847C9.62551 25.847 9.92551 25.772 10.2015 25.622C10.4835 25.466 10.7355 25.259 10.9575 25.001C11.1855 24.737 11.3775 24.44 11.5335 24.11C11.6895 23.774 11.8095 23.426 11.8935 23.066C11.9775 22.7 12.0195 22.343 12.0195 21.995C12.0195 21.713 11.9745 21.44 11.8845 21.176C11.8005 20.912 11.6625 20.696 11.4705 20.528C11.2845 20.36 11.0385 20.276 10.7325 20.276C10.4205 20.276 10.1265 20.354 9.85051 20.51C9.57451 20.666 9.32551 20.876 9.10351 21.14C8.88151 21.404 8.68651 21.704 8.51851 22.04C8.35651 22.37 8.23051 22.718 8.14051 23.084C8.05651 23.45 8.01451 23.807 8.01451 24.155C8.01451 24.437 8.05651 24.707 8.14051 24.965C8.23051 25.223 8.36851 25.436 8.55451 25.604C8.74651 25.766 8.99551 25.847 9.30151 25.847ZM13.5705 26.153C13.5405 26.153 13.5075 26.141 13.4715 26.117C13.4355 26.099 13.4055 26.072 13.3815 26.036C13.3575 26.006 13.3455 25.973 13.3455 25.937C13.3455 25.865 13.3635 25.775 13.3995 25.667C13.4415 25.553 13.4925 25.412 13.5525 25.244L14.3805 23.084C14.4105 23.006 14.4225 22.934 14.4165 22.868C14.4165 22.802 14.3865 22.769 14.3265 22.769C14.2425 22.769 14.1585 22.781 14.0745 22.805C13.9965 22.823 13.9365 22.844 13.8945 22.868C13.8585 22.892 13.8225 22.898 13.7865 22.886C13.7565 22.868 13.7415 22.838 13.7415 22.796C13.7415 22.748 13.7625 22.694 13.8045 22.634C13.8525 22.574 13.9155 22.517 13.9935 22.463C14.0655 22.409 14.1495 22.364 14.2455 22.328C14.3475 22.292 14.4525 22.274 14.5605 22.274C14.7285 22.274 14.8335 22.316 14.8755 22.4C14.9235 22.484 14.9295 22.598 14.8935 22.742C14.8635 22.88 14.8125 23.039 14.7405 23.219L14.3355 24.236C14.3115 24.278 14.3175 24.305 14.3535 24.317C14.3955 24.329 14.4255 24.32 14.4435 24.29C14.6835 23.876 14.9235 23.516 15.1635 23.21C15.4095 22.898 15.6375 22.658 15.8475 22.49C16.0575 22.316 16.2315 22.229 16.3695 22.229C16.5255 22.229 16.6335 22.274 16.6935 22.364C16.7595 22.454 16.7925 22.559 16.7925 22.679C16.7925 22.787 16.7715 22.898 16.7295 23.012C16.6935 23.126 16.6395 23.222 16.5675 23.3C16.5015 23.372 16.4265 23.408 16.3425 23.408C16.2945 23.408 16.2585 23.381 16.2345 23.327C16.2105 23.267 16.1985 23.189 16.1985 23.093C16.1985 23.003 16.1865 22.934 16.1625 22.886C16.1385 22.832 16.0935 22.805 16.0275 22.805C15.9675 22.805 15.8865 22.844 15.7845 22.922C15.6885 23 15.5655 23.135 15.4155 23.327C15.3495 23.417 15.2625 23.54 15.1545 23.696C15.0465 23.852 14.9295 24.026 14.8035 24.218C14.6835 24.404 14.5635 24.596 14.4435 24.794C14.3235 24.986 14.2185 25.163 14.1285 25.325C13.9665 25.613 13.8495 25.823 13.7775 25.955C13.7115 26.087 13.6425 26.153 13.5705 26.153ZM17.6917 28.61C17.3437 28.61 17.0257 28.568 16.7377 28.484C16.4557 28.406 16.2307 28.292 16.0627 28.142C15.8947 27.998 15.8107 27.824 15.8107 27.62C15.8107 27.482 15.9037 27.35 16.0897 27.224C16.2757 27.104 16.5067 26.99 16.7827 26.882C17.0587 26.774 17.3317 26.675 17.6017 26.585C17.6497 26.567 17.6557 26.54 17.6197 26.504C17.4877 26.39 17.3827 26.291 17.3047 26.207C17.2267 26.129 17.1877 26.042 17.1877 25.946C17.1877 25.862 17.2297 25.775 17.3137 25.685C17.4037 25.589 17.5117 25.493 17.6377 25.397C17.6677 25.367 17.6857 25.343 17.6917 25.325C17.7037 25.307 17.7097 25.295 17.7097 25.289C17.7097 25.271 17.6857 25.253 17.6377 25.235C17.5177 25.175 17.4217 25.106 17.3497 25.028C17.2837 24.95 17.2357 24.86 17.2057 24.758C17.1817 24.65 17.1697 24.53 17.1697 24.398C17.1697 24.194 17.2147 23.972 17.3047 23.732C17.3947 23.486 17.5177 23.252 17.6737 23.03C17.8297 22.808 18.0127 22.628 18.2227 22.49C18.4327 22.346 18.6577 22.274 18.8977 22.274C19.0237 22.274 19.1137 22.289 19.1677 22.319C19.2277 22.343 19.2757 22.364 19.3117 22.382C19.3537 22.406 19.3957 22.43 19.4377 22.454C19.4797 22.472 19.5217 22.481 19.5637 22.481C19.6297 22.481 19.7167 22.472 19.8247 22.454C19.9327 22.43 20.0437 22.409 20.1577 22.391C20.2717 22.373 20.3677 22.364 20.4457 22.364C20.4817 22.364 20.5237 22.382 20.5717 22.418C20.6197 22.448 20.6437 22.499 20.6437 22.571C20.6437 22.685 20.6257 22.766 20.5897 22.814C20.5537 22.862 20.5177 22.886 20.4817 22.886C20.4277 22.886 20.3527 22.877 20.2567 22.859C20.1607 22.841 20.0677 22.823 19.9777 22.805C19.8937 22.787 19.8277 22.778 19.7797 22.778C19.7497 22.778 19.7197 22.787 19.6897 22.805C19.6657 22.823 19.6597 22.856 19.6717 22.904C19.6837 22.952 19.6927 23.003 19.6987 23.057C19.7047 23.111 19.7077 23.168 19.7077 23.228C19.7077 23.462 19.6597 23.702 19.5637 23.948C19.4737 24.188 19.3507 24.413 19.1947 24.623C19.0387 24.827 18.8617 24.992 18.6637 25.118C18.4717 25.244 18.2767 25.307 18.0787 25.307C18.0367 25.307 17.9977 25.319 17.9617 25.343C17.9317 25.361 17.9047 25.385 17.8807 25.415C17.8147 25.499 17.7817 25.586 17.7817 25.676C17.7817 25.784 17.8087 25.874 17.8627 25.946C17.9227 26.018 18.0277 26.105 18.1777 26.207C18.2797 26.273 18.3997 26.351 18.5377 26.441C18.6817 26.537 18.8227 26.627 18.9607 26.711C19.0987 26.801 19.2097 26.879 19.2937 26.945C19.4257 27.041 19.5157 27.128 19.5637 27.206C19.6177 27.29 19.6447 27.377 19.6447 27.467C19.6447 27.623 19.5817 27.77 19.4557 27.908C19.3357 28.046 19.1767 28.166 18.9787 28.268C18.7807 28.376 18.5677 28.46 18.3397 28.52C18.1177 28.58 17.9017 28.61 17.6917 28.61ZM17.9617 28.34C18.2017 28.34 18.3967 28.31 18.5467 28.25C18.6967 28.19 18.8077 28.112 18.8797 28.016C18.9517 27.926 18.9877 27.827 18.9877 27.719C18.9877 27.629 18.9607 27.533 18.9067 27.431C18.8527 27.335 18.7567 27.248 18.6187 27.17C18.5707 27.134 18.4867 27.077 18.3667 26.999C18.2527 26.921 18.1627 26.867 18.0967 26.837C17.9887 26.777 17.9047 26.747 17.8447 26.747C17.8087 26.747 17.7697 26.75 17.7277 26.756C17.6917 26.762 17.6557 26.771 17.6197 26.783C17.2597 26.897 16.9717 27.02 16.7557 27.152C16.5397 27.29 16.4317 27.452 16.4317 27.638C16.4317 27.77 16.5097 27.887 16.6657 27.989C16.8157 28.097 17.0077 28.181 17.2417 28.241C17.4757 28.307 17.7157 28.34 17.9617 28.34ZM18.0517 25.091C18.1597 25.091 18.2677 25.037 18.3757 24.929C18.4897 24.821 18.5977 24.68 18.6997 24.506C18.8017 24.332 18.8917 24.149 18.9697 23.957C19.0537 23.759 19.1197 23.57 19.1677 23.39C19.2157 23.21 19.2397 23.063 19.2397 22.949C19.2397 22.859 19.2097 22.766 19.1497 22.67C19.0897 22.574 19.0147 22.526 18.9247 22.526C18.8107 22.526 18.6967 22.574 18.5827 22.67C18.4687 22.766 18.3577 22.895 18.2497 23.057C18.1477 23.213 18.0547 23.387 17.9707 23.579C17.8867 23.765 17.8177 23.954 17.7637 24.146C17.7157 24.332 17.6887 24.503 17.6827 24.659C17.6827 24.773 17.7187 24.875 17.7907 24.965C17.8687 25.049 17.9557 25.091 18.0517 25.091ZM20.8733 26.126C20.8013 26.126 20.7293 26.105 20.6573 26.063C20.5853 26.027 20.5253 25.979 20.4773 25.919C20.4353 25.859 20.4143 25.796 20.4143 25.73C20.4143 25.514 20.4863 25.265 20.6303 24.983C20.7743 24.695 20.9753 24.395 21.2333 24.083C21.4913 23.765 21.7883 23.459 22.1243 23.165C22.4483 22.883 22.7123 22.673 22.9163 22.535C23.1203 22.391 23.2703 22.319 23.3663 22.319C23.4623 22.319 23.5463 22.361 23.6183 22.445C23.7023 22.553 23.7383 22.604 23.7263 22.598C23.7203 22.586 23.7203 22.58 23.7263 22.58C23.7383 22.58 23.7473 22.577 23.7533 22.571C23.7653 22.559 23.7743 22.544 23.7803 22.526C23.8643 22.382 23.9153 22.295 23.9333 22.265C23.9513 22.235 23.9513 22.232 23.9333 22.256C23.9693 22.196 24.0053 22.166 24.0413 22.166C24.0953 22.166 24.1493 22.175 24.2033 22.193C24.2573 22.211 24.2993 22.235 24.3293 22.265C24.3653 22.295 24.3833 22.325 24.3833 22.355C24.3833 22.385 24.3623 22.46 24.3203 22.58L23.3123 25.253C23.2343 25.457 23.2733 25.559 23.4293 25.559C23.5373 25.559 23.6663 25.508 23.8163 25.406C23.9723 25.298 24.1073 25.169 24.2213 25.019C24.2333 25.007 24.2453 24.998 24.2573 24.992C24.2753 24.98 24.2903 24.974 24.3023 24.974C24.3263 24.974 24.3413 24.983 24.3473 25.001C24.3593 25.013 24.3653 25.037 24.3653 25.073C24.3653 25.115 24.3233 25.199 24.2393 25.325C24.1553 25.445 24.0683 25.55 23.9783 25.64C23.8103 25.796 23.6393 25.916 23.4653 26C23.2973 26.084 23.1413 26.126 22.9973 26.126C22.9373 26.126 22.8773 26.108 22.8173 26.072C22.7573 26.036 22.7063 25.991 22.6643 25.937C22.6283 25.883 22.6103 25.829 22.6103 25.775C22.6103 25.709 22.6283 25.64 22.6643 25.568C22.6403 25.622 22.6373 25.622 22.6553 25.568C22.6793 25.514 22.7153 25.43 22.7633 25.316C22.8173 25.202 22.8743 25.082 22.9343 24.956C22.9943 24.83 23.0453 24.719 23.0873 24.623C23.1173 24.557 23.1293 24.509 23.1233 24.479C23.1233 24.443 23.1053 24.446 23.0693 24.488C22.7033 24.896 22.3883 25.22 22.1243 25.46C21.8663 25.7 21.6383 25.871 21.4403 25.973C21.2423 26.075 21.0533 26.126 20.8733 26.126ZM21.3773 25.559C21.5093 25.559 21.7043 25.451 21.9623 25.235C22.2263 25.013 22.5233 24.707 22.8533 24.317C23.0813 24.053 23.2613 23.81 23.3933 23.588C23.5253 23.366 23.5913 23.201 23.5913 23.093C23.5913 23.045 23.5523 22.988 23.4743 22.922C23.4383 22.892 23.3993 22.868 23.3573 22.85C23.3153 22.832 23.2793 22.823 23.2493 22.823C23.1413 22.823 22.9913 22.877 22.7993 22.985C22.6133 23.093 22.4423 23.222 22.2863 23.372C22.0883 23.564 21.8993 23.78 21.7193 24.02C21.5393 24.26 21.3923 24.491 21.2783 24.713C21.1703 24.935 21.1163 25.115 21.1163 25.253C21.1163 25.343 21.1403 25.418 21.1883 25.478C21.2363 25.532 21.2993 25.559 21.3773 25.559ZM25.5144 26.144C25.4784 26.144 25.4424 26.129 25.4064 26.099C25.3764 26.075 25.3494 26.042 25.3254 26C25.3014 25.964 25.2834 25.922 25.2714 25.874C25.2654 25.826 25.2714 25.784 25.2894 25.748L26.3334 23.192C26.4414 22.928 26.4474 22.796 26.3514 22.796C26.2914 22.796 26.2284 22.805 26.1624 22.823C26.0964 22.835 26.0244 22.871 25.9464 22.931C25.8684 22.991 25.7814 23.084 25.6854 23.21C25.6614 23.234 25.6344 23.246 25.6044 23.246C25.5804 23.24 25.5624 23.216 25.5504 23.174C25.5504 23.138 25.5594 23.093 25.5774 23.039C25.6014 22.979 25.6284 22.922 25.6584 22.868C25.6884 22.808 25.7154 22.76 25.7394 22.724C25.8294 22.586 25.9494 22.478 26.0994 22.4C26.2554 22.322 26.4354 22.28 26.6394 22.274C26.7054 22.274 26.7654 22.292 26.8194 22.328C26.8734 22.358 26.9124 22.403 26.9364 22.463C26.9664 22.523 26.9664 22.589 26.9364 22.661L26.3424 24.191C26.3244 24.233 26.3274 24.257 26.3514 24.263C26.3814 24.269 26.4054 24.257 26.4234 24.227C26.6694 23.807 26.9184 23.453 27.1704 23.165C27.4284 22.871 27.6744 22.649 27.9084 22.499C28.1424 22.349 28.3494 22.274 28.5294 22.274C28.6554 22.274 28.7634 22.319 28.8534 22.409C28.9494 22.493 29.0094 22.61 29.0334 22.76C29.0634 22.904 29.0364 23.072 28.9524 23.264L28.1244 25.226C28.0344 25.442 28.0494 25.55 28.1694 25.55C28.2414 25.55 28.3284 25.523 28.4304 25.469C28.5384 25.415 28.6464 25.352 28.7544 25.28C28.8624 25.202 28.9554 25.133 29.0334 25.073C29.1174 25.007 29.1714 24.962 29.1954 24.938C29.2014 24.932 29.2044 24.929 29.2044 24.929C29.2104 24.929 29.2164 24.929 29.2224 24.929C29.2404 24.929 29.2554 24.938 29.2674 24.956C29.2854 24.968 29.2944 24.986 29.2944 25.01C29.2944 25.058 29.2824 25.1 29.2584 25.136C29.1024 25.322 28.9344 25.49 28.7544 25.64C28.5804 25.79 28.3974 25.91 28.2054 26C28.0194 26.084 27.8304 26.126 27.6384 26.126C27.5844 26.126 27.5304 26.105 27.4764 26.063C27.4224 26.027 27.3804 25.979 27.3504 25.919C27.3264 25.859 27.3294 25.796 27.3594 25.73C27.5334 25.328 27.7074 24.929 27.8814 24.533C28.0614 24.131 28.2294 23.729 28.3854 23.327C28.4814 23.081 28.5144 22.91 28.4844 22.814C28.4544 22.712 28.3974 22.658 28.3134 22.652C28.2474 22.646 28.1694 22.67 28.0794 22.724C27.9894 22.772 27.8874 22.85 27.7734 22.958C27.6594 23.06 27.5364 23.192 27.4044 23.354C27.3324 23.438 27.2364 23.57 27.1164 23.75C26.9964 23.924 26.8614 24.128 26.7114 24.362C26.5614 24.59 26.4054 24.836 26.2434 25.1C26.0874 25.358 25.9374 25.613 25.7934 25.865C25.7394 25.961 25.6914 26.03 25.6494 26.072C25.6074 26.12 25.5624 26.144 25.5144 26.144ZM30.5215 26.126C30.4195 26.126 30.3355 26.093 30.2695 26.027C30.2035 25.961 30.1705 25.892 30.1705 25.82C30.1705 25.796 30.1705 25.772 30.1705 25.748C30.1765 25.724 30.1855 25.7 30.1975 25.676C30.4435 25.178 30.6505 24.71 30.8185 24.272C30.9865 23.828 31.1365 23.441 31.2685 23.111C31.2925 23.039 31.2775 23.003 31.2235 23.003C31.1935 23.003 31.1335 23.021 31.0435 23.057C30.9595 23.087 30.8695 23.129 30.7735 23.183C30.6775 23.237 30.5935 23.291 30.5215 23.345C30.4915 23.369 30.4615 23.375 30.4315 23.363C30.4015 23.351 30.3865 23.33 30.3865 23.3C30.3865 23.27 30.4075 23.228 30.4495 23.174C30.4975 23.114 30.5605 23.048 30.6385 22.976C30.7225 22.904 30.8215 22.829 30.9355 22.751C31.0495 22.667 31.1725 22.586 31.3045 22.508C31.4425 22.424 31.5865 22.349 31.7365 22.283C31.7905 22.259 31.8445 22.265 31.8985 22.301C31.9525 22.337 31.9945 22.382 32.0245 22.436C32.0605 22.49 32.0725 22.532 32.0605 22.562L30.9625 25.163C30.9385 25.211 30.9205 25.259 30.9085 25.307C30.9025 25.349 30.8995 25.388 30.8995 25.424C30.8995 25.466 30.9145 25.496 30.9445 25.514C30.9805 25.526 31.0135 25.532 31.0435 25.532C31.1275 25.532 31.2235 25.493 31.3315 25.415C31.4395 25.331 31.5535 25.232 31.6735 25.118C31.7995 24.998 31.9195 24.881 32.0335 24.767C32.0455 24.755 32.0575 24.749 32.0695 24.749C32.0815 24.749 32.0935 24.755 32.1055 24.767C32.1175 24.773 32.1235 24.782 32.1235 24.794C32.1235 24.89 32.0665 25.013 31.9525 25.163C31.8385 25.307 31.6945 25.454 31.5205 25.604C31.3525 25.748 31.1785 25.871 30.9985 25.973C30.8185 26.075 30.6595 26.126 30.5215 26.126ZM32.3395 21.383C32.2495 21.383 32.1745 21.347 32.1145 21.275C32.0545 21.203 32.0245 21.122 32.0245 21.032C32.0245 20.888 32.0725 20.762 32.1685 20.654C32.2645 20.54 32.3845 20.483 32.5285 20.483C32.6245 20.483 32.6995 20.525 32.7535 20.609C32.8075 20.687 32.8345 20.774 32.8345 20.87C32.8345 21.002 32.7865 21.122 32.6905 21.23C32.5945 21.332 32.4775 21.383 32.3395 21.383ZM33.5222 26.135C33.4142 26.135 33.3002 26.093 33.1802 26.009C33.0662 25.931 32.9672 25.823 32.8832 25.685C32.8052 25.541 32.7662 25.376 32.7662 25.19C32.7722 24.974 32.8082 24.737 32.8742 24.479C32.9402 24.215 33.0362 23.954 33.1622 23.696C33.2882 23.438 33.4442 23.201 33.6302 22.985C33.8222 22.769 34.0412 22.598 34.2872 22.472C34.5332 22.34 34.8092 22.274 35.1152 22.274C35.2772 22.274 35.4002 22.304 35.4842 22.364C35.5682 22.418 35.6102 22.484 35.6102 22.562C35.6102 22.658 35.5802 22.757 35.5202 22.859C35.4662 22.955 35.4062 23.003 35.3402 23.003C35.2922 23.003 35.2502 22.982 35.2142 22.94C35.1842 22.898 35.1542 22.847 35.1242 22.787C35.0882 22.721 35.0432 22.661 34.9892 22.607C34.9352 22.547 34.8572 22.517 34.7552 22.517C34.6112 22.517 34.4612 22.604 34.3052 22.778C34.1492 22.952 34.0022 23.174 33.8642 23.444C33.7322 23.714 33.6242 23.999 33.5402 24.299C33.4562 24.599 33.4142 24.872 33.4142 25.118C33.4142 25.316 33.4532 25.451 33.5312 25.523C33.6092 25.595 33.7142 25.631 33.8462 25.631C34.0382 25.631 34.1912 25.595 34.3052 25.523C34.4192 25.445 34.5332 25.352 34.6472 25.244C34.6892 25.202 34.7192 25.172 34.7372 25.154C34.7612 25.136 34.7912 25.127 34.8272 25.127C34.8752 25.127 34.8992 25.166 34.8992 25.244C34.8992 25.292 34.8602 25.364 34.7822 25.46C34.7102 25.556 34.6082 25.658 34.4762 25.766C34.3502 25.868 34.2032 25.955 34.0352 26.027C33.8732 26.099 33.7022 26.135 33.5222 26.135Z" fill="#CBA864"/>
</svg>
