<svg width="30" height="31" viewBox="0 0 30 31" fill="none" xmlns="http://www.w3.org/2000/svg">
<path d="M14.9988 25.4132C9.35883 25.4132 4.79883 20.8532 4.79883 15.2132C4.79883 9.57318 9.35883 5.01318 14.9988 5.01318C20.6388 5.01318 25.1988 9.57318 25.1988 15.2132C25.1988 20.8532 20.6388 25.4132 14.9988 25.4132ZM14.9988 6.21318C10.0188 6.21318 5.99883 10.2332 5.99883 15.2132C5.99883 20.1932 10.0188 24.2132 14.9988 24.2132C19.9788 24.2132 23.9988 20.1932 23.9988 15.2132C23.9988 10.2332 19.9788 6.21318 14.9988 6.21318Z" fill="#99A287"/>
<path d="M9.60156 14.614H20.4016V15.814H9.60156V14.614Z" fill="#99A287"/>
<path d="M14.4004 9.81396H15.6004V20.614H14.4004V9.81396Z" fill="#99A287"/>
</svg>
