<svg width="146" height="130" viewBox="0 0 146 130" fill="none" xmlns="http://www.w3.org/2000/svg">
<path d="M67.8671 25.2713C73.7263 25.2533 81.7147 25.2279 89.7031 25.2046C92.9507 25.1951 96.1988 25.1566 99.4458 25.1943C101.731 25.2209 101.776 25.3446 101.661 27.3706C101.548 29.354 101.519 31.341 101.443 33.3262C101.3 37.0775 101.074 40.8278 101.024 44.5801C100.979 47.9122 101.15 51.2462 101.179 54.5797C101.201 56.947 101.138 59.3148 101.127 61.6824C101.082 71.332 101.022 80.9817 101.013 90.6314C101.01 94.084 101.126 97.5369 101.207 100.989C101.226 101.596 101.29 102.2 101.397 102.799C101.685 104.484 100.771 105.577 98.9981 105.175C95.5878 104.401 92.1311 104.715 88.7044 104.518C85.2046 104.317 81.6808 104.447 78.1675 104.44C73.632 104.431 69.0957 104.379 64.561 104.438C58.4756 104.517 52.3878 104.611 46.3095 104.862C44.7162 104.928 43.947 104.371 44.0849 102.806C44.6445 96.4461 44.0883 90.086 44.2162 83.7271C44.2967 79.7272 43.9924 75.7221 44.0001 71.7196C44.0078 67.7855 44.2363 63.8522 44.283 59.9177C44.3167 57.069 44.1707 54.2189 44.1774 51.3697C44.191 45.6001 44.2836 39.8307 44.2808 34.0612C44.2798 31.88 44.0789 29.6994 44.0192 27.5174C43.9751 25.9094 44.5362 25.3257 46.2582 25.0567C46.5921 25.0108 46.93 24.9927 47.2676 25.0027C53.4246 25.08 59.5813 25.1621 67.8671 25.2713ZM46.2157 27.2715C46.0276 30.3836 45.7318 33.2244 45.7075 36.0671C45.6386 44.0795 45.6753 52.0928 45.6815 60.1057C45.6872 67.5746 45.6856 75.0436 45.7277 82.5124C45.761 88.4021 45.8738 94.2915 45.9141 100.181C45.9299 102.482 45.8219 102.352 48.6432 102.858C48.9802 102.889 49.3199 102.89 49.6572 102.862C54.8697 102.843 60.0822 102.802 65.2946 102.814C70.1705 102.825 75.0462 102.922 79.9221 102.924C84.1824 102.924 88.4424 102.839 92.7028 102.802C94.9137 102.783 97.1417 102.896 99.4502 101.892C98.823 77.0855 99.9634 52.1743 99.1821 27.1283C98.4338 27.0031 97.6787 26.9134 96.9199 26.8597C92.0517 26.7457 87.183 26.5939 82.3139 26.5804C74.5276 26.5589 66.7409 26.626 58.9545 26.6747C55.8433 26.6942 52.7313 26.7328 49.6221 26.8287C48.4786 26.9214 47.3415 27.0692 46.2157 27.2715V27.2715Z" fill="#4F5544"/>
<path d="M69.8394 28.4268C78.6079 28.5423 85.5194 28.6376 92.4312 28.7189C93.2413 28.7284 94.059 28.591 94.8615 28.6499C95.7238 28.7045 96.575 28.8557 97.3953 29.1C97.7171 29.2085 97.9851 29.4165 98.1511 29.6865C98.3171 29.9565 98.3701 30.2708 98.3007 30.5727C98.1185 32.6111 97.9016 34.6505 97.8364 36.693C97.7182 40.395 97.6698 44.0994 97.6472 47.8031C97.6154 53.0037 97.6558 58.2047 97.6258 63.4054C97.5858 70.3252 97.4758 77.2447 97.457 84.1644C97.4438 89.0105 97.5252 93.857 97.5869 98.703C97.5938 99.2419 97.7896 99.7771 97.8252 100.318C97.892 101.33 97.3937 101.719 96.2705 101.691C89.7768 101.529 83.2833 101.347 76.7884 101.238C70.6252 101.135 64.4612 101.078 58.2963 101.067C55.9302 101.061 53.5639 101.22 51.1969 101.278C50.5916 101.316 49.9833 101.273 49.3921 101.15C48.1509 100.834 47.8774 100.293 47.9611 99.1238C48.0688 97.6176 48.103 96.1051 48.1 94.5954C48.0972 93.2612 47.964 91.9275 47.9503 90.593C47.8817 83.9113 47.826 77.2295 47.7831 70.5476C47.7487 63.4997 47.7815 56.4515 47.7286 49.4038C47.7027 45.9443 47.5816 42.4846 47.4443 39.0269C47.3317 36.1897 47.1367 33.355 46.9672 30.5197C46.9547 30.2353 47.0074 29.9516 47.1221 29.6862C47.2369 29.4209 47.4111 29.1794 47.6341 28.9769C47.8571 28.7744 48.1241 28.6151 48.4186 28.5089C48.713 28.4028 49.0287 28.3519 49.3459 28.3596C51.5806 28.395 53.8144 28.5303 56.0484 28.527C61.2641 28.5191 66.4796 28.4538 69.8394 28.4268ZM82.5215 94.7038C83.0988 95.3451 82.8712 96.5676 84.4495 96.7681C84.3296 96.313 84.0893 95.8905 83.7488 95.5363C83.4083 95.1822 82.9778 94.9068 82.4935 94.7334C82.3561 94.4811 82.1338 94.2739 81.858 94.141C81.5822 94.0081 81.2669 93.9562 80.9564 93.9926C81.0062 94.132 81.0864 94.2612 81.1923 94.3726C81.2981 94.484 81.4276 94.5754 81.5732 94.6416C81.7188 94.7077 81.8776 94.7473 82.0404 94.758C82.2032 94.7686 82.3667 94.7502 82.5215 94.7038V94.7038ZM75.2368 89.89L74.3298 89.2478C73.6239 90.0962 73.0354 90.789 72.4651 91.4937C72.3629 91.5957 72.287 91.7168 72.2429 91.8482C72.1988 91.9796 72.1876 92.1181 72.2102 92.2538C72.2327 92.3896 72.2884 92.5191 72.3732 92.6333C72.4581 92.7475 72.57 92.8435 72.701 92.9144C73.3092 93.275 73.6925 92.8703 73.8658 92.3412C74.0713 91.7135 74.1929 91.0582 74.4644 90.456C74.6766 90.2106 74.9472 90.0108 75.2564 89.8711C76.3036 91.0806 77.7091 92.0013 79.3123 92.528C78.1372 91.4407 76.7575 90.5478 75.2368 89.89H75.2368ZM58.4872 45.1639C57.8873 44.0301 56.9289 44.5795 55.6195 44.6178C56.2123 45.2038 56.5399 45.5276 56.8675 45.8513C57.3634 47.4783 58.7529 48.4836 60.0615 49.5451C61.9295 51.2721 63.7974 52.9992 65.6653 54.7263C66.0846 55.1889 66.5391 55.6249 67.0255 56.0313C68.6123 57.1976 69.2142 59.3517 71.6129 59.7094C72.1506 59.2681 72.4744 58.8216 71.8968 58.1762C71.7699 57.9169 71.7068 57.6362 71.712 57.3531L74.3377 56.4635C74.2536 57.1615 74.2103 57.5206 74.1337 58.1565L76.6489 57.5399L78.8323 58.3551C79.0996 57.5345 79.3267 56.8239 79.5629 56.1157C79.8817 55.16 80.3553 54.1192 81.4593 53.9227C81.7752 53.9035 82.0837 53.8286 82.3672 53.7023C82.6507 53.576 82.9037 53.4008 83.1116 53.1868C83.3196 52.9727 83.4784 52.724 83.5791 52.4548C83.6798 52.1857 83.7203 51.9013 83.6984 51.6181C84.6351 50.6535 85.358 49.9091 86.0808 49.1643C87.3401 47.8922 88.8137 46.7657 89.6804 45.1997C88.6714 44.6255 88.4121 45.2089 87.9485 45.6703C87.459 46.0269 86.9105 46.3128 86.3229 46.518C86.8566 46.6521 87.1674 46.8082 86.8216 47.3944C86.533 47.9745 86.2938 48.5734 86.1062 49.186C85.9117 49.2109 85.7136 49.1975 85.5255 49.1468C84.9765 47.939 84.1638 47.9536 82.8252 48.2324C81.8511 48.4354 80.5271 49.0868 79.363 48.0047C79.7517 47.5131 80.1174 47.0506 80.5104 46.5536C80.847 46.9624 81.0953 47.264 81.4386 47.681C82.3545 45.1904 84.9039 45.6961 86.7688 44.9425C85.7475 44.6864 84.6769 44.6291 83.6289 44.7744C82.5729 45.117 81.5592 45.5565 80.6039 46.0859C79.6991 46.4846 78.3387 46.0871 77.9803 47.1136C78.3545 47.7187 78.7667 48.3043 79.2151 48.8674C79.6342 49.3358 78.5986 50.2238 79.7762 50.3599C79.6664 50.9823 79.2826 51.6818 79.513 52.1233C80.2577 53.5497 79.2889 54.681 78.925 55.9036C78.6853 56.2676 78.3531 56.5757 77.9555 56.8028C77.8789 56.9158 77.7702 57.0085 77.6406 57.0715C77.511 57.1345 77.3651 57.1656 77.2178 57.1615C77.0704 57.1575 76.9269 57.1185 76.8019 57.0484C76.6768 56.9784 76.5747 56.8799 76.5059 56.763C78.2618 55.9615 76.7757 53.9646 78.6141 53.1456C78.1146 53.1745 77.6145 53.0975 77.1543 52.9209C76.7648 52.3916 77.2114 52.0601 77.7783 51.8413C78.0194 51.7171 78.243 51.5674 78.4443 51.3953L78.3242 51.1364L76.1831 51.2681C76.2419 51.682 76.2242 52.1017 76.1306 52.5103C75.9366 52.8032 75.6823 53.0604 75.3814 53.2682C75.7675 53.5702 76.0723 53.9467 76.273 54.3693C76.3026 55.0033 75.6792 55.0258 75.0923 55.0182C73.9675 55.0037 72.7176 55.6051 71.9486 54.2721C71.041 54.9616 70.7051 55.5586 71.374 56.4021C71.5443 56.7057 71.6629 57.0304 71.7261 57.3654C71.0963 57.6671 70.4928 58.1688 69.618 57.4988C70.5296 56.1552 69.508 55.0509 68.9617 53.5589C68.6091 54.0321 68.1044 54.3979 67.5146 54.6078C66.9248 54.8177 66.2777 54.8617 65.6593 54.7339C65.1519 53.7442 66.4871 53.8772 66.9574 53.1297C66.2635 52.9976 65.7488 52.8881 65.2289 52.8051C64.9209 52.8327 64.6099 52.7981 64.3188 52.704C63.6774 52.022 63.0856 51.3036 62.5472 50.5533C62.521 50.4439 62.5269 50.3302 62.5642 50.2234C62.6015 50.1165 62.6691 50.0202 62.7603 49.9438C63.0383 49.8495 63.3418 49.8335 63.6302 49.8979C64.6883 50.0597 64.8457 50.9475 65.2606 51.7683C66.4916 51.7151 67.8119 51.9324 68.8671 51.5543C70.8553 50.6976 73.0484 50.2937 75.2521 50.3786C75.4264 50.337 75.5915 50.2687 75.7398 50.1765C75.2356 49.8242 74.7913 49.5138 74.4396 49.268C74.6952 48.5301 74.9253 47.8655 75.1546 47.2004L78.3127 44.82L74.8932 44.7749C74.9994 45.6612 75.0929 46.4411 75.1863 47.221L73.5113 48.1017C73.568 48.6491 73.5998 48.9571 73.6571 49.5111C73.1025 49.357 72.534 49.2465 71.958 49.1806C71.329 49.1652 70.4508 49.0663 70.115 49.3791C69.3821 50.0618 68.6512 49.6995 67.7892 49.826L67.8234 47.7396C68.9311 47.8051 69.9099 47.8734 70.8902 47.9101C71.0973 47.8601 71.2921 47.7756 71.4643 47.6609L70.2962 46.9995C70.9511 45.6468 72.6338 46.1194 73.5761 45.3535C71.5884 43.9122 69.9052 44.4254 69.4896 46.7603C68.9258 46.2856 68.4664 45.8986 67.9996 45.5056C67.4847 45.6902 66.9656 45.8763 66.2959 46.1164C66.1782 45.5317 66.0905 45.0961 66.0079 44.6858C65.3592 44.5531 64.6854 44.5536 64.0369 44.6872C63.3885 44.8208 62.782 45.084 62.2629 45.4573C62.7927 46.0385 63.2572 46.5479 63.786 47.128L68.0649 46.6813C67.4557 47.3529 67.1074 48.1845 67.0727 49.0497C66.9982 49.8987 66.5565 49.9908 65.3878 49.6109C65.6763 49.3417 65.949 49.0872 66.4525 48.6173C65.5845 48.6832 64.8985 48.9316 64.5816 48.7249C63.3065 47.8932 62.1551 48.4425 60.9599 48.7799C59.917 48.1927 59.0152 47.2815 59.2389 46.2754C59.4325 45.405 58.8849 45.4424 58.4872 45.1639ZM74.7033 96.4873C74.2305 95.9097 73.8688 95.0133 74.5788 94.733C75.8561 94.2287 75.9987 93.1187 76.9052 92.3204L75.8665 91.8394C75.6348 92.3591 75.5735 93.0051 75.25 93.1382C73.4706 93.8702 73.0114 95.5554 71.5834 96.7194C72.597 97.1118 73.3777 97.9191 73.9941 96.5547C74.2258 96.4735 74.4754 96.4417 74.7232 96.4621C75.3963 96.3642 75.3963 96.3642 75.3343 95.8279C75.1684 96.0012 74.9358 96.2443 74.7033 96.4873ZM78.066 98.0741C78.72 99.7592 79.1367 99.8862 80.7048 98.784C80.1281 98.058 79.6043 97.2881 80.5473 96.435C80.6198 96.3061 80.6575 96.1637 80.6571 96.0193C80.6567 95.8749 80.6184 95.7326 80.5452 95.604C80.1006 94.875 79.5668 94.1899 79.016 93.4159C77.7143 94.736 80.3785 95.2383 79.5932 96.5621L76.9241 94.8096C76.2368 95.7722 75.6313 96.7063 75.9288 97.9323L77.8325 97.8584C77.9111 97.9296 77.989 98.0015 78.066 98.0741V98.0741ZM72.4235 86.889C72.5277 87.1091 72.6879 87.3044 72.8912 87.4591C76.1798 88.6609 78.7167 90.9091 81.6901 92.5504C82.7304 93.2809 83.7012 94.0876 84.5926 94.9623C86.0612 96.1241 87.6932 97.1395 89.0355 98.405C90.8611 100.126 92.9002 99.9884 95.41 99.4958C94.7837 96.7504 94.1585 94.1655 93.6109 91.5674C92.9171 88.7264 91.6761 86.0158 89.9438 83.5572C89.3004 82.5768 88.1984 81.8373 87.5633 80.8539C85.8938 78.4241 83.7902 76.2569 81.3368 74.4392C79.2905 72.9174 77.9307 70.7804 77.5104 68.4262C77.1831 66.6039 76.64 64.8127 76.1509 62.8372C75.2403 64.053 74.3145 65.1012 74.7838 66.6041C74.8158 66.8389 74.8013 67.0769 74.7411 67.3072C74.5919 68.6174 74.5906 68.6173 72.677 68.8484C72.7374 68.246 72.7531 67.6837 72.8562 67.1347C73.1747 65.4388 73.2678 63.8193 71.1138 62.485C71.0137 63.2818 70.9291 63.8493 70.875 64.4193C70.9343 64.8387 70.9055 65.2645 70.7899 65.6744C69.8085 67.4527 68.6338 69.1397 67.2829 70.7111C65.0267 73.0076 62.4591 75.0634 59.9624 77.1628C58.1227 78.7471 56.5617 80.5727 55.3327 82.5771C53.657 85.2772 52.4726 88.2 51.824 91.2349C51.3752 93.2488 51.0943 95.2981 50.8687 97.343C50.8405 97.6241 50.8816 97.9074 50.9892 98.1726C51.0967 98.4378 51.2681 98.6786 51.4912 98.8777C53.2223 99.2027 55.0717 99.8938 56.6736 98.5333C57.7196 97.5246 58.8259 96.5676 59.9876 95.6664C63.1639 93.5074 66.4316 91.4562 69.6691 89.3697C70.6086 88.7642 71.8428 88.4043 71.8988 87.0912C72.0666 87.0022 72.2518 86.9427 72.4444 86.9158L72.4235 86.889ZM50.5815 30.3221C50.8682 31.8507 51.0186 33.3495 51.4489 34.7805C52.0635 36.8238 52.8499 38.8279 53.6242 40.8296C54.4555 42.9789 54.4864 42.9698 57.1142 43.0331C57.5206 43.0429 57.9272 43.0488 58.3338 43.0506C64.3621 43.0735 70.3903 43.1138 76.4186 43.1113C81.2165 43.1093 86.0144 43.0547 90.9596 43.0224C92.8108 39.0409 95.6474 35.512 95.2029 31.0399C92.2089 30.121 54.0275 29.4547 50.5815 30.3221ZM49.3755 35.8236L49.077 35.8883C49.0576 36.1611 49.0165 36.4343 49.0221 36.7066C49.0689 38.9359 49.165 41.1651 49.17 43.3944C49.1897 52.0774 49.1601 60.7606 49.1907 69.4436C49.2108 75.1465 49.303 80.8492 49.3622 86.552C49.3735 87.6453 49.3617 88.7391 49.4012 89.8315C49.4446 90.2439 49.519 90.6531 49.624 91.0565C50.1273 90.0282 50.5298 88.9625 50.827 87.8716C51.8353 84.3362 53.6153 81.0153 56.0642 78.101C57.3685 76.7126 58.7702 75.4003 60.2607 74.1719C61.8424 72.9591 63.2364 71.5622 64.4055 70.0182C65.419 68.7413 66.5447 67.5391 67.7717 66.423C68.4673 65.6677 68.8177 64.704 68.7523 63.7261C68.7509 61.6463 67.8718 59.6441 66.2918 58.1219C64.9145 56.7879 63.4743 55.503 62.011 54.2441C56.8235 49.7809 52.3913 44.8936 50.5927 38.4523C50.2624 37.5495 49.8555 36.6707 49.3755 35.8236H49.3755ZM95.8817 38.0236C95.5363 38.6826 95.346 39.0582 95.1441 39.4288C93.2534 42.9004 91.5598 46.455 88.7145 49.457C86.3606 51.9405 84.2026 54.575 82.0027 57.1732C81.2162 58.0835 80.5157 59.0509 79.9083 60.0655C79.0949 61.4595 78.3534 62.9032 78.7339 64.5709C78.8683 65.1602 78.8991 65.7684 79.0285 66.359C79.4041 68.5837 80.5066 70.6586 82.1966 72.3215C84.9865 74.9204 88.2531 77.1423 90.2209 80.4051C91.2459 82.1047 92.4497 83.7247 93.3644 85.4685C94.3308 87.3108 95.0495 89.2577 95.9963 91.4344C96.0789 74.5546 96.1661 57.9397 96.2269 41.3246C96.2306 40.329 96.0243 39.3327 95.8817 38.0236H95.8817ZM63.433 98.0198L61.0137 98.7772C63.5575 99.4126 66.0685 99.2346 68.5818 99.2963C71.1648 99.4495 73.7551 99.4798 76.3418 99.3872C74.9594 98.3769 73.8317 98.0127 72.4708 98.4233C72.01 98.5182 71.5369 98.5564 71.0647 98.5367C70.9207 98.5141 70.7819 98.4702 70.6539 98.4068C70.5406 98.0956 70.4186 97.7603 70.4249 97.7777C69.2093 97.2382 68.2911 96.8308 67.2523 96.3698C67.7492 97.1122 67.9682 97.9777 67.8773 98.8396C66.6209 98.9488 65.8184 97.6066 64.5337 97.9371C64.1139 96.5807 62.2437 97.0091 61.7859 96.0757L60.0488 97.2962C61.2331 97.1843 62.3604 96.6581 63.433 98.0198ZM70.1766 94.8184C70.493 94.422 70.7708 94.0021 71.0073 93.5631C71.2003 93.1184 71.2091 92.6124 71.3544 92.1473C71.4737 91.6248 71.6764 91.1205 71.9562 90.6499C72.3728 90.0646 71.9703 89.8513 71.562 89.3189C71.5087 90.1691 71.1682 90.9846 70.5857 91.6571C70.0032 92.3295 69.2063 92.827 68.3009 93.0834C68.477 94.0022 68.7403 94.8068 70.1766 94.8184H70.1766ZM81.81 95.7146C81.2862 97.3837 81.6525 98.7135 82.8418 99.488C83.3988 99.8508 85.14 99.6744 86.1431 99.0216L82.5296 97.5306C82.3305 97.0281 82.0721 96.3762 81.81 95.7145L81.81 95.7146ZM74.2496 52.524C71.7145 52.2455 70.6053 52.3781 69.9954 52.9885C72.5981 53.9443 72.8439 53.9255 74.2495 52.5239L74.2496 52.524ZM77.798 59.1797L73.3562 59.1212L73.3551 59.3272C74.0601 59.568 74.7652 59.8088 75.4067 60.0278C75.4316 60.4307 75.4501 60.7307 75.482 61.2458C75.8933 61.0005 76.2871 60.7324 76.6612 60.4431C76.9878 60.1481 77.2506 59.7962 77.7979 59.1796L77.798 59.1797ZM66.2092 94.8616C65.8174 95.3303 65.4941 95.6722 65.2304 96.0477C65.0675 96.3201 64.9284 96.6033 64.8144 96.895C65.215 96.9431 65.6226 96.9089 66.0063 96.7949C66.8143 96.2897 66.6996 95.6095 66.2092 94.8616ZM85.1989 97.4298C85.9122 98.049 86.6212 98.6723 87.3462 99.2803C87.5314 99.3176 87.7229 99.3225 87.9101 99.2949C87.6979 98.7877 87.3313 98.3441 86.852 98.0144C86.3728 97.6847 85.8001 97.4822 85.1989 97.4298V97.4298ZM83.4893 46.5854L83.5292 47.0782C83.8201 47.1196 84.1155 47.13 84.4091 47.1094C84.6003 47.0303 84.7705 46.9155 84.9082 46.7726L84.7695 46.4397L83.4893 46.5854ZM63.9243 95.7041C63.9683 95.5406 63.9898 95.3729 63.9884 95.2046C63.8958 95.1403 63.7872 95.0969 63.672 95.078C63.6087 95.2244 63.567 95.3775 63.5481 95.5336C63.6596 95.6123 63.7875 95.6703 63.9243 95.7041V95.7041ZM67.8798 52.2517L67.8026 52.5097L68.5533 52.7025C68.5751 52.6028 68.5787 52.5006 68.5641 52.3999C68.3397 52.3376 68.1112 52.2881 67.8798 52.2517V52.2517Z" fill="#4F5544"/>
<path d="M72.3353 83.6986C72.5779 82.8115 73.2589 82.0373 71.5291 81.4186C72.5073 80.8861 73.0729 80.5782 73.8213 80.1709C74.0969 80.4001 74.2902 80.6976 74.3768 81.0256C73.9863 81.9821 74.6738 83.5761 72.3353 83.6986Z" fill="#4F5544"/>
<path d="M73.8775 73.8276L74.6038 73.7412L74.5662 76.0371C73.9526 76.2723 73.2545 76.5399 72.4593 76.8447C71.8322 75.2022 73.0605 74.5842 73.9048 73.8059L73.8775 73.8276Z" fill="#4F5544"/>
<path d="M72.3745 71.6966C72.4602 71.1825 72.6116 70.679 72.8259 70.196C72.9434 70.0627 73.0909 69.9531 73.2587 69.8744C73.4266 69.7957 73.6111 69.7496 73.8002 69.7393C73.95 69.7573 74.092 69.81 74.2123 69.8922C74.3325 69.9743 74.4268 70.0831 74.486 70.2079C74.5126 70.369 74.5012 70.5332 74.4525 70.6901C74.4038 70.8469 74.319 70.9928 74.2034 71.1184C73.7282 71.4666 73.2194 71.7762 72.6829 72.0435L72.3745 71.6966Z" fill="#4F5544"/>
<path d="M72.4441 86.9158C72.5088 86.3706 72.5736 85.8254 72.6597 85.1016C73.3873 85.5409 74.3811 85.794 74.0813 86.7484C73.7897 87.6767 73.0088 87.0383 72.4236 86.8894L72.4441 86.9158Z" fill="#4F5544"/>
<path d="M73.5437 76.8193L73.5157 78.5282L71.5544 78.1117L73.5437 76.8193Z" fill="#4F5544"/>
<path d="M73.9038 73.806C72.8526 73.3803 72.8526 73.3803 74.0367 72.3052C73.9637 72.9986 73.9202 73.4131 73.8765 73.8276L73.9038 73.806Z" fill="#4F5544"/>
<path d="M80.3318 51.0421C80.7206 49.6001 82.0962 49.3853 83.2861 48.6777C83.573 49.1845 83.8238 49.6274 83.9728 49.8905C83.1801 50.9589 82.5309 51.8338 81.8294 52.7792C80.5892 52.6566 80.9649 51.4481 80.3318 51.0421Z" fill="#4F5544"/>
<path d="M64.941 45.0137C65.0393 45.2994 65.0733 45.5997 65.0409 45.8973C64.8692 46.0396 64.6614 46.1421 64.4354 46.1959C64.3451 46.0475 64.2975 45.8811 64.2969 45.712C64.4754 45.4542 64.692 45.2192 64.941 45.0137V45.0137Z" fill="#4F5544"/>
<path d="M67.4161 50.7549C67.1884 50.9275 66.966 51.1069 66.7239 51.2614C66.6287 51.2103 66.5445 51.1443 66.4754 51.0664C66.6565 50.8356 66.8573 50.6172 67.0545 50.3965L67.4161 50.7549Z" fill="#4F5544"/>
<path d="M77.8345 97.8588L77.5627 97.2822C78.3873 96.9555 78.8741 97.3009 79.6264 97.9799C78.8946 98.0242 78.4813 98.0493 78.0679 98.0743C77.991 98.0018 77.9131 97.93 77.8345 97.8588Z" fill="#4F5544"/>
<path d="M56.8352 45.8689C56.8796 45.7151 56.9608 45.5719 57.0731 45.4491C57.1854 45.3262 57.3261 45.2268 57.4855 45.1576C57.645 45.0885 57.8193 45.0512 57.9963 45.0485C58.1734 45.0458 58.349 45.0776 58.511 45.1418C58.3532 46.1273 57.6246 46.0545 56.8352 45.8689Z" fill="#4F5544"/>
</svg>
