<svg width="145" height="130" viewBox="0 0 145 130" fill="none" xmlns="http://www.w3.org/2000/svg">
<path d="M23.0596 95.0293C23.0478 91.908 24.2131 88.8748 26.3661 86.4224C28.7882 83.2883 31.6455 80.4436 34.8692 77.9571C37.5828 75.7998 40.4529 73.8063 43.4608 71.9898C45.2004 71.0207 47.0521 70.3321 48.8486 69.5067C54.795 66.7745 60.9335 64.3087 66.5814 61.1424C73.104 57.4885 79.3649 53.4716 85.3274 49.1154C89.2755 46.2289 93.2473 43.3506 96.0916 39.6044C98.8899 35.9189 102.786 33.3338 106.165 30.2371C108.45 28.2992 111.112 26.7551 114.02 25.6817C114.678 25.4587 115.355 25.2835 116.044 25.1576C118.402 24.5754 119.937 25.6756 121.022 27.3158C121.594 28.0726 121.898 28.9667 121.894 29.881C121.891 30.7953 121.58 31.6874 121.002 32.4406C118.644 35.8562 115.246 38.5957 111.209 40.3357C106.045 42.5703 102.023 46.2514 97.5479 49.3527C92.3433 52.9595 87.3319 56.8032 82.4195 60.7023C78.358 63.9698 74.6212 67.548 71.2514 71.3965C69.0872 73.5529 67.1588 75.8906 65.4927 78.3775C63.8013 81.2738 62.2616 84.2357 60.8814 87.2391C58.9199 91.5076 55.5763 94.7088 51.86 97.6822C47.0226 101.553 41.0986 103.238 34.9229 104.582C30.0594 105.64 22.2404 101.844 23.0596 95.0293ZM114.408 33.7889C116.336 32.7438 116.67 30.8347 117.352 29.1765C118.004 27.5937 117.036 26.7188 115.141 27.0373C113.225 27.3231 111.502 28.2503 110.319 29.6318C109.315 30.7708 108.19 31.8189 106.958 32.7611C104.78 34.24 102.792 35.9318 101.032 37.8052C99.8933 39.3766 98.5653 40.8305 97.0715 42.1407C93.6983 44.8805 90.4255 47.7278 86.9321 50.3378C84.3819 52.2431 82.1831 54.6107 79.066 55.8274C77.2262 56.5658 75.4707 57.4627 73.8242 58.5054C65.4924 63.6564 56.9438 68.4426 47.4342 71.7073C46.5765 72.0017 45.4891 72.2511 45.08 73.2174C44.5319 73.1344 43.9696 73.1699 43.4399 73.321C42.9102 73.472 42.4284 73.7343 42.0344 74.086C40.853 74.9267 39.7414 75.846 38.5907 76.722C38.1301 77.0727 37.6302 77.3823 37.1755 77.7387C36.8019 77.9567 36.4996 78.2598 36.2994 78.6169C36.0992 78.9741 36.0084 79.3725 36.0362 79.7715C39.1154 77.0106 42.6605 75.7809 45.0263 73.159C47.2289 73.1675 49.2338 71.8611 52.1394 72.2408C49.1475 73.3918 46.2707 73.8121 45.5142 76.6782C45.4177 77.044 44.7998 77.2894 44.4489 77.6128C43.2512 78.7166 42.0619 79.8277 40.8809 80.946C40.7147 81.104 40.7966 81.2972 40.7655 81.2788C41.6802 81.7724 42.1314 80.6215 42.9891 81.2741C42.4472 81.9885 42.0971 82.8059 41.9662 83.662C41.8354 84.5181 41.9274 85.3898 42.235 86.2087C40.9691 86.3391 41.1578 85.1156 40.3631 84.9384C39.4184 86.0117 41.553 87.5406 39.6216 88.5209C38.345 89.169 37.3577 90.351 35.3879 89.9955C36.1789 88.9187 35.7625 87.7198 36.0763 86.5988C36.3882 85.485 36.7181 84.3754 37.04 83.2639C35.8383 84.7547 34.9772 86.4439 34.5062 88.2344C34.0901 89.8567 34.7198 90.7134 36.0588 91.8849C36.9689 92.681 38.0482 92.1276 39.0252 92.5199C38.7244 92.8316 38.6246 93.0123 38.4634 93.0889C37.6892 93.5115 36.8438 93.819 35.9601 93.9994C35.0905 94.1342 35.1067 94.7505 35.6162 95.1808C36.6941 96.0913 39.9712 95.5367 40.0171 94.3403C40.0838 92.6035 41.4797 92.7288 42.5303 92.2539C43.1398 92.3563 42.1503 93.2672 43.0625 93.14C43.3378 93.1016 43.9984 92.8794 43.7396 92.5002C43.5925 92.2847 42.8909 92.3736 42.439 92.3255C42.5069 92.1535 42.6221 91.9996 42.7739 91.8782C42.9258 91.7568 43.1093 91.6717 43.3076 91.6308C45.4973 91.1309 46.8601 89.7113 48.2903 88.2728C50.2872 86.1083 52.1002 83.8125 53.7143 81.4047C54.317 80.578 55.9428 80.1274 55.0651 78.7127C54.2788 77.4452 56.7576 77.2077 56.108 75.9253C55.8331 75.3828 56.2209 74.664 55.8264 74.0728C55.3918 73.4216 54.3232 74.1002 53.8165 73.3769C56.7788 72.5879 57.0204 72.706 57.1728 75.0434C57.2516 76.2212 57.1407 77.4032 56.8435 78.5527C55.6004 83.3933 52.285 87.1601 48.9814 90.9283C47.3677 92.7691 44.9471 93.9247 43.4767 95.9304C43.8069 96.0648 44.1741 96.1084 44.5319 96.0555C44.8897 96.0026 45.2219 95.8557 45.4865 95.6333C47.7015 94.5169 49.6221 92.9854 51.1176 91.1432C51.5552 90.5542 52.0694 89.3978 53.0648 89.9261C54.0572 90.4529 54.3429 90.0573 54.6393 89.4798C56.5242 85.8068 59.6318 82.6481 60.394 78.4989C60.4344 78.2791 60.6752 78.2657 60.969 78.6475C60.9616 81.1184 60.0643 83.5211 58.4107 85.4974C57.0426 86.9906 56.3735 88.8359 55.1914 90.4166C54.6023 91.2043 54.9965 91.7675 55.688 92.3449C56.7018 91.7519 57.5085 90.9143 58.0154 89.9285C59.8248 86.9866 61.2159 83.8529 62.1559 80.6006C62.5034 78.5281 63.2925 76.5349 64.4801 74.73C67.2828 71.1722 70.1157 67.6238 74.0016 64.896C78.7775 61.5436 83.7336 58.3988 88.2939 54.7967C89.9631 53.4783 91.2826 51.7956 93.2585 50.8065C95.323 49.773 96.7781 48.0862 98.6996 46.8912C100.449 45.803 102.593 44.9299 102.857 42.6363C105.689 40.047 108.727 37.6457 111.947 35.4515C110.768 37.6644 108.105 38.7163 106.225 41.2539C110.143 39.7195 113.758 37.629 116.934 35.0627C117.014 35.0091 117.08 34.9415 117.13 34.8641C117.179 34.7867 117.21 34.7011 117.222 34.6124C117.233 34.5238 117.224 34.434 117.195 34.3486C117.167 34.2632 117.119 34.1839 117.055 34.1156C116.696 33.6089 116.277 33.715 115.799 33.9787C115.295 34.2575 114.665 35.0517 114.408 33.7889ZM32.8391 83.2647C29.7412 85.0512 27.4773 87.7909 26.4729 90.9689C26.0982 91.7716 25.9112 92.6346 25.9234 93.5047C25.9356 94.3748 26.1468 95.2334 26.5439 96.0273C27.6298 97.4709 28.9217 98.7808 30.3867 99.9237C30.6371 100.148 31.2756 100.684 31.7055 100.092C32.0227 99.6553 30.3443 98.7825 32.0362 98.836C33.2228 98.8203 34.3891 98.5571 35.4427 98.0673C36.1323 97.8024 36.5911 97.1914 35.4996 96.7096C35.0478 96.5102 34.5505 96.3866 34.1175 96.1612C30.0552 94.046 28.9572 91.3279 30.8182 87.7345C31.5724 86.2781 32.1701 84.7566 32.8391 83.2647ZM41.3776 96.7903C40.9884 96.6234 40.5655 96.5291 40.1344 96.513C39.7034 96.4969 39.2732 96.5593 38.8698 96.6966C38.4665 96.8338 38.0983 97.043 37.7876 97.3114C37.477 97.5799 37.2302 97.902 37.0623 98.2584C36.4463 99.1521 36.8527 99.5349 37.1507 100.12C37.256 100.377 37.4699 100.586 37.7462 100.702C38.0224 100.818 38.3386 100.832 38.6261 100.741C39.3921 100.569 39.9277 100.267 39.8376 99.4622C39.7851 98.9316 39.9021 98.3987 40.1748 97.9255C40.4475 97.4524 40.8647 97.0587 41.3776 96.7903V96.7903ZM39.5722 82.497C38.3967 83.8512 37.573 85.4237 37.1611 87.0997C37.0203 87.58 36.813 88.3149 37.6756 88.3985C38.455 88.474 39.442 88.2557 39.1329 87.262C38.6716 85.7793 39.3969 84.4159 39.5722 82.497V82.497ZM28.6318 102.252C28.1329 99.4648 28.1329 99.4648 24.7661 97.5255C24.9218 99.8924 26.7336 100.967 28.6318 102.252ZM32.3088 101.981C33.1052 102.39 33.9868 102.648 34.8989 102.738C35.811 102.829 36.7342 102.751 37.6111 102.508C35.9707 100.684 34.0115 101.971 32.3088 101.981ZM120.603 29.9094C120.638 29.1659 120.362 28.4374 119.831 27.8658C119.579 27.6182 119.303 27.2605 118.857 27.4643C118.68 27.5417 118.543 27.6765 118.473 27.8414C118.403 28.0062 118.406 28.1887 118.481 28.3518C118.699 28.9369 118.95 29.5123 119.173 30.096C119.321 30.4824 119.224 31.1138 119.891 31.056C120.666 30.989 120.562 30.3281 120.603 29.9094ZM39.6079 101.92C43.0474 101.083 43.7594 100.701 45.2016 98.8254C43.2089 99.6577 41.3316 100.696 39.6079 101.92V101.92ZM44.7632 97.4C43.5084 97.2333 42.227 97.4234 41.0989 97.9436C40.6475 98.066 40.7996 98.5522 40.9114 98.8944C40.9339 98.9588 40.971 99.0183 41.0204 99.0692C41.0697 99.1201 41.1304 99.1612 41.1984 99.1901C41.2664 99.2189 41.3403 99.2348 41.4155 99.2367C41.4907 99.2386 41.5655 99.2265 41.6353 99.2012C42.8685 98.9217 43.9665 98.2894 44.7632 97.4V97.4ZM49.6 94.6648C50.4584 94.3683 51.2172 93.8783 51.803 93.2423C52.3889 92.6062 52.7821 91.8454 52.9447 91.0334C51.5657 92.0269 50.4275 93.2627 49.6 94.6649V94.6648ZM41.5443 78.2393C42.1075 78.069 42.6188 77.7833 43.0374 77.4049C43.4561 77.0265 43.7706 76.5659 43.9561 76.0594C43.4091 76.2553 42.9128 76.5498 42.4979 76.9248C42.083 77.2997 41.7585 77.7471 41.5443 78.2393ZM69.9645 70.717C71.2127 70.144 72.1618 69.1561 72.6092 67.9642C71.0718 68.9101 70.2642 69.6222 69.9645 70.717V70.717Z" fill="#99A287"/>
<path d="M79.7732 59.0123C78.6351 60.8099 76.517 61.6362 74.8547 62.8963C71.0219 65.8016 67.1127 68.6237 63.474 71.7304C63.385 71.8064 63.1447 71.7399 62.9835 71.7399C62.8901 71.632 62.846 71.4962 62.8603 71.3601C62.8746 71.2241 62.9461 71.098 63.0603 71.0076C68.1732 66.5329 73.719 62.4743 79.6324 58.8794L79.7732 59.0123Z" fill="#99A287"/>
<path d="M82.8513 56.1224L79.6225 57.2688L79.3992 56.8835C83.7113 54.151 88.0234 51.4185 92.4728 48.5991C91.5366 50.2298 90.5454 51.0887 87.142 53.0057C85.878 53.577 84.88 54.5306 84.3242 55.6981L82.8513 56.1224Z" fill="#99A287"/>
<path d="M114.495 33.884C113.861 34.3443 113.227 34.8047 112.593 35.265C112.455 34.5261 113.712 32.8146 111.217 33.6979C110.978 33.7828 110.778 33.3644 110.912 33.1132C111.376 32.3184 112.08 31.6571 112.944 31.2053C113.78 30.73 114.513 30.9939 114.561 32.0107C114.59 32.6332 114.52 33.2594 114.495 33.884Z" fill="#99A287"/>
<path d="M82.8527 56.1225L84.3256 55.6982C83.4747 57.5381 81.6715 58.3264 79.7758 59.0126L79.635 58.8797C80.5285 57.7925 82.0491 57.2941 82.8527 56.1225Z" fill="#99A287"/>
<path d="M106.344 37.0844C106.455 37.1711 106.531 37.2883 106.56 37.4177C106.589 37.5472 106.57 37.6817 106.505 37.8003C106.371 38.2118 106.199 38.6363 105.592 38.5895C105.503 38.5826 105.36 38.3085 105.378 38.1733C105.415 37.9594 105.5 37.7543 105.627 37.5702C105.753 37.3861 105.92 37.2267 106.117 37.1014C106.167 37.066 106.268 37.0884 106.344 37.0844Z" fill="#99A287"/>
</svg>
